%TF.GenerationSoftware,KiCad,Pcbnew,7.0.2-0*%
%TF.CreationDate,2023-07-09T16:01:25+01:00*%
%TF.ProjectId,jfet-matcher,6a666574-2d6d-4617-9463-6865722e6b69,rev?*%
%TF.SameCoordinates,Original*%
%TF.FileFunction,Legend,Top*%
%TF.FilePolarity,Positive*%
%FSLAX46Y46*%
G04 Gerber Fmt 4.6, Leading zero omitted, Abs format (unit mm)*
G04 Created by KiCad (PCBNEW 7.0.2-0) date 2023-07-09 16:01:25*
%MOMM*%
%LPD*%
G01*
G04 APERTURE LIST*
%ADD10C,0.150000*%
%ADD11C,0.300000*%
%ADD12C,0.120000*%
G04 APERTURE END LIST*
D10*
X117586095Y-78363619D02*
X117586095Y-77363619D01*
X118062285Y-78363619D02*
X118062285Y-77363619D01*
X118062285Y-77363619D02*
X118300380Y-77363619D01*
X118300380Y-77363619D02*
X118443237Y-77411238D01*
X118443237Y-77411238D02*
X118538475Y-77506476D01*
X118538475Y-77506476D02*
X118586094Y-77601714D01*
X118586094Y-77601714D02*
X118633713Y-77792190D01*
X118633713Y-77792190D02*
X118633713Y-77935047D01*
X118633713Y-77935047D02*
X118586094Y-78125523D01*
X118586094Y-78125523D02*
X118538475Y-78220761D01*
X118538475Y-78220761D02*
X118443237Y-78316000D01*
X118443237Y-78316000D02*
X118300380Y-78363619D01*
X118300380Y-78363619D02*
X118062285Y-78363619D01*
X119014666Y-78316000D02*
X119157523Y-78363619D01*
X119157523Y-78363619D02*
X119395618Y-78363619D01*
X119395618Y-78363619D02*
X119490856Y-78316000D01*
X119490856Y-78316000D02*
X119538475Y-78268380D01*
X119538475Y-78268380D02*
X119586094Y-78173142D01*
X119586094Y-78173142D02*
X119586094Y-78077904D01*
X119586094Y-78077904D02*
X119538475Y-77982666D01*
X119538475Y-77982666D02*
X119490856Y-77935047D01*
X119490856Y-77935047D02*
X119395618Y-77887428D01*
X119395618Y-77887428D02*
X119205142Y-77839809D01*
X119205142Y-77839809D02*
X119109904Y-77792190D01*
X119109904Y-77792190D02*
X119062285Y-77744571D01*
X119062285Y-77744571D02*
X119014666Y-77649333D01*
X119014666Y-77649333D02*
X119014666Y-77554095D01*
X119014666Y-77554095D02*
X119062285Y-77458857D01*
X119062285Y-77458857D02*
X119109904Y-77411238D01*
X119109904Y-77411238D02*
X119205142Y-77363619D01*
X119205142Y-77363619D02*
X119443237Y-77363619D01*
X119443237Y-77363619D02*
X119586094Y-77411238D01*
X119967047Y-78316000D02*
X120109904Y-78363619D01*
X120109904Y-78363619D02*
X120347999Y-78363619D01*
X120347999Y-78363619D02*
X120443237Y-78316000D01*
X120443237Y-78316000D02*
X120490856Y-78268380D01*
X120490856Y-78268380D02*
X120538475Y-78173142D01*
X120538475Y-78173142D02*
X120538475Y-78077904D01*
X120538475Y-78077904D02*
X120490856Y-77982666D01*
X120490856Y-77982666D02*
X120443237Y-77935047D01*
X120443237Y-77935047D02*
X120347999Y-77887428D01*
X120347999Y-77887428D02*
X120157523Y-77839809D01*
X120157523Y-77839809D02*
X120062285Y-77792190D01*
X120062285Y-77792190D02*
X120014666Y-77744571D01*
X120014666Y-77744571D02*
X119967047Y-77649333D01*
X119967047Y-77649333D02*
X119967047Y-77554095D01*
X119967047Y-77554095D02*
X120014666Y-77458857D01*
X120014666Y-77458857D02*
X120062285Y-77411238D01*
X120062285Y-77411238D02*
X120157523Y-77363619D01*
X120157523Y-77363619D02*
X120395618Y-77363619D01*
X120395618Y-77363619D02*
X120538475Y-77411238D01*
X121728952Y-78363619D02*
X121728952Y-77363619D01*
X121728952Y-77363619D02*
X122062285Y-78077904D01*
X122062285Y-78077904D02*
X122395618Y-77363619D01*
X122395618Y-77363619D02*
X122395618Y-78363619D01*
X123252761Y-78316000D02*
X123157523Y-78363619D01*
X123157523Y-78363619D02*
X122967047Y-78363619D01*
X122967047Y-78363619D02*
X122871809Y-78316000D01*
X122871809Y-78316000D02*
X122824190Y-78220761D01*
X122824190Y-78220761D02*
X122824190Y-77839809D01*
X122824190Y-77839809D02*
X122871809Y-77744571D01*
X122871809Y-77744571D02*
X122967047Y-77696952D01*
X122967047Y-77696952D02*
X123157523Y-77696952D01*
X123157523Y-77696952D02*
X123252761Y-77744571D01*
X123252761Y-77744571D02*
X123300380Y-77839809D01*
X123300380Y-77839809D02*
X123300380Y-77935047D01*
X123300380Y-77935047D02*
X122824190Y-78030285D01*
X124157523Y-78363619D02*
X124157523Y-77839809D01*
X124157523Y-77839809D02*
X124109904Y-77744571D01*
X124109904Y-77744571D02*
X124014666Y-77696952D01*
X124014666Y-77696952D02*
X123824190Y-77696952D01*
X123824190Y-77696952D02*
X123728952Y-77744571D01*
X124157523Y-78316000D02*
X124062285Y-78363619D01*
X124062285Y-78363619D02*
X123824190Y-78363619D01*
X123824190Y-78363619D02*
X123728952Y-78316000D01*
X123728952Y-78316000D02*
X123681333Y-78220761D01*
X123681333Y-78220761D02*
X123681333Y-78125523D01*
X123681333Y-78125523D02*
X123728952Y-78030285D01*
X123728952Y-78030285D02*
X123824190Y-77982666D01*
X123824190Y-77982666D02*
X124062285Y-77982666D01*
X124062285Y-77982666D02*
X124157523Y-77935047D01*
X124586095Y-78316000D02*
X124681333Y-78363619D01*
X124681333Y-78363619D02*
X124871809Y-78363619D01*
X124871809Y-78363619D02*
X124967047Y-78316000D01*
X124967047Y-78316000D02*
X125014666Y-78220761D01*
X125014666Y-78220761D02*
X125014666Y-78173142D01*
X125014666Y-78173142D02*
X124967047Y-78077904D01*
X124967047Y-78077904D02*
X124871809Y-78030285D01*
X124871809Y-78030285D02*
X124728952Y-78030285D01*
X124728952Y-78030285D02*
X124633714Y-77982666D01*
X124633714Y-77982666D02*
X124586095Y-77887428D01*
X124586095Y-77887428D02*
X124586095Y-77839809D01*
X124586095Y-77839809D02*
X124633714Y-77744571D01*
X124633714Y-77744571D02*
X124728952Y-77696952D01*
X124728952Y-77696952D02*
X124871809Y-77696952D01*
X124871809Y-77696952D02*
X124967047Y-77744571D01*
X125871809Y-77696952D02*
X125871809Y-78363619D01*
X125443238Y-77696952D02*
X125443238Y-78220761D01*
X125443238Y-78220761D02*
X125490857Y-78316000D01*
X125490857Y-78316000D02*
X125586095Y-78363619D01*
X125586095Y-78363619D02*
X125728952Y-78363619D01*
X125728952Y-78363619D02*
X125824190Y-78316000D01*
X125824190Y-78316000D02*
X125871809Y-78268380D01*
X126348000Y-78363619D02*
X126348000Y-77696952D01*
X126348000Y-77887428D02*
X126395619Y-77792190D01*
X126395619Y-77792190D02*
X126443238Y-77744571D01*
X126443238Y-77744571D02*
X126538476Y-77696952D01*
X126538476Y-77696952D02*
X126633714Y-77696952D01*
X127348000Y-78316000D02*
X127252762Y-78363619D01*
X127252762Y-78363619D02*
X127062286Y-78363619D01*
X127062286Y-78363619D02*
X126967048Y-78316000D01*
X126967048Y-78316000D02*
X126919429Y-78220761D01*
X126919429Y-78220761D02*
X126919429Y-77839809D01*
X126919429Y-77839809D02*
X126967048Y-77744571D01*
X126967048Y-77744571D02*
X127062286Y-77696952D01*
X127062286Y-77696952D02*
X127252762Y-77696952D01*
X127252762Y-77696952D02*
X127348000Y-77744571D01*
X127348000Y-77744571D02*
X127395619Y-77839809D01*
X127395619Y-77839809D02*
X127395619Y-77935047D01*
X127395619Y-77935047D02*
X126919429Y-78030285D01*
X127824191Y-78363619D02*
X127824191Y-77696952D01*
X127824191Y-77792190D02*
X127871810Y-77744571D01*
X127871810Y-77744571D02*
X127967048Y-77696952D01*
X127967048Y-77696952D02*
X128109905Y-77696952D01*
X128109905Y-77696952D02*
X128205143Y-77744571D01*
X128205143Y-77744571D02*
X128252762Y-77839809D01*
X128252762Y-77839809D02*
X128252762Y-78363619D01*
X128252762Y-77839809D02*
X128300381Y-77744571D01*
X128300381Y-77744571D02*
X128395619Y-77696952D01*
X128395619Y-77696952D02*
X128538476Y-77696952D01*
X128538476Y-77696952D02*
X128633715Y-77744571D01*
X128633715Y-77744571D02*
X128681334Y-77839809D01*
X128681334Y-77839809D02*
X128681334Y-78363619D01*
X129538476Y-78316000D02*
X129443238Y-78363619D01*
X129443238Y-78363619D02*
X129252762Y-78363619D01*
X129252762Y-78363619D02*
X129157524Y-78316000D01*
X129157524Y-78316000D02*
X129109905Y-78220761D01*
X129109905Y-78220761D02*
X129109905Y-77839809D01*
X129109905Y-77839809D02*
X129157524Y-77744571D01*
X129157524Y-77744571D02*
X129252762Y-77696952D01*
X129252762Y-77696952D02*
X129443238Y-77696952D01*
X129443238Y-77696952D02*
X129538476Y-77744571D01*
X129538476Y-77744571D02*
X129586095Y-77839809D01*
X129586095Y-77839809D02*
X129586095Y-77935047D01*
X129586095Y-77935047D02*
X129109905Y-78030285D01*
X130014667Y-77696952D02*
X130014667Y-78363619D01*
X130014667Y-77792190D02*
X130062286Y-77744571D01*
X130062286Y-77744571D02*
X130157524Y-77696952D01*
X130157524Y-77696952D02*
X130300381Y-77696952D01*
X130300381Y-77696952D02*
X130395619Y-77744571D01*
X130395619Y-77744571D02*
X130443238Y-77839809D01*
X130443238Y-77839809D02*
X130443238Y-78363619D01*
X130776572Y-77696952D02*
X131157524Y-77696952D01*
X130919429Y-77363619D02*
X130919429Y-78220761D01*
X130919429Y-78220761D02*
X130967048Y-78316000D01*
X130967048Y-78316000D02*
X131062286Y-78363619D01*
X131062286Y-78363619D02*
X131157524Y-78363619D01*
D11*
X145565714Y-80358428D02*
X145565714Y-81429857D01*
X145565714Y-81429857D02*
X145494285Y-81644142D01*
X145494285Y-81644142D02*
X145351428Y-81787000D01*
X145351428Y-81787000D02*
X145137142Y-81858428D01*
X145137142Y-81858428D02*
X144994285Y-81858428D01*
X146779999Y-81072714D02*
X146279999Y-81072714D01*
X146279999Y-81858428D02*
X146279999Y-80358428D01*
X146279999Y-80358428D02*
X146994285Y-80358428D01*
X147565713Y-81072714D02*
X148065713Y-81072714D01*
X148279999Y-81858428D02*
X147565713Y-81858428D01*
X147565713Y-81858428D02*
X147565713Y-80358428D01*
X147565713Y-80358428D02*
X148279999Y-80358428D01*
X148708571Y-80358428D02*
X149565714Y-80358428D01*
X149137142Y-81858428D02*
X149137142Y-80358428D01*
X151208570Y-81858428D02*
X151208570Y-80358428D01*
X151208570Y-80358428D02*
X151708570Y-81429857D01*
X151708570Y-81429857D02*
X152208570Y-80358428D01*
X152208570Y-80358428D02*
X152208570Y-81858428D01*
X153565714Y-81858428D02*
X153565714Y-81072714D01*
X153565714Y-81072714D02*
X153494285Y-80929857D01*
X153494285Y-80929857D02*
X153351428Y-80858428D01*
X153351428Y-80858428D02*
X153065714Y-80858428D01*
X153065714Y-80858428D02*
X152922856Y-80929857D01*
X153565714Y-81787000D02*
X153422856Y-81858428D01*
X153422856Y-81858428D02*
X153065714Y-81858428D01*
X153065714Y-81858428D02*
X152922856Y-81787000D01*
X152922856Y-81787000D02*
X152851428Y-81644142D01*
X152851428Y-81644142D02*
X152851428Y-81501285D01*
X152851428Y-81501285D02*
X152922856Y-81358428D01*
X152922856Y-81358428D02*
X153065714Y-81287000D01*
X153065714Y-81287000D02*
X153422856Y-81287000D01*
X153422856Y-81287000D02*
X153565714Y-81215571D01*
X154065714Y-80858428D02*
X154637142Y-80858428D01*
X154279999Y-80358428D02*
X154279999Y-81644142D01*
X154279999Y-81644142D02*
X154351428Y-81787000D01*
X154351428Y-81787000D02*
X154494285Y-81858428D01*
X154494285Y-81858428D02*
X154637142Y-81858428D01*
X155780000Y-81787000D02*
X155637142Y-81858428D01*
X155637142Y-81858428D02*
X155351428Y-81858428D01*
X155351428Y-81858428D02*
X155208571Y-81787000D01*
X155208571Y-81787000D02*
X155137142Y-81715571D01*
X155137142Y-81715571D02*
X155065714Y-81572714D01*
X155065714Y-81572714D02*
X155065714Y-81144142D01*
X155065714Y-81144142D02*
X155137142Y-81001285D01*
X155137142Y-81001285D02*
X155208571Y-80929857D01*
X155208571Y-80929857D02*
X155351428Y-80858428D01*
X155351428Y-80858428D02*
X155637142Y-80858428D01*
X155637142Y-80858428D02*
X155780000Y-80929857D01*
X156422856Y-81858428D02*
X156422856Y-80358428D01*
X157065714Y-81858428D02*
X157065714Y-81072714D01*
X157065714Y-81072714D02*
X156994285Y-80929857D01*
X156994285Y-80929857D02*
X156851428Y-80858428D01*
X156851428Y-80858428D02*
X156637142Y-80858428D01*
X156637142Y-80858428D02*
X156494285Y-80929857D01*
X156494285Y-80929857D02*
X156422856Y-81001285D01*
X158351428Y-81787000D02*
X158208571Y-81858428D01*
X158208571Y-81858428D02*
X157922857Y-81858428D01*
X157922857Y-81858428D02*
X157779999Y-81787000D01*
X157779999Y-81787000D02*
X157708571Y-81644142D01*
X157708571Y-81644142D02*
X157708571Y-81072714D01*
X157708571Y-81072714D02*
X157779999Y-80929857D01*
X157779999Y-80929857D02*
X157922857Y-80858428D01*
X157922857Y-80858428D02*
X158208571Y-80858428D01*
X158208571Y-80858428D02*
X158351428Y-80929857D01*
X158351428Y-80929857D02*
X158422857Y-81072714D01*
X158422857Y-81072714D02*
X158422857Y-81215571D01*
X158422857Y-81215571D02*
X157708571Y-81358428D01*
X159065713Y-81858428D02*
X159065713Y-80858428D01*
X159065713Y-81144142D02*
X159137142Y-81001285D01*
X159137142Y-81001285D02*
X159208571Y-80929857D01*
X159208571Y-80929857D02*
X159351428Y-80858428D01*
X159351428Y-80858428D02*
X159494285Y-80858428D01*
D10*
X165449238Y-74823619D02*
X165782571Y-75823619D01*
X165782571Y-75823619D02*
X166115904Y-74823619D01*
X166973047Y-74871238D02*
X166877809Y-74823619D01*
X166877809Y-74823619D02*
X166734952Y-74823619D01*
X166734952Y-74823619D02*
X166592095Y-74871238D01*
X166592095Y-74871238D02*
X166496857Y-74966476D01*
X166496857Y-74966476D02*
X166449238Y-75061714D01*
X166449238Y-75061714D02*
X166401619Y-75252190D01*
X166401619Y-75252190D02*
X166401619Y-75395047D01*
X166401619Y-75395047D02*
X166449238Y-75585523D01*
X166449238Y-75585523D02*
X166496857Y-75680761D01*
X166496857Y-75680761D02*
X166592095Y-75776000D01*
X166592095Y-75776000D02*
X166734952Y-75823619D01*
X166734952Y-75823619D02*
X166830190Y-75823619D01*
X166830190Y-75823619D02*
X166973047Y-75776000D01*
X166973047Y-75776000D02*
X167020666Y-75728380D01*
X167020666Y-75728380D02*
X167020666Y-75395047D01*
X167020666Y-75395047D02*
X166830190Y-75395047D01*
X167401619Y-75776000D02*
X167544476Y-75823619D01*
X167544476Y-75823619D02*
X167782571Y-75823619D01*
X167782571Y-75823619D02*
X167877809Y-75776000D01*
X167877809Y-75776000D02*
X167925428Y-75728380D01*
X167925428Y-75728380D02*
X167973047Y-75633142D01*
X167973047Y-75633142D02*
X167973047Y-75537904D01*
X167973047Y-75537904D02*
X167925428Y-75442666D01*
X167925428Y-75442666D02*
X167877809Y-75395047D01*
X167877809Y-75395047D02*
X167782571Y-75347428D01*
X167782571Y-75347428D02*
X167592095Y-75299809D01*
X167592095Y-75299809D02*
X167496857Y-75252190D01*
X167496857Y-75252190D02*
X167449238Y-75204571D01*
X167449238Y-75204571D02*
X167401619Y-75109333D01*
X167401619Y-75109333D02*
X167401619Y-75014095D01*
X167401619Y-75014095D02*
X167449238Y-74918857D01*
X167449238Y-74918857D02*
X167496857Y-74871238D01*
X167496857Y-74871238D02*
X167592095Y-74823619D01*
X167592095Y-74823619D02*
X167830190Y-74823619D01*
X167830190Y-74823619D02*
X167973047Y-74871238D01*
X169163524Y-75823619D02*
X169163524Y-74823619D01*
X169163524Y-74823619D02*
X169496857Y-75537904D01*
X169496857Y-75537904D02*
X169830190Y-74823619D01*
X169830190Y-74823619D02*
X169830190Y-75823619D01*
X170687333Y-75776000D02*
X170592095Y-75823619D01*
X170592095Y-75823619D02*
X170401619Y-75823619D01*
X170401619Y-75823619D02*
X170306381Y-75776000D01*
X170306381Y-75776000D02*
X170258762Y-75680761D01*
X170258762Y-75680761D02*
X170258762Y-75299809D01*
X170258762Y-75299809D02*
X170306381Y-75204571D01*
X170306381Y-75204571D02*
X170401619Y-75156952D01*
X170401619Y-75156952D02*
X170592095Y-75156952D01*
X170592095Y-75156952D02*
X170687333Y-75204571D01*
X170687333Y-75204571D02*
X170734952Y-75299809D01*
X170734952Y-75299809D02*
X170734952Y-75395047D01*
X170734952Y-75395047D02*
X170258762Y-75490285D01*
X171592095Y-75823619D02*
X171592095Y-75299809D01*
X171592095Y-75299809D02*
X171544476Y-75204571D01*
X171544476Y-75204571D02*
X171449238Y-75156952D01*
X171449238Y-75156952D02*
X171258762Y-75156952D01*
X171258762Y-75156952D02*
X171163524Y-75204571D01*
X171592095Y-75776000D02*
X171496857Y-75823619D01*
X171496857Y-75823619D02*
X171258762Y-75823619D01*
X171258762Y-75823619D02*
X171163524Y-75776000D01*
X171163524Y-75776000D02*
X171115905Y-75680761D01*
X171115905Y-75680761D02*
X171115905Y-75585523D01*
X171115905Y-75585523D02*
X171163524Y-75490285D01*
X171163524Y-75490285D02*
X171258762Y-75442666D01*
X171258762Y-75442666D02*
X171496857Y-75442666D01*
X171496857Y-75442666D02*
X171592095Y-75395047D01*
X172020667Y-75776000D02*
X172115905Y-75823619D01*
X172115905Y-75823619D02*
X172306381Y-75823619D01*
X172306381Y-75823619D02*
X172401619Y-75776000D01*
X172401619Y-75776000D02*
X172449238Y-75680761D01*
X172449238Y-75680761D02*
X172449238Y-75633142D01*
X172449238Y-75633142D02*
X172401619Y-75537904D01*
X172401619Y-75537904D02*
X172306381Y-75490285D01*
X172306381Y-75490285D02*
X172163524Y-75490285D01*
X172163524Y-75490285D02*
X172068286Y-75442666D01*
X172068286Y-75442666D02*
X172020667Y-75347428D01*
X172020667Y-75347428D02*
X172020667Y-75299809D01*
X172020667Y-75299809D02*
X172068286Y-75204571D01*
X172068286Y-75204571D02*
X172163524Y-75156952D01*
X172163524Y-75156952D02*
X172306381Y-75156952D01*
X172306381Y-75156952D02*
X172401619Y-75204571D01*
X173306381Y-75156952D02*
X173306381Y-75823619D01*
X172877810Y-75156952D02*
X172877810Y-75680761D01*
X172877810Y-75680761D02*
X172925429Y-75776000D01*
X172925429Y-75776000D02*
X173020667Y-75823619D01*
X173020667Y-75823619D02*
X173163524Y-75823619D01*
X173163524Y-75823619D02*
X173258762Y-75776000D01*
X173258762Y-75776000D02*
X173306381Y-75728380D01*
X173782572Y-75823619D02*
X173782572Y-75156952D01*
X173782572Y-75347428D02*
X173830191Y-75252190D01*
X173830191Y-75252190D02*
X173877810Y-75204571D01*
X173877810Y-75204571D02*
X173973048Y-75156952D01*
X173973048Y-75156952D02*
X174068286Y-75156952D01*
X174782572Y-75776000D02*
X174687334Y-75823619D01*
X174687334Y-75823619D02*
X174496858Y-75823619D01*
X174496858Y-75823619D02*
X174401620Y-75776000D01*
X174401620Y-75776000D02*
X174354001Y-75680761D01*
X174354001Y-75680761D02*
X174354001Y-75299809D01*
X174354001Y-75299809D02*
X174401620Y-75204571D01*
X174401620Y-75204571D02*
X174496858Y-75156952D01*
X174496858Y-75156952D02*
X174687334Y-75156952D01*
X174687334Y-75156952D02*
X174782572Y-75204571D01*
X174782572Y-75204571D02*
X174830191Y-75299809D01*
X174830191Y-75299809D02*
X174830191Y-75395047D01*
X174830191Y-75395047D02*
X174354001Y-75490285D01*
X175258763Y-75823619D02*
X175258763Y-75156952D01*
X175258763Y-75252190D02*
X175306382Y-75204571D01*
X175306382Y-75204571D02*
X175401620Y-75156952D01*
X175401620Y-75156952D02*
X175544477Y-75156952D01*
X175544477Y-75156952D02*
X175639715Y-75204571D01*
X175639715Y-75204571D02*
X175687334Y-75299809D01*
X175687334Y-75299809D02*
X175687334Y-75823619D01*
X175687334Y-75299809D02*
X175734953Y-75204571D01*
X175734953Y-75204571D02*
X175830191Y-75156952D01*
X175830191Y-75156952D02*
X175973048Y-75156952D01*
X175973048Y-75156952D02*
X176068287Y-75204571D01*
X176068287Y-75204571D02*
X176115906Y-75299809D01*
X176115906Y-75299809D02*
X176115906Y-75823619D01*
X176973048Y-75776000D02*
X176877810Y-75823619D01*
X176877810Y-75823619D02*
X176687334Y-75823619D01*
X176687334Y-75823619D02*
X176592096Y-75776000D01*
X176592096Y-75776000D02*
X176544477Y-75680761D01*
X176544477Y-75680761D02*
X176544477Y-75299809D01*
X176544477Y-75299809D02*
X176592096Y-75204571D01*
X176592096Y-75204571D02*
X176687334Y-75156952D01*
X176687334Y-75156952D02*
X176877810Y-75156952D01*
X176877810Y-75156952D02*
X176973048Y-75204571D01*
X176973048Y-75204571D02*
X177020667Y-75299809D01*
X177020667Y-75299809D02*
X177020667Y-75395047D01*
X177020667Y-75395047D02*
X176544477Y-75490285D01*
X177449239Y-75156952D02*
X177449239Y-75823619D01*
X177449239Y-75252190D02*
X177496858Y-75204571D01*
X177496858Y-75204571D02*
X177592096Y-75156952D01*
X177592096Y-75156952D02*
X177734953Y-75156952D01*
X177734953Y-75156952D02*
X177830191Y-75204571D01*
X177830191Y-75204571D02*
X177877810Y-75299809D01*
X177877810Y-75299809D02*
X177877810Y-75823619D01*
X178211144Y-75156952D02*
X178592096Y-75156952D01*
X178354001Y-74823619D02*
X178354001Y-75680761D01*
X178354001Y-75680761D02*
X178401620Y-75776000D01*
X178401620Y-75776000D02*
X178496858Y-75823619D01*
X178496858Y-75823619D02*
X178592096Y-75823619D01*
X149082095Y-58929619D02*
X149082095Y-57929619D01*
X149082095Y-57929619D02*
X149320190Y-57929619D01*
X149320190Y-57929619D02*
X149463047Y-57977238D01*
X149463047Y-57977238D02*
X149558285Y-58072476D01*
X149558285Y-58072476D02*
X149605904Y-58167714D01*
X149605904Y-58167714D02*
X149653523Y-58358190D01*
X149653523Y-58358190D02*
X149653523Y-58501047D01*
X149653523Y-58501047D02*
X149605904Y-58691523D01*
X149605904Y-58691523D02*
X149558285Y-58786761D01*
X149558285Y-58786761D02*
X149463047Y-58882000D01*
X149463047Y-58882000D02*
X149320190Y-58929619D01*
X149320190Y-58929619D02*
X149082095Y-58929619D01*
X149605904Y-61217238D02*
X149510666Y-61169619D01*
X149510666Y-61169619D02*
X149367809Y-61169619D01*
X149367809Y-61169619D02*
X149224952Y-61217238D01*
X149224952Y-61217238D02*
X149129714Y-61312476D01*
X149129714Y-61312476D02*
X149082095Y-61407714D01*
X149082095Y-61407714D02*
X149034476Y-61598190D01*
X149034476Y-61598190D02*
X149034476Y-61741047D01*
X149034476Y-61741047D02*
X149082095Y-61931523D01*
X149082095Y-61931523D02*
X149129714Y-62026761D01*
X149129714Y-62026761D02*
X149224952Y-62122000D01*
X149224952Y-62122000D02*
X149367809Y-62169619D01*
X149367809Y-62169619D02*
X149463047Y-62169619D01*
X149463047Y-62169619D02*
X149605904Y-62122000D01*
X149605904Y-62122000D02*
X149653523Y-62074380D01*
X149653523Y-62074380D02*
X149653523Y-61741047D01*
X149653523Y-61741047D02*
X149463047Y-61741047D01*
X149034476Y-65362000D02*
X149177333Y-65409619D01*
X149177333Y-65409619D02*
X149415428Y-65409619D01*
X149415428Y-65409619D02*
X149510666Y-65362000D01*
X149510666Y-65362000D02*
X149558285Y-65314380D01*
X149558285Y-65314380D02*
X149605904Y-65219142D01*
X149605904Y-65219142D02*
X149605904Y-65123904D01*
X149605904Y-65123904D02*
X149558285Y-65028666D01*
X149558285Y-65028666D02*
X149510666Y-64981047D01*
X149510666Y-64981047D02*
X149415428Y-64933428D01*
X149415428Y-64933428D02*
X149224952Y-64885809D01*
X149224952Y-64885809D02*
X149129714Y-64838190D01*
X149129714Y-64838190D02*
X149082095Y-64790571D01*
X149082095Y-64790571D02*
X149034476Y-64695333D01*
X149034476Y-64695333D02*
X149034476Y-64600095D01*
X149034476Y-64600095D02*
X149082095Y-64504857D01*
X149082095Y-64504857D02*
X149129714Y-64457238D01*
X149129714Y-64457238D02*
X149224952Y-64409619D01*
X149224952Y-64409619D02*
X149463047Y-64409619D01*
X149463047Y-64409619D02*
X149605904Y-64457238D01*
X156194095Y-58929619D02*
X156194095Y-57929619D01*
X156194095Y-57929619D02*
X156432190Y-57929619D01*
X156432190Y-57929619D02*
X156575047Y-57977238D01*
X156575047Y-57977238D02*
X156670285Y-58072476D01*
X156670285Y-58072476D02*
X156717904Y-58167714D01*
X156717904Y-58167714D02*
X156765523Y-58358190D01*
X156765523Y-58358190D02*
X156765523Y-58501047D01*
X156765523Y-58501047D02*
X156717904Y-58691523D01*
X156717904Y-58691523D02*
X156670285Y-58786761D01*
X156670285Y-58786761D02*
X156575047Y-58882000D01*
X156575047Y-58882000D02*
X156432190Y-58929619D01*
X156432190Y-58929619D02*
X156194095Y-58929619D01*
X156146476Y-62122000D02*
X156289333Y-62169619D01*
X156289333Y-62169619D02*
X156527428Y-62169619D01*
X156527428Y-62169619D02*
X156622666Y-62122000D01*
X156622666Y-62122000D02*
X156670285Y-62074380D01*
X156670285Y-62074380D02*
X156717904Y-61979142D01*
X156717904Y-61979142D02*
X156717904Y-61883904D01*
X156717904Y-61883904D02*
X156670285Y-61788666D01*
X156670285Y-61788666D02*
X156622666Y-61741047D01*
X156622666Y-61741047D02*
X156527428Y-61693428D01*
X156527428Y-61693428D02*
X156336952Y-61645809D01*
X156336952Y-61645809D02*
X156241714Y-61598190D01*
X156241714Y-61598190D02*
X156194095Y-61550571D01*
X156194095Y-61550571D02*
X156146476Y-61455333D01*
X156146476Y-61455333D02*
X156146476Y-61360095D01*
X156146476Y-61360095D02*
X156194095Y-61264857D01*
X156194095Y-61264857D02*
X156241714Y-61217238D01*
X156241714Y-61217238D02*
X156336952Y-61169619D01*
X156336952Y-61169619D02*
X156575047Y-61169619D01*
X156575047Y-61169619D02*
X156717904Y-61217238D01*
X156717904Y-64457238D02*
X156622666Y-64409619D01*
X156622666Y-64409619D02*
X156479809Y-64409619D01*
X156479809Y-64409619D02*
X156336952Y-64457238D01*
X156336952Y-64457238D02*
X156241714Y-64552476D01*
X156241714Y-64552476D02*
X156194095Y-64647714D01*
X156194095Y-64647714D02*
X156146476Y-64838190D01*
X156146476Y-64838190D02*
X156146476Y-64981047D01*
X156146476Y-64981047D02*
X156194095Y-65171523D01*
X156194095Y-65171523D02*
X156241714Y-65266761D01*
X156241714Y-65266761D02*
X156336952Y-65362000D01*
X156336952Y-65362000D02*
X156479809Y-65409619D01*
X156479809Y-65409619D02*
X156575047Y-65409619D01*
X156575047Y-65409619D02*
X156717904Y-65362000D01*
X156717904Y-65362000D02*
X156765523Y-65314380D01*
X156765523Y-65314380D02*
X156765523Y-64981047D01*
X156765523Y-64981047D02*
X156575047Y-64981047D01*
X137652095Y-80011619D02*
X137652095Y-79011619D01*
X137652095Y-79011619D02*
X137890190Y-79011619D01*
X137890190Y-79011619D02*
X138033047Y-79059238D01*
X138033047Y-79059238D02*
X138128285Y-79154476D01*
X138128285Y-79154476D02*
X138175904Y-79249714D01*
X138175904Y-79249714D02*
X138223523Y-79440190D01*
X138223523Y-79440190D02*
X138223523Y-79583047D01*
X138223523Y-79583047D02*
X138175904Y-79773523D01*
X138175904Y-79773523D02*
X138128285Y-79868761D01*
X138128285Y-79868761D02*
X138033047Y-79964000D01*
X138033047Y-79964000D02*
X137890190Y-80011619D01*
X137890190Y-80011619D02*
X137652095Y-80011619D01*
X138652095Y-80011619D02*
X138652095Y-79011619D01*
X138652095Y-79011619D02*
X138890190Y-79011619D01*
X138890190Y-79011619D02*
X139033047Y-79059238D01*
X139033047Y-79059238D02*
X139128285Y-79154476D01*
X139128285Y-79154476D02*
X139175904Y-79249714D01*
X139175904Y-79249714D02*
X139223523Y-79440190D01*
X139223523Y-79440190D02*
X139223523Y-79583047D01*
X139223523Y-79583047D02*
X139175904Y-79773523D01*
X139175904Y-79773523D02*
X139128285Y-79868761D01*
X139128285Y-79868761D02*
X139033047Y-79964000D01*
X139033047Y-79964000D02*
X138890190Y-80011619D01*
X138890190Y-80011619D02*
X138652095Y-80011619D01*
X138175904Y-82299238D02*
X138080666Y-82251619D01*
X138080666Y-82251619D02*
X137937809Y-82251619D01*
X137937809Y-82251619D02*
X137794952Y-82299238D01*
X137794952Y-82299238D02*
X137699714Y-82394476D01*
X137699714Y-82394476D02*
X137652095Y-82489714D01*
X137652095Y-82489714D02*
X137604476Y-82680190D01*
X137604476Y-82680190D02*
X137604476Y-82823047D01*
X137604476Y-82823047D02*
X137652095Y-83013523D01*
X137652095Y-83013523D02*
X137699714Y-83108761D01*
X137699714Y-83108761D02*
X137794952Y-83204000D01*
X137794952Y-83204000D02*
X137937809Y-83251619D01*
X137937809Y-83251619D02*
X138033047Y-83251619D01*
X138033047Y-83251619D02*
X138175904Y-83204000D01*
X138175904Y-83204000D02*
X138223523Y-83156380D01*
X138223523Y-83156380D02*
X138223523Y-82823047D01*
X138223523Y-82823047D02*
X138033047Y-82823047D01*
X138604476Y-83204000D02*
X138747333Y-83251619D01*
X138747333Y-83251619D02*
X138985428Y-83251619D01*
X138985428Y-83251619D02*
X139080666Y-83204000D01*
X139080666Y-83204000D02*
X139128285Y-83156380D01*
X139128285Y-83156380D02*
X139175904Y-83061142D01*
X139175904Y-83061142D02*
X139175904Y-82965904D01*
X139175904Y-82965904D02*
X139128285Y-82870666D01*
X139128285Y-82870666D02*
X139080666Y-82823047D01*
X139080666Y-82823047D02*
X138985428Y-82775428D01*
X138985428Y-82775428D02*
X138794952Y-82727809D01*
X138794952Y-82727809D02*
X138699714Y-82680190D01*
X138699714Y-82680190D02*
X138652095Y-82632571D01*
X138652095Y-82632571D02*
X138604476Y-82537333D01*
X138604476Y-82537333D02*
X138604476Y-82442095D01*
X138604476Y-82442095D02*
X138652095Y-82346857D01*
X138652095Y-82346857D02*
X138699714Y-82299238D01*
X138699714Y-82299238D02*
X138794952Y-82251619D01*
X138794952Y-82251619D02*
X139033047Y-82251619D01*
X139033047Y-82251619D02*
X139175904Y-82299238D01*
X137604476Y-86444000D02*
X137747333Y-86491619D01*
X137747333Y-86491619D02*
X137985428Y-86491619D01*
X137985428Y-86491619D02*
X138080666Y-86444000D01*
X138080666Y-86444000D02*
X138128285Y-86396380D01*
X138128285Y-86396380D02*
X138175904Y-86301142D01*
X138175904Y-86301142D02*
X138175904Y-86205904D01*
X138175904Y-86205904D02*
X138128285Y-86110666D01*
X138128285Y-86110666D02*
X138080666Y-86063047D01*
X138080666Y-86063047D02*
X137985428Y-86015428D01*
X137985428Y-86015428D02*
X137794952Y-85967809D01*
X137794952Y-85967809D02*
X137699714Y-85920190D01*
X137699714Y-85920190D02*
X137652095Y-85872571D01*
X137652095Y-85872571D02*
X137604476Y-85777333D01*
X137604476Y-85777333D02*
X137604476Y-85682095D01*
X137604476Y-85682095D02*
X137652095Y-85586857D01*
X137652095Y-85586857D02*
X137699714Y-85539238D01*
X137699714Y-85539238D02*
X137794952Y-85491619D01*
X137794952Y-85491619D02*
X138033047Y-85491619D01*
X138033047Y-85491619D02*
X138175904Y-85539238D01*
X139128285Y-85539238D02*
X139033047Y-85491619D01*
X139033047Y-85491619D02*
X138890190Y-85491619D01*
X138890190Y-85491619D02*
X138747333Y-85539238D01*
X138747333Y-85539238D02*
X138652095Y-85634476D01*
X138652095Y-85634476D02*
X138604476Y-85729714D01*
X138604476Y-85729714D02*
X138556857Y-85920190D01*
X138556857Y-85920190D02*
X138556857Y-86063047D01*
X138556857Y-86063047D02*
X138604476Y-86253523D01*
X138604476Y-86253523D02*
X138652095Y-86348761D01*
X138652095Y-86348761D02*
X138747333Y-86444000D01*
X138747333Y-86444000D02*
X138890190Y-86491619D01*
X138890190Y-86491619D02*
X138985428Y-86491619D01*
X138985428Y-86491619D02*
X139128285Y-86444000D01*
X139128285Y-86444000D02*
X139175904Y-86396380D01*
X139175904Y-86396380D02*
X139175904Y-86063047D01*
X139175904Y-86063047D02*
X138985428Y-86063047D01*
%TO.C,J4*%
X169592666Y-68804619D02*
X169592666Y-69518904D01*
X169592666Y-69518904D02*
X169545047Y-69661761D01*
X169545047Y-69661761D02*
X169449809Y-69757000D01*
X169449809Y-69757000D02*
X169306952Y-69804619D01*
X169306952Y-69804619D02*
X169211714Y-69804619D01*
X170497428Y-69137952D02*
X170497428Y-69804619D01*
X170259333Y-68757000D02*
X170021238Y-69471285D01*
X170021238Y-69471285D02*
X170640285Y-69471285D01*
%TO.C,J3*%
X169592666Y-58644619D02*
X169592666Y-59358904D01*
X169592666Y-59358904D02*
X169545047Y-59501761D01*
X169545047Y-59501761D02*
X169449809Y-59597000D01*
X169449809Y-59597000D02*
X169306952Y-59644619D01*
X169306952Y-59644619D02*
X169211714Y-59644619D01*
X169973619Y-58644619D02*
X170592666Y-58644619D01*
X170592666Y-58644619D02*
X170259333Y-59025571D01*
X170259333Y-59025571D02*
X170402190Y-59025571D01*
X170402190Y-59025571D02*
X170497428Y-59073190D01*
X170497428Y-59073190D02*
X170545047Y-59120809D01*
X170545047Y-59120809D02*
X170592666Y-59216047D01*
X170592666Y-59216047D02*
X170592666Y-59454142D01*
X170592666Y-59454142D02*
X170545047Y-59549380D01*
X170545047Y-59549380D02*
X170497428Y-59597000D01*
X170497428Y-59597000D02*
X170402190Y-59644619D01*
X170402190Y-59644619D02*
X170116476Y-59644619D01*
X170116476Y-59644619D02*
X170021238Y-59597000D01*
X170021238Y-59597000D02*
X169973619Y-59549380D01*
%TO.C,R3*%
X151217333Y-85552619D02*
X150884000Y-85076428D01*
X150645905Y-85552619D02*
X150645905Y-84552619D01*
X150645905Y-84552619D02*
X151026857Y-84552619D01*
X151026857Y-84552619D02*
X151122095Y-84600238D01*
X151122095Y-84600238D02*
X151169714Y-84647857D01*
X151169714Y-84647857D02*
X151217333Y-84743095D01*
X151217333Y-84743095D02*
X151217333Y-84885952D01*
X151217333Y-84885952D02*
X151169714Y-84981190D01*
X151169714Y-84981190D02*
X151122095Y-85028809D01*
X151122095Y-85028809D02*
X151026857Y-85076428D01*
X151026857Y-85076428D02*
X150645905Y-85076428D01*
X151550667Y-84552619D02*
X152169714Y-84552619D01*
X152169714Y-84552619D02*
X151836381Y-84933571D01*
X151836381Y-84933571D02*
X151979238Y-84933571D01*
X151979238Y-84933571D02*
X152074476Y-84981190D01*
X152074476Y-84981190D02*
X152122095Y-85028809D01*
X152122095Y-85028809D02*
X152169714Y-85124047D01*
X152169714Y-85124047D02*
X152169714Y-85362142D01*
X152169714Y-85362142D02*
X152122095Y-85457380D01*
X152122095Y-85457380D02*
X152074476Y-85505000D01*
X152074476Y-85505000D02*
X151979238Y-85552619D01*
X151979238Y-85552619D02*
X151693524Y-85552619D01*
X151693524Y-85552619D02*
X151598286Y-85505000D01*
X151598286Y-85505000D02*
X151550667Y-85457380D01*
%TO.C,J5*%
X152066666Y-69590619D02*
X152066666Y-70304904D01*
X152066666Y-70304904D02*
X152019047Y-70447761D01*
X152019047Y-70447761D02*
X151923809Y-70543000D01*
X151923809Y-70543000D02*
X151780952Y-70590619D01*
X151780952Y-70590619D02*
X151685714Y-70590619D01*
X153019047Y-69590619D02*
X152542857Y-69590619D01*
X152542857Y-69590619D02*
X152495238Y-70066809D01*
X152495238Y-70066809D02*
X152542857Y-70019190D01*
X152542857Y-70019190D02*
X152638095Y-69971571D01*
X152638095Y-69971571D02*
X152876190Y-69971571D01*
X152876190Y-69971571D02*
X152971428Y-70019190D01*
X152971428Y-70019190D02*
X153019047Y-70066809D01*
X153019047Y-70066809D02*
X153066666Y-70162047D01*
X153066666Y-70162047D02*
X153066666Y-70400142D01*
X153066666Y-70400142D02*
X153019047Y-70495380D01*
X153019047Y-70495380D02*
X152971428Y-70543000D01*
X152971428Y-70543000D02*
X152876190Y-70590619D01*
X152876190Y-70590619D02*
X152638095Y-70590619D01*
X152638095Y-70590619D02*
X152542857Y-70543000D01*
X152542857Y-70543000D02*
X152495238Y-70495380D01*
%TO.C,J1*%
X123684666Y-58593619D02*
X123684666Y-59307904D01*
X123684666Y-59307904D02*
X123637047Y-59450761D01*
X123637047Y-59450761D02*
X123541809Y-59546000D01*
X123541809Y-59546000D02*
X123398952Y-59593619D01*
X123398952Y-59593619D02*
X123303714Y-59593619D01*
X124684666Y-59593619D02*
X124113238Y-59593619D01*
X124398952Y-59593619D02*
X124398952Y-58593619D01*
X124398952Y-58593619D02*
X124303714Y-58736476D01*
X124303714Y-58736476D02*
X124208476Y-58831714D01*
X124208476Y-58831714D02*
X124113238Y-58879333D01*
%TO.C,R1*%
X139400619Y-60872666D02*
X138924428Y-61205999D01*
X139400619Y-61444094D02*
X138400619Y-61444094D01*
X138400619Y-61444094D02*
X138400619Y-61063142D01*
X138400619Y-61063142D02*
X138448238Y-60967904D01*
X138448238Y-60967904D02*
X138495857Y-60920285D01*
X138495857Y-60920285D02*
X138591095Y-60872666D01*
X138591095Y-60872666D02*
X138733952Y-60872666D01*
X138733952Y-60872666D02*
X138829190Y-60920285D01*
X138829190Y-60920285D02*
X138876809Y-60967904D01*
X138876809Y-60967904D02*
X138924428Y-61063142D01*
X138924428Y-61063142D02*
X138924428Y-61444094D01*
X139400619Y-59920285D02*
X139400619Y-60491713D01*
X139400619Y-60205999D02*
X138400619Y-60205999D01*
X138400619Y-60205999D02*
X138543476Y-60301237D01*
X138543476Y-60301237D02*
X138638714Y-60396475D01*
X138638714Y-60396475D02*
X138686333Y-60491713D01*
%TO.C,J9*%
X123558666Y-83231619D02*
X123558666Y-83945904D01*
X123558666Y-83945904D02*
X123511047Y-84088761D01*
X123511047Y-84088761D02*
X123415809Y-84184000D01*
X123415809Y-84184000D02*
X123272952Y-84231619D01*
X123272952Y-84231619D02*
X123177714Y-84231619D01*
X124082476Y-84231619D02*
X124272952Y-84231619D01*
X124272952Y-84231619D02*
X124368190Y-84184000D01*
X124368190Y-84184000D02*
X124415809Y-84136380D01*
X124415809Y-84136380D02*
X124511047Y-83993523D01*
X124511047Y-83993523D02*
X124558666Y-83803047D01*
X124558666Y-83803047D02*
X124558666Y-83422095D01*
X124558666Y-83422095D02*
X124511047Y-83326857D01*
X124511047Y-83326857D02*
X124463428Y-83279238D01*
X124463428Y-83279238D02*
X124368190Y-83231619D01*
X124368190Y-83231619D02*
X124177714Y-83231619D01*
X124177714Y-83231619D02*
X124082476Y-83279238D01*
X124082476Y-83279238D02*
X124034857Y-83326857D01*
X124034857Y-83326857D02*
X123987238Y-83422095D01*
X123987238Y-83422095D02*
X123987238Y-83660190D01*
X123987238Y-83660190D02*
X124034857Y-83755428D01*
X124034857Y-83755428D02*
X124082476Y-83803047D01*
X124082476Y-83803047D02*
X124177714Y-83850666D01*
X124177714Y-83850666D02*
X124368190Y-83850666D01*
X124368190Y-83850666D02*
X124463428Y-83803047D01*
X124463428Y-83803047D02*
X124511047Y-83755428D01*
X124511047Y-83755428D02*
X124558666Y-83660190D01*
%TO.C,C1*%
X144385380Y-70778666D02*
X144433000Y-70826285D01*
X144433000Y-70826285D02*
X144480619Y-70969142D01*
X144480619Y-70969142D02*
X144480619Y-71064380D01*
X144480619Y-71064380D02*
X144433000Y-71207237D01*
X144433000Y-71207237D02*
X144337761Y-71302475D01*
X144337761Y-71302475D02*
X144242523Y-71350094D01*
X144242523Y-71350094D02*
X144052047Y-71397713D01*
X144052047Y-71397713D02*
X143909190Y-71397713D01*
X143909190Y-71397713D02*
X143718714Y-71350094D01*
X143718714Y-71350094D02*
X143623476Y-71302475D01*
X143623476Y-71302475D02*
X143528238Y-71207237D01*
X143528238Y-71207237D02*
X143480619Y-71064380D01*
X143480619Y-71064380D02*
X143480619Y-70969142D01*
X143480619Y-70969142D02*
X143528238Y-70826285D01*
X143528238Y-70826285D02*
X143575857Y-70778666D01*
X144480619Y-69826285D02*
X144480619Y-70397713D01*
X144480619Y-70111999D02*
X143480619Y-70111999D01*
X143480619Y-70111999D02*
X143623476Y-70207237D01*
X143623476Y-70207237D02*
X143718714Y-70302475D01*
X143718714Y-70302475D02*
X143766333Y-70397713D01*
%TO.C,J2*%
X123684666Y-68753619D02*
X123684666Y-69467904D01*
X123684666Y-69467904D02*
X123637047Y-69610761D01*
X123637047Y-69610761D02*
X123541809Y-69706000D01*
X123541809Y-69706000D02*
X123398952Y-69753619D01*
X123398952Y-69753619D02*
X123303714Y-69753619D01*
X124113238Y-68848857D02*
X124160857Y-68801238D01*
X124160857Y-68801238D02*
X124256095Y-68753619D01*
X124256095Y-68753619D02*
X124494190Y-68753619D01*
X124494190Y-68753619D02*
X124589428Y-68801238D01*
X124589428Y-68801238D02*
X124637047Y-68848857D01*
X124637047Y-68848857D02*
X124684666Y-68944095D01*
X124684666Y-68944095D02*
X124684666Y-69039333D01*
X124684666Y-69039333D02*
X124637047Y-69182190D01*
X124637047Y-69182190D02*
X124065619Y-69753619D01*
X124065619Y-69753619D02*
X124684666Y-69753619D01*
%TO.C,R2*%
X142448619Y-60872666D02*
X141972428Y-61205999D01*
X142448619Y-61444094D02*
X141448619Y-61444094D01*
X141448619Y-61444094D02*
X141448619Y-61063142D01*
X141448619Y-61063142D02*
X141496238Y-60967904D01*
X141496238Y-60967904D02*
X141543857Y-60920285D01*
X141543857Y-60920285D02*
X141639095Y-60872666D01*
X141639095Y-60872666D02*
X141781952Y-60872666D01*
X141781952Y-60872666D02*
X141877190Y-60920285D01*
X141877190Y-60920285D02*
X141924809Y-60967904D01*
X141924809Y-60967904D02*
X141972428Y-61063142D01*
X141972428Y-61063142D02*
X141972428Y-61444094D01*
X141543857Y-60491713D02*
X141496238Y-60444094D01*
X141496238Y-60444094D02*
X141448619Y-60348856D01*
X141448619Y-60348856D02*
X141448619Y-60110761D01*
X141448619Y-60110761D02*
X141496238Y-60015523D01*
X141496238Y-60015523D02*
X141543857Y-59967904D01*
X141543857Y-59967904D02*
X141639095Y-59920285D01*
X141639095Y-59920285D02*
X141734333Y-59920285D01*
X141734333Y-59920285D02*
X141877190Y-59967904D01*
X141877190Y-59967904D02*
X142448619Y-60539332D01*
X142448619Y-60539332D02*
X142448619Y-59920285D01*
%TO.C,U1*%
X164592095Y-75872619D02*
X164592095Y-76682142D01*
X164592095Y-76682142D02*
X164639714Y-76777380D01*
X164639714Y-76777380D02*
X164687333Y-76825000D01*
X164687333Y-76825000D02*
X164782571Y-76872619D01*
X164782571Y-76872619D02*
X164973047Y-76872619D01*
X164973047Y-76872619D02*
X165068285Y-76825000D01*
X165068285Y-76825000D02*
X165115904Y-76777380D01*
X165115904Y-76777380D02*
X165163523Y-76682142D01*
X165163523Y-76682142D02*
X165163523Y-75872619D01*
X166163523Y-76872619D02*
X165592095Y-76872619D01*
X165877809Y-76872619D02*
X165877809Y-75872619D01*
X165877809Y-75872619D02*
X165782571Y-76015476D01*
X165782571Y-76015476D02*
X165687333Y-76110714D01*
X165687333Y-76110714D02*
X165592095Y-76158333D01*
D11*
%TO.C,J4*%
X158946000Y-64442000D02*
X179846000Y-64442000D01*
X158946000Y-74242000D02*
X158946000Y-64442000D01*
X179846000Y-64442000D02*
X179846000Y-65342000D01*
X179846000Y-65342000D02*
X181546000Y-65342000D01*
X179846000Y-73342000D02*
X179846000Y-74242000D01*
X179846000Y-74242000D02*
X158946000Y-74242000D01*
X181546000Y-65342000D02*
X181546000Y-66342000D01*
X181546000Y-72342000D02*
X181546000Y-73342000D01*
X181546000Y-73342000D02*
X179846000Y-73342000D01*
%TO.C,J3*%
X158946000Y-54282000D02*
X179846000Y-54282000D01*
X158946000Y-64082000D02*
X158946000Y-54282000D01*
X179846000Y-54282000D02*
X179846000Y-55182000D01*
X179846000Y-55182000D02*
X181546000Y-55182000D01*
X179846000Y-63182000D02*
X179846000Y-64082000D01*
X179846000Y-64082000D02*
X158946000Y-64082000D01*
X181546000Y-55182000D02*
X181546000Y-56182000D01*
X181546000Y-62182000D02*
X181546000Y-63182000D01*
X181546000Y-63182000D02*
X179846000Y-63182000D01*
D12*
%TO.C,R3*%
X155424000Y-85090000D02*
X154654000Y-85090000D01*
X154654000Y-86460000D02*
X154654000Y-83720000D01*
X154654000Y-83720000D02*
X148114000Y-83720000D01*
X148114000Y-86460000D02*
X154654000Y-86460000D01*
X148114000Y-83720000D02*
X148114000Y-86460000D01*
X147344000Y-85090000D02*
X148114000Y-85090000D01*
%TO.C,J5*%
X151070000Y-74168000D02*
X151070000Y-76768000D01*
X151070000Y-74168000D02*
X153730000Y-74168000D01*
X151070000Y-76768000D02*
X153730000Y-76768000D01*
X152400000Y-71568000D02*
X153730000Y-71568000D01*
X153730000Y-71568000D02*
X153730000Y-72898000D01*
X153730000Y-74168000D02*
X153730000Y-76768000D01*
%TO.C,J8*%
X140402000Y-81280000D02*
X140402000Y-86420000D01*
X140402000Y-81280000D02*
X143062000Y-81280000D01*
X140402000Y-86420000D02*
X143062000Y-86420000D01*
X141732000Y-78680000D02*
X143062000Y-78680000D01*
X143062000Y-78680000D02*
X143062000Y-80010000D01*
X143062000Y-81280000D02*
X143062000Y-86420000D01*
%TO.C,J7*%
X145482000Y-60452000D02*
X145482000Y-65592000D01*
X145482000Y-60452000D02*
X148142000Y-60452000D01*
X145482000Y-65592000D02*
X148142000Y-65592000D01*
X146812000Y-57852000D02*
X148142000Y-57852000D01*
X148142000Y-57852000D02*
X148142000Y-59182000D01*
X148142000Y-60452000D02*
X148142000Y-65592000D01*
D11*
%TO.C,J1*%
X134998000Y-64031000D02*
X114098000Y-64031000D01*
X134998000Y-54231000D02*
X134998000Y-64031000D01*
X114098000Y-64031000D02*
X114098000Y-63131000D01*
X114098000Y-63131000D02*
X112398000Y-63131000D01*
X114098000Y-55131000D02*
X114098000Y-54231000D01*
X114098000Y-54231000D02*
X134998000Y-54231000D01*
X112398000Y-63131000D02*
X112398000Y-62131000D01*
X112398000Y-56131000D02*
X112398000Y-55131000D01*
X112398000Y-55131000D02*
X114098000Y-55131000D01*
D12*
%TO.C,R1*%
X138938000Y-64746000D02*
X138938000Y-63976000D01*
X137568000Y-63976000D02*
X140308000Y-63976000D01*
X140308000Y-63976000D02*
X140308000Y-57436000D01*
X137568000Y-57436000D02*
X137568000Y-63976000D01*
X140308000Y-57436000D02*
X137568000Y-57436000D01*
X138938000Y-56666000D02*
X138938000Y-57436000D01*
D11*
%TO.C,J9*%
X134872000Y-88669000D02*
X113972000Y-88669000D01*
X134872000Y-78869000D02*
X134872000Y-88669000D01*
X113972000Y-88669000D02*
X113972000Y-87769000D01*
X113972000Y-87769000D02*
X112272000Y-87769000D01*
X113972000Y-79769000D02*
X113972000Y-78869000D01*
X113972000Y-78869000D02*
X134872000Y-78869000D01*
X112272000Y-87769000D02*
X112272000Y-86769000D01*
X112272000Y-80769000D02*
X112272000Y-79769000D01*
X112272000Y-79769000D02*
X113972000Y-79769000D01*
D12*
%TO.C,C1*%
X141937000Y-67791225D02*
X141937000Y-68291225D01*
X142187000Y-68041225D02*
X141687000Y-68041225D01*
X143042000Y-70596000D02*
X141502000Y-70596000D01*
X139422000Y-70596000D02*
X137882000Y-70596000D01*
X143042000Y-70636000D02*
X141502000Y-70636000D01*
X139422000Y-70636000D02*
X137882000Y-70636000D01*
X143041000Y-70676000D02*
X141502000Y-70676000D01*
X139422000Y-70676000D02*
X137883000Y-70676000D01*
X143040000Y-70716000D02*
X141502000Y-70716000D01*
X139422000Y-70716000D02*
X137884000Y-70716000D01*
X143038000Y-70756000D02*
X141502000Y-70756000D01*
X139422000Y-70756000D02*
X137886000Y-70756000D01*
X143035000Y-70796000D02*
X141502000Y-70796000D01*
X139422000Y-70796000D02*
X137889000Y-70796000D01*
X143031000Y-70836000D02*
X141502000Y-70836000D01*
X139422000Y-70836000D02*
X137893000Y-70836000D01*
X143027000Y-70876000D02*
X141502000Y-70876000D01*
X139422000Y-70876000D02*
X137897000Y-70876000D01*
X143023000Y-70916000D02*
X141502000Y-70916000D01*
X139422000Y-70916000D02*
X137901000Y-70916000D01*
X143018000Y-70956000D02*
X141502000Y-70956000D01*
X139422000Y-70956000D02*
X137906000Y-70956000D01*
X143012000Y-70996000D02*
X141502000Y-70996000D01*
X139422000Y-70996000D02*
X137912000Y-70996000D01*
X143005000Y-71036000D02*
X141502000Y-71036000D01*
X139422000Y-71036000D02*
X137919000Y-71036000D01*
X142998000Y-71076000D02*
X141502000Y-71076000D01*
X139422000Y-71076000D02*
X137926000Y-71076000D01*
X142990000Y-71116000D02*
X141502000Y-71116000D01*
X139422000Y-71116000D02*
X137934000Y-71116000D01*
X142982000Y-71156000D02*
X141502000Y-71156000D01*
X139422000Y-71156000D02*
X137942000Y-71156000D01*
X142973000Y-71196000D02*
X141502000Y-71196000D01*
X139422000Y-71196000D02*
X137951000Y-71196000D01*
X142963000Y-71236000D02*
X141502000Y-71236000D01*
X139422000Y-71236000D02*
X137961000Y-71236000D01*
X142953000Y-71276000D02*
X141502000Y-71276000D01*
X139422000Y-71276000D02*
X137971000Y-71276000D01*
X142942000Y-71317000D02*
X141502000Y-71317000D01*
X139422000Y-71317000D02*
X137982000Y-71317000D01*
X142930000Y-71357000D02*
X141502000Y-71357000D01*
X139422000Y-71357000D02*
X137994000Y-71357000D01*
X142917000Y-71397000D02*
X141502000Y-71397000D01*
X139422000Y-71397000D02*
X138007000Y-71397000D01*
X142904000Y-71437000D02*
X141502000Y-71437000D01*
X139422000Y-71437000D02*
X138020000Y-71437000D01*
X142890000Y-71477000D02*
X141502000Y-71477000D01*
X139422000Y-71477000D02*
X138034000Y-71477000D01*
X142876000Y-71517000D02*
X141502000Y-71517000D01*
X139422000Y-71517000D02*
X138048000Y-71517000D01*
X142860000Y-71557000D02*
X141502000Y-71557000D01*
X139422000Y-71557000D02*
X138064000Y-71557000D01*
X142844000Y-71597000D02*
X141502000Y-71597000D01*
X139422000Y-71597000D02*
X138080000Y-71597000D01*
X142827000Y-71637000D02*
X141502000Y-71637000D01*
X139422000Y-71637000D02*
X138097000Y-71637000D01*
X142810000Y-71677000D02*
X141502000Y-71677000D01*
X139422000Y-71677000D02*
X138114000Y-71677000D01*
X142791000Y-71717000D02*
X141502000Y-71717000D01*
X139422000Y-71717000D02*
X138133000Y-71717000D01*
X142772000Y-71757000D02*
X141502000Y-71757000D01*
X139422000Y-71757000D02*
X138152000Y-71757000D01*
X142752000Y-71797000D02*
X141502000Y-71797000D01*
X139422000Y-71797000D02*
X138172000Y-71797000D01*
X142730000Y-71837000D02*
X141502000Y-71837000D01*
X139422000Y-71837000D02*
X138194000Y-71837000D01*
X142709000Y-71877000D02*
X141502000Y-71877000D01*
X139422000Y-71877000D02*
X138215000Y-71877000D01*
X142686000Y-71917000D02*
X141502000Y-71917000D01*
X139422000Y-71917000D02*
X138238000Y-71917000D01*
X142662000Y-71957000D02*
X141502000Y-71957000D01*
X139422000Y-71957000D02*
X138262000Y-71957000D01*
X142637000Y-71997000D02*
X141502000Y-71997000D01*
X139422000Y-71997000D02*
X138287000Y-71997000D01*
X142611000Y-72037000D02*
X141502000Y-72037000D01*
X139422000Y-72037000D02*
X138313000Y-72037000D01*
X142584000Y-72077000D02*
X141502000Y-72077000D01*
X139422000Y-72077000D02*
X138340000Y-72077000D01*
X142557000Y-72117000D02*
X141502000Y-72117000D01*
X139422000Y-72117000D02*
X138367000Y-72117000D01*
X142527000Y-72157000D02*
X141502000Y-72157000D01*
X139422000Y-72157000D02*
X138397000Y-72157000D01*
X142497000Y-72197000D02*
X141502000Y-72197000D01*
X139422000Y-72197000D02*
X138427000Y-72197000D01*
X142466000Y-72237000D02*
X141502000Y-72237000D01*
X139422000Y-72237000D02*
X138458000Y-72237000D01*
X142433000Y-72277000D02*
X141502000Y-72277000D01*
X139422000Y-72277000D02*
X138491000Y-72277000D01*
X142399000Y-72317000D02*
X141502000Y-72317000D01*
X139422000Y-72317000D02*
X138525000Y-72317000D01*
X142363000Y-72357000D02*
X141502000Y-72357000D01*
X139422000Y-72357000D02*
X138561000Y-72357000D01*
X142326000Y-72397000D02*
X141502000Y-72397000D01*
X139422000Y-72397000D02*
X138598000Y-72397000D01*
X142288000Y-72437000D02*
X141502000Y-72437000D01*
X139422000Y-72437000D02*
X138636000Y-72437000D01*
X142247000Y-72477000D02*
X141502000Y-72477000D01*
X139422000Y-72477000D02*
X138677000Y-72477000D01*
X142205000Y-72517000D02*
X141502000Y-72517000D01*
X139422000Y-72517000D02*
X138719000Y-72517000D01*
X142161000Y-72557000D02*
X141502000Y-72557000D01*
X139422000Y-72557000D02*
X138763000Y-72557000D01*
X142115000Y-72597000D02*
X141502000Y-72597000D01*
X139422000Y-72597000D02*
X138809000Y-72597000D01*
X142067000Y-72637000D02*
X138857000Y-72637000D01*
X142016000Y-72677000D02*
X138908000Y-72677000D01*
X141962000Y-72717000D02*
X138962000Y-72717000D01*
X141905000Y-72757000D02*
X139019000Y-72757000D01*
X141845000Y-72797000D02*
X139079000Y-72797000D01*
X141781000Y-72837000D02*
X139143000Y-72837000D01*
X141713000Y-72877000D02*
X139211000Y-72877000D01*
X141640000Y-72917000D02*
X139284000Y-72917000D01*
X141560000Y-72957000D02*
X139364000Y-72957000D01*
X141473000Y-72997000D02*
X139451000Y-72997000D01*
X141377000Y-73037000D02*
X139547000Y-73037000D01*
X141267000Y-73077000D02*
X139657000Y-73077000D01*
X141139000Y-73117000D02*
X139785000Y-73117000D01*
X140980000Y-73157000D02*
X139944000Y-73157000D01*
X140746000Y-73197000D02*
X140178000Y-73197000D01*
X143082000Y-70596000D02*
G75*
G03*
X143082000Y-70596000I-2620000J0D01*
G01*
D11*
%TO.C,J2*%
X134998000Y-74191000D02*
X114098000Y-74191000D01*
X134998000Y-64391000D02*
X134998000Y-74191000D01*
X114098000Y-74191000D02*
X114098000Y-73291000D01*
X114098000Y-73291000D02*
X112398000Y-73291000D01*
X114098000Y-65291000D02*
X114098000Y-64391000D01*
X114098000Y-64391000D02*
X134998000Y-64391000D01*
X112398000Y-73291000D02*
X112398000Y-72291000D01*
X112398000Y-66291000D02*
X112398000Y-65291000D01*
X112398000Y-65291000D02*
X114098000Y-65291000D01*
D12*
%TO.C,R2*%
X141986000Y-56666000D02*
X141986000Y-57436000D01*
X143356000Y-57436000D02*
X140616000Y-57436000D01*
X140616000Y-57436000D02*
X140616000Y-63976000D01*
X143356000Y-63976000D02*
X143356000Y-57436000D01*
X140616000Y-63976000D02*
X143356000Y-63976000D01*
X141986000Y-64746000D02*
X141986000Y-63976000D01*
%TO.C,U1*%
X160214000Y-77350000D02*
X160214000Y-87750000D01*
X160214000Y-87750000D02*
X170494000Y-87750000D01*
X162704000Y-77410000D02*
X162704000Y-87690000D01*
X162704000Y-87690000D02*
X168004000Y-87690000D01*
X164354000Y-77410000D02*
X162704000Y-77410000D01*
X168004000Y-77410000D02*
X166354000Y-77410000D01*
X168004000Y-87690000D02*
X168004000Y-77410000D01*
X170494000Y-77350000D02*
X160214000Y-77350000D01*
X170494000Y-87750000D02*
X170494000Y-77350000D01*
X164354000Y-77410000D02*
G75*
G03*
X166354000Y-77410000I1000000J0D01*
G01*
%TO.C,J6*%
X152340000Y-60452000D02*
X152340000Y-65592000D01*
X152340000Y-60452000D02*
X155000000Y-60452000D01*
X152340000Y-65592000D02*
X155000000Y-65592000D01*
X153670000Y-57852000D02*
X155000000Y-57852000D01*
X155000000Y-57852000D02*
X155000000Y-59182000D01*
X155000000Y-60452000D02*
X155000000Y-65592000D01*
%TD*%
M02*
