%TF.GenerationSoftware,KiCad,Pcbnew,7.0.2-0*%
%TF.CreationDate,2023-07-09T16:01:25+01:00*%
%TF.ProjectId,jfet-matcher,6a666574-2d6d-4617-9463-6865722e6b69,rev?*%
%TF.SameCoordinates,Original*%
%TF.FileFunction,Copper,L1,Top*%
%TF.FilePolarity,Positive*%
%FSLAX46Y46*%
G04 Gerber Fmt 4.6, Leading zero omitted, Abs format (unit mm)*
G04 Created by KiCad (PCBNEW 7.0.2-0) date 2023-07-09 16:01:25*
%MOMM*%
%LPD*%
G01*
G04 APERTURE LIST*
%TA.AperFunction,ComponentPad*%
%ADD10C,3.000000*%
%TD*%
%TA.AperFunction,ComponentPad*%
%ADD11C,1.600000*%
%TD*%
%TA.AperFunction,ComponentPad*%
%ADD12O,1.600000X1.600000*%
%TD*%
%TA.AperFunction,ComponentPad*%
%ADD13R,1.700000X1.700000*%
%TD*%
%TA.AperFunction,ComponentPad*%
%ADD14O,1.700000X1.700000*%
%TD*%
%TA.AperFunction,ComponentPad*%
%ADD15R,1.600000X1.600000*%
%TD*%
%TA.AperFunction,Conductor*%
%ADD16C,1.270000*%
%TD*%
G04 APERTURE END LIST*
D10*
%TO.P,J4,1*%
%TO.N,/VREF*%
X162246000Y-69342000D03*
X177546000Y-69342000D03*
%TD*%
%TO.P,J3,1*%
%TO.N,Net-(J6-Pin_3)*%
X162246000Y-59182000D03*
X177546000Y-59182000D03*
%TD*%
D11*
%TO.P,R3,1*%
%TO.N,GND*%
X156464000Y-85090000D03*
D12*
%TO.P,R3,2*%
%TO.N,Net-(J8-Pin_2)*%
X146304000Y-85090000D03*
%TD*%
D13*
%TO.P,J5,1,Pin_1*%
%TO.N,Net-(J5-Pin_1)*%
X152400000Y-72898000D03*
D14*
%TO.P,J5,2,Pin_2*%
%TO.N,GND*%
X152400000Y-75438000D03*
%TD*%
D13*
%TO.P,J8,1,Pin_1*%
%TO.N,VCC*%
X141732000Y-80010000D03*
D14*
%TO.P,J8,2,Pin_2*%
%TO.N,Net-(J8-Pin_2)*%
X141732000Y-82550000D03*
%TO.P,J8,3,Pin_3*%
X141732000Y-85090000D03*
%TD*%
D13*
%TO.P,J7,1,Pin_1*%
%TO.N,VCC*%
X146812000Y-59182000D03*
D14*
%TO.P,J7,2,Pin_2*%
%TO.N,Net-(J6-Pin_3)*%
X146812000Y-61722000D03*
%TO.P,J7,3,Pin_3*%
%TO.N,Net-(J5-Pin_1)*%
X146812000Y-64262000D03*
%TD*%
D10*
%TO.P,J1,1*%
%TO.N,VCC*%
X131698000Y-59131000D03*
X116398000Y-59131000D03*
%TD*%
D11*
%TO.P,R1,1*%
%TO.N,/VREF*%
X138938000Y-65786000D03*
D12*
%TO.P,R1,2*%
%TO.N,VCC*%
X138938000Y-55626000D03*
%TD*%
D10*
%TO.P,J9,1*%
%TO.N,Net-(J8-Pin_2)*%
X131572000Y-83769000D03*
X116272000Y-83769000D03*
%TD*%
D15*
%TO.P,C1,1*%
%TO.N,/VREF*%
X140462000Y-69596000D03*
D11*
%TO.P,C1,2*%
%TO.N,GND*%
X140462000Y-71596000D03*
%TD*%
D10*
%TO.P,J2,1*%
%TO.N,GND*%
X131698000Y-69291000D03*
X116398000Y-69291000D03*
%TD*%
D11*
%TO.P,R2,1*%
%TO.N,GND*%
X141986000Y-55626000D03*
D12*
%TO.P,R2,2*%
%TO.N,/VREF*%
X141986000Y-65786000D03*
%TD*%
D15*
%TO.P,U1,1,NULL*%
%TO.N,unconnected-(U1-NULL-Pad1)*%
X161544000Y-78740000D03*
D12*
%TO.P,U1,2,-*%
%TO.N,Net-(J5-Pin_1)*%
X161544000Y-81280000D03*
%TO.P,U1,3,+*%
%TO.N,/VREF*%
X161544000Y-83820000D03*
%TO.P,U1,4,V-*%
%TO.N,GND*%
X161544000Y-86360000D03*
%TO.P,U1,5,NULL*%
%TO.N,unconnected-(U1-NULL-Pad5)*%
X169164000Y-86360000D03*
%TO.P,U1,6*%
%TO.N,Net-(J6-Pin_3)*%
X169164000Y-83820000D03*
%TO.P,U1,7,V+*%
%TO.N,VCC*%
X169164000Y-81280000D03*
%TO.P,U1,8,NC*%
%TO.N,unconnected-(U1-NC-Pad8)*%
X169164000Y-78740000D03*
%TD*%
D13*
%TO.P,J6,1,Pin_1*%
%TO.N,VCC*%
X153670000Y-59182000D03*
D14*
%TO.P,J6,2,Pin_2*%
%TO.N,Net-(J5-Pin_1)*%
X153670000Y-61722000D03*
%TO.P,J6,3,Pin_3*%
%TO.N,Net-(J6-Pin_3)*%
X153670000Y-64262000D03*
%TD*%
D16*
%TO.N,/VREF*%
X140462000Y-69596000D02*
X140462000Y-65786000D01*
X161992000Y-69596000D02*
X162246000Y-69342000D01*
X140462000Y-69596000D02*
X161992000Y-69596000D01*
X140462000Y-65786000D02*
X141986000Y-65786000D01*
X138938000Y-65786000D02*
X140462000Y-65786000D01*
%TO.N,VCC*%
X142494000Y-59182000D02*
X146812000Y-59182000D01*
X138938000Y-55626000D02*
X142494000Y-59182000D01*
X141732000Y-80010000D02*
X135433000Y-73711000D01*
X135433000Y-73711000D02*
X135433000Y-59131000D01*
X166624000Y-78994000D02*
X168910000Y-81280000D01*
X146812000Y-59182000D02*
X153670000Y-59182000D01*
X135433000Y-59131000D02*
X138938000Y-55626000D01*
X131698000Y-59131000D02*
X135433000Y-59131000D01*
X116398000Y-59131000D02*
X131698000Y-59131000D01*
X153670000Y-59182000D02*
X157988000Y-59182000D01*
X157988000Y-59182000D02*
X166624000Y-67818000D01*
X168910000Y-81280000D02*
X169164000Y-81280000D01*
X166624000Y-67818000D02*
X166624000Y-78994000D01*
%TO.N,Net-(J6-Pin_3)*%
X173736000Y-70672000D02*
X173736000Y-81052607D01*
X146812000Y-61722000D02*
X148844000Y-61722000D01*
X148844000Y-61722000D02*
X151384000Y-64262000D01*
X162246000Y-59182000D02*
X173736000Y-70672000D01*
X173736000Y-81052607D02*
X170968607Y-83820000D01*
X162246000Y-59182000D02*
X177546000Y-59182000D01*
X151384000Y-64262000D02*
X153670000Y-64262000D01*
X170968607Y-83820000D02*
X169164000Y-83820000D01*
%TO.N,Net-(J8-Pin_2)*%
X140513000Y-83769000D02*
X140513000Y-83871000D01*
X140513000Y-83871000D02*
X141732000Y-85090000D01*
X141732000Y-82550000D02*
X141732000Y-85090000D01*
X140513000Y-83769000D02*
X141732000Y-82550000D01*
X131572000Y-83769000D02*
X140513000Y-83769000D01*
X141732000Y-85090000D02*
X146304000Y-85090000D01*
X116272000Y-83769000D02*
X131572000Y-83769000D01*
%TD*%
%TA.AperFunction,Conductor*%
%TO.N,GND*%
G36*
X181252539Y-53660185D02*
G01*
X181298294Y-53712989D01*
X181309500Y-53764500D01*
X181309500Y-88729500D01*
X181289815Y-88796539D01*
X181237011Y-88842294D01*
X181185500Y-88853500D01*
X112692500Y-88853500D01*
X112625461Y-88833815D01*
X112579706Y-88781011D01*
X112568500Y-88729500D01*
X112568500Y-83769000D01*
X114258807Y-83769000D01*
X114259096Y-83773225D01*
X114271862Y-83959866D01*
X114277558Y-84043130D01*
X114278419Y-84047277D01*
X114278421Y-84047286D01*
X114286010Y-84083805D01*
X114333462Y-84312153D01*
X114334880Y-84316144D01*
X114334883Y-84316153D01*
X114424056Y-84567061D01*
X114425477Y-84571058D01*
X114427424Y-84574816D01*
X114427426Y-84574820D01*
X114542235Y-84796391D01*
X114551889Y-84815023D01*
X114554335Y-84818488D01*
X114707898Y-85036039D01*
X114707902Y-85036044D01*
X114710343Y-85039502D01*
X114779493Y-85113543D01*
X114874385Y-85215148D01*
X114897889Y-85240314D01*
X115111031Y-85413718D01*
X115345800Y-85556484D01*
X115597823Y-85665953D01*
X115806825Y-85724512D01*
X115858324Y-85738942D01*
X115858326Y-85738942D01*
X115862404Y-85740085D01*
X116134615Y-85777500D01*
X116138852Y-85777500D01*
X116405148Y-85777500D01*
X116409385Y-85777500D01*
X116681596Y-85740085D01*
X116946177Y-85665953D01*
X117198200Y-85556484D01*
X117432969Y-85413718D01*
X117646111Y-85240314D01*
X117833657Y-85039502D01*
X117886251Y-84964991D01*
X117940993Y-84921574D01*
X117987556Y-84912500D01*
X129856444Y-84912500D01*
X129923483Y-84932185D01*
X129957747Y-84964990D01*
X130010343Y-85039502D01*
X130013223Y-85042586D01*
X130013229Y-85042593D01*
X130181229Y-85222476D01*
X130197889Y-85240314D01*
X130411031Y-85413718D01*
X130645800Y-85556484D01*
X130897823Y-85665953D01*
X131106825Y-85724512D01*
X131158324Y-85738942D01*
X131158326Y-85738942D01*
X131162404Y-85740085D01*
X131434615Y-85777500D01*
X131438852Y-85777500D01*
X131705148Y-85777500D01*
X131709385Y-85777500D01*
X131981596Y-85740085D01*
X132246177Y-85665953D01*
X132498200Y-85556484D01*
X132732969Y-85413718D01*
X132946111Y-85240314D01*
X133133657Y-85039502D01*
X133186251Y-84964991D01*
X133240993Y-84921574D01*
X133287556Y-84912500D01*
X139885985Y-84912500D01*
X139953024Y-84932185D01*
X139973666Y-84948819D01*
X140379644Y-85354797D01*
X140412168Y-85412037D01*
X140428155Y-85475165D01*
X140442704Y-85532616D01*
X140453913Y-85558170D01*
X140533138Y-85738788D01*
X140533140Y-85738791D01*
X140656278Y-85927268D01*
X140808760Y-86092906D01*
X140986424Y-86231189D01*
X141184426Y-86338342D01*
X141397365Y-86411444D01*
X141619431Y-86448500D01*
X141844569Y-86448500D01*
X142066635Y-86411444D01*
X142279574Y-86338342D01*
X142445689Y-86248445D01*
X142504707Y-86233500D01*
X145632580Y-86233500D01*
X145684983Y-86245117D01*
X145854757Y-86324284D01*
X146075913Y-86383543D01*
X146304000Y-86403498D01*
X146532087Y-86383543D01*
X146753243Y-86324284D01*
X146960749Y-86227523D01*
X147148300Y-86096198D01*
X147310198Y-85934300D01*
X147441523Y-85746749D01*
X147538284Y-85539243D01*
X147597543Y-85318087D01*
X147617498Y-85090000D01*
X147617498Y-85089999D01*
X155159033Y-85089999D01*
X155178858Y-85316602D01*
X155237733Y-85536326D01*
X155333866Y-85742484D01*
X155384972Y-85815471D01*
X155384973Y-85815472D01*
X156066045Y-85134399D01*
X156078835Y-85215148D01*
X156136359Y-85328045D01*
X156225955Y-85417641D01*
X156338852Y-85475165D01*
X156419599Y-85487953D01*
X155738526Y-86169025D01*
X155738526Y-86169026D01*
X155811515Y-86220133D01*
X156017673Y-86316266D01*
X156237397Y-86375141D01*
X156464000Y-86394966D01*
X156690602Y-86375141D01*
X156910326Y-86316266D01*
X157116480Y-86220134D01*
X157189472Y-86169025D01*
X156508401Y-85487953D01*
X156589148Y-85475165D01*
X156702045Y-85417641D01*
X156791641Y-85328045D01*
X156849165Y-85215148D01*
X156861953Y-85134400D01*
X157543025Y-85815472D01*
X157594134Y-85742480D01*
X157690266Y-85536326D01*
X157749141Y-85316602D01*
X157768966Y-85090000D01*
X157749141Y-84863397D01*
X157690266Y-84643673D01*
X157594133Y-84437515D01*
X157543025Y-84364526D01*
X156861953Y-85045598D01*
X156849165Y-84964852D01*
X156791641Y-84851955D01*
X156702045Y-84762359D01*
X156589148Y-84704835D01*
X156508400Y-84692046D01*
X157189472Y-84010974D01*
X157189471Y-84010972D01*
X157116484Y-83959866D01*
X156910326Y-83863733D01*
X156747113Y-83820000D01*
X160230501Y-83820000D01*
X160250456Y-84048084D01*
X160309717Y-84269246D01*
X160406474Y-84476744D01*
X160406476Y-84476746D01*
X160406477Y-84476749D01*
X160537802Y-84664300D01*
X160699700Y-84826198D01*
X160887251Y-84957523D01*
X160940401Y-84982307D01*
X160992839Y-85028477D01*
X161011992Y-85095670D01*
X160991777Y-85162552D01*
X160940403Y-85207069D01*
X160891520Y-85229864D01*
X160705180Y-85360341D01*
X160544341Y-85521180D01*
X160413865Y-85707519D01*
X160317733Y-85913673D01*
X160265128Y-86109999D01*
X160265128Y-86110000D01*
X161228314Y-86110000D01*
X161216359Y-86121955D01*
X161158835Y-86234852D01*
X161139014Y-86360000D01*
X161158835Y-86485148D01*
X161216359Y-86598045D01*
X161228314Y-86610000D01*
X160265128Y-86610000D01*
X160317733Y-86806326D01*
X160413865Y-87012480D01*
X160544341Y-87198819D01*
X160705180Y-87359658D01*
X160891519Y-87490134D01*
X161097673Y-87586266D01*
X161293999Y-87638871D01*
X161294000Y-87638871D01*
X161294000Y-86675686D01*
X161305955Y-86687641D01*
X161418852Y-86745165D01*
X161512519Y-86760000D01*
X161575481Y-86760000D01*
X161669148Y-86745165D01*
X161782045Y-86687641D01*
X161794000Y-86675685D01*
X161794000Y-87638871D01*
X161990326Y-87586266D01*
X162196480Y-87490134D01*
X162382819Y-87359658D01*
X162543658Y-87198819D01*
X162674134Y-87012480D01*
X162770266Y-86806326D01*
X162822872Y-86610000D01*
X161859686Y-86610000D01*
X161871641Y-86598045D01*
X161929165Y-86485148D01*
X161948986Y-86360000D01*
X161929165Y-86234852D01*
X161871641Y-86121955D01*
X161859686Y-86110000D01*
X162822872Y-86110000D01*
X162822871Y-86109999D01*
X162770266Y-85913673D01*
X162674134Y-85707519D01*
X162543658Y-85521180D01*
X162382819Y-85360341D01*
X162196482Y-85229866D01*
X162147597Y-85207070D01*
X162095158Y-85160897D01*
X162076007Y-85093703D01*
X162096223Y-85026822D01*
X162147595Y-84982308D01*
X162200749Y-84957523D01*
X162388300Y-84826198D01*
X162550198Y-84664300D01*
X162681523Y-84476749D01*
X162778284Y-84269243D01*
X162837543Y-84048087D01*
X162857498Y-83820000D01*
X162837543Y-83591913D01*
X162778284Y-83370757D01*
X162698096Y-83198792D01*
X162681525Y-83163255D01*
X162681524Y-83163254D01*
X162681523Y-83163251D01*
X162550198Y-82975700D01*
X162388300Y-82813802D01*
X162200749Y-82682477D01*
X162157655Y-82662382D01*
X162105215Y-82616210D01*
X162086063Y-82549017D01*
X162106278Y-82482136D01*
X162157655Y-82437618D01*
X162160882Y-82436112D01*
X162200749Y-82417523D01*
X162388300Y-82286198D01*
X162550198Y-82124300D01*
X162681523Y-81936749D01*
X162778284Y-81729243D01*
X162837543Y-81508087D01*
X162857498Y-81280000D01*
X162837543Y-81051913D01*
X162778284Y-80830757D01*
X162681523Y-80623251D01*
X162550198Y-80435700D01*
X162388300Y-80273802D01*
X162380630Y-80268431D01*
X162337008Y-80213858D01*
X162329814Y-80144360D01*
X162361336Y-80082005D01*
X162421566Y-80046590D01*
X162438498Y-80043569D01*
X162453201Y-80041989D01*
X162453203Y-80041988D01*
X162453205Y-80041988D01*
X162541601Y-80009017D01*
X162590204Y-79990889D01*
X162707261Y-79903261D01*
X162794889Y-79786204D01*
X162845989Y-79649201D01*
X162852500Y-79588638D01*
X162852500Y-77891362D01*
X162845989Y-77830799D01*
X162845988Y-77830797D01*
X162845988Y-77830794D01*
X162794889Y-77693796D01*
X162707261Y-77576738D01*
X162590203Y-77489110D01*
X162453205Y-77438011D01*
X162395924Y-77431853D01*
X162395918Y-77431852D01*
X162392638Y-77431500D01*
X160695362Y-77431500D01*
X160692082Y-77431852D01*
X160692075Y-77431853D01*
X160634794Y-77438011D01*
X160497796Y-77489110D01*
X160380738Y-77576738D01*
X160293110Y-77693796D01*
X160242011Y-77830794D01*
X160235853Y-77888075D01*
X160235500Y-77891362D01*
X160235500Y-79588638D01*
X160235852Y-79591918D01*
X160235853Y-79591924D01*
X160242011Y-79649205D01*
X160293110Y-79786203D01*
X160380738Y-79903261D01*
X160497796Y-79990889D01*
X160634794Y-80041988D01*
X160634797Y-80041988D01*
X160634799Y-80041989D01*
X160649497Y-80043569D01*
X160714048Y-80070307D01*
X160753897Y-80127699D01*
X160756391Y-80197524D01*
X160720739Y-80257613D01*
X160707368Y-80268433D01*
X160699698Y-80273803D01*
X160537805Y-80435696D01*
X160406474Y-80623255D01*
X160309717Y-80830753D01*
X160250456Y-81051915D01*
X160230501Y-81280000D01*
X160250456Y-81508084D01*
X160309717Y-81729246D01*
X160406474Y-81936744D01*
X160406476Y-81936746D01*
X160406477Y-81936749D01*
X160537802Y-82124300D01*
X160699700Y-82286198D01*
X160887251Y-82417523D01*
X160927334Y-82436214D01*
X160930345Y-82437618D01*
X160982784Y-82483791D01*
X161001936Y-82550984D01*
X160981720Y-82617865D01*
X160930344Y-82662382D01*
X160887251Y-82682477D01*
X160699700Y-82813802D01*
X160699696Y-82813805D01*
X160537805Y-82975696D01*
X160406474Y-83163255D01*
X160309717Y-83370753D01*
X160250456Y-83591915D01*
X160230501Y-83820000D01*
X156747113Y-83820000D01*
X156690602Y-83804858D01*
X156464000Y-83785033D01*
X156237397Y-83804858D01*
X156017672Y-83863733D01*
X155811516Y-83959865D01*
X155738527Y-84010973D01*
X155738526Y-84010973D01*
X156419600Y-84692046D01*
X156338852Y-84704835D01*
X156225955Y-84762359D01*
X156136359Y-84851955D01*
X156078835Y-84964852D01*
X156066046Y-85045598D01*
X155384973Y-84364527D01*
X155333865Y-84437516D01*
X155237733Y-84643672D01*
X155178858Y-84863397D01*
X155159033Y-85089999D01*
X147617498Y-85089999D01*
X147597543Y-84861913D01*
X147538284Y-84640757D01*
X147441523Y-84433251D01*
X147310198Y-84245700D01*
X147148300Y-84083802D01*
X146960749Y-83952477D01*
X146960746Y-83952476D01*
X146960744Y-83952474D01*
X146753246Y-83855717D01*
X146753243Y-83855716D01*
X146563440Y-83804858D01*
X146532084Y-83796456D01*
X146304000Y-83776501D01*
X146075915Y-83796456D01*
X145854756Y-83855716D01*
X145769009Y-83895700D01*
X145684983Y-83934882D01*
X145632580Y-83946500D01*
X142999500Y-83946500D01*
X142932461Y-83926815D01*
X142886706Y-83874011D01*
X142875500Y-83822500D01*
X142875500Y-83320441D01*
X142895185Y-83253402D01*
X142895692Y-83252619D01*
X142930860Y-83198791D01*
X143021296Y-82992616D01*
X143076564Y-82774368D01*
X143095156Y-82550000D01*
X143076564Y-82325632D01*
X143021296Y-82107384D01*
X142930860Y-81901209D01*
X142807722Y-81712732D01*
X142807721Y-81712731D01*
X142807718Y-81712726D01*
X142662510Y-81554990D01*
X142631587Y-81492336D01*
X142639447Y-81422910D01*
X142683594Y-81368754D01*
X142710396Y-81354829D01*
X142828204Y-81310889D01*
X142945261Y-81223261D01*
X143032889Y-81106204D01*
X143083989Y-80969201D01*
X143090500Y-80908638D01*
X143090500Y-79111362D01*
X143083989Y-79050799D01*
X143083988Y-79050797D01*
X143083988Y-79050794D01*
X143032889Y-78913796D01*
X142945261Y-78796738D01*
X142828203Y-78709110D01*
X142691205Y-78658011D01*
X142633924Y-78651853D01*
X142633918Y-78651852D01*
X142630638Y-78651500D01*
X142627328Y-78651500D01*
X142042015Y-78651500D01*
X141974976Y-78631815D01*
X141954334Y-78615181D01*
X137135791Y-73796638D01*
X151041500Y-73796638D01*
X151041852Y-73799918D01*
X151041853Y-73799924D01*
X151048011Y-73857205D01*
X151099110Y-73994203D01*
X151186738Y-74111261D01*
X151303793Y-74198887D01*
X151303796Y-74198889D01*
X151433382Y-74247222D01*
X151489313Y-74289093D01*
X151513730Y-74354557D01*
X151498878Y-74422830D01*
X151477728Y-74451084D01*
X151361888Y-74566924D01*
X151226400Y-74760421D01*
X151126569Y-74974507D01*
X151069364Y-75187999D01*
X151069364Y-75188000D01*
X151966314Y-75188000D01*
X151940507Y-75228156D01*
X151900000Y-75366111D01*
X151900000Y-75509889D01*
X151940507Y-75647844D01*
X151966314Y-75688000D01*
X151069364Y-75688000D01*
X151126569Y-75901492D01*
X151226399Y-76115576D01*
X151361893Y-76309081D01*
X151528918Y-76476106D01*
X151722423Y-76611600D01*
X151936509Y-76711430D01*
X152150000Y-76768634D01*
X152150000Y-75873501D01*
X152257685Y-75922680D01*
X152364237Y-75938000D01*
X152435763Y-75938000D01*
X152542315Y-75922680D01*
X152650000Y-75873501D01*
X152650000Y-76768633D01*
X152863490Y-76711430D01*
X153077576Y-76611600D01*
X153271081Y-76476106D01*
X153438106Y-76309081D01*
X153573600Y-76115576D01*
X153673430Y-75901492D01*
X153730636Y-75688000D01*
X152833686Y-75688000D01*
X152859493Y-75647844D01*
X152900000Y-75509889D01*
X152900000Y-75366111D01*
X152859493Y-75228156D01*
X152833686Y-75188000D01*
X153730636Y-75188000D01*
X153730635Y-75187999D01*
X153673430Y-74974507D01*
X153573599Y-74760421D01*
X153438109Y-74566921D01*
X153322272Y-74451084D01*
X153288787Y-74389761D01*
X153293771Y-74320069D01*
X153335643Y-74264136D01*
X153366612Y-74247224D01*
X153496204Y-74198889D01*
X153613261Y-74111261D01*
X153700889Y-73994204D01*
X153751989Y-73857201D01*
X153758500Y-73796638D01*
X153758500Y-71999362D01*
X153751989Y-71938799D01*
X153751988Y-71938797D01*
X153751988Y-71938794D01*
X153700889Y-71801796D01*
X153613261Y-71684738D01*
X153496203Y-71597110D01*
X153359205Y-71546011D01*
X153301924Y-71539853D01*
X153301918Y-71539852D01*
X153298638Y-71539500D01*
X151501362Y-71539500D01*
X151498082Y-71539852D01*
X151498075Y-71539853D01*
X151440794Y-71546011D01*
X151303796Y-71597110D01*
X151186738Y-71684738D01*
X151099110Y-71801796D01*
X151048011Y-71938794D01*
X151043456Y-71981165D01*
X151041500Y-71999362D01*
X151041500Y-73796638D01*
X137135791Y-73796638D01*
X136612819Y-73273666D01*
X136579334Y-73212343D01*
X136576500Y-73185985D01*
X136576500Y-65785999D01*
X137624501Y-65785999D01*
X137644456Y-66014084D01*
X137703717Y-66235246D01*
X137800474Y-66442744D01*
X137800476Y-66442746D01*
X137800477Y-66442749D01*
X137931802Y-66630300D01*
X138093700Y-66792198D01*
X138281251Y-66923523D01*
X138488757Y-67020284D01*
X138709913Y-67079543D01*
X138938000Y-67099498D01*
X139176895Y-67078598D01*
X139177094Y-67080879D01*
X139232249Y-67082189D01*
X139290114Y-67121348D01*
X139317622Y-67185575D01*
X139318500Y-67200304D01*
X139318500Y-68365070D01*
X139298815Y-68432109D01*
X139293767Y-68439380D01*
X139211110Y-68549796D01*
X139160011Y-68686794D01*
X139155786Y-68726097D01*
X139153500Y-68747362D01*
X139153500Y-70444638D01*
X139153852Y-70447918D01*
X139153853Y-70447924D01*
X139160011Y-70505205D01*
X139211110Y-70642203D01*
X139298737Y-70759260D01*
X139308953Y-70766907D01*
X139350825Y-70822840D01*
X139355811Y-70892532D01*
X139336224Y-70937291D01*
X139331868Y-70943512D01*
X139235733Y-71149673D01*
X139176858Y-71369397D01*
X139157033Y-71596000D01*
X139176858Y-71822602D01*
X139235733Y-72042326D01*
X139331866Y-72248484D01*
X139382972Y-72321471D01*
X139382973Y-72321472D01*
X140064045Y-71640399D01*
X140076835Y-71721148D01*
X140134359Y-71834045D01*
X140223955Y-71923641D01*
X140336852Y-71981165D01*
X140417599Y-71993953D01*
X139736526Y-72675025D01*
X139736526Y-72675026D01*
X139809515Y-72726133D01*
X140015673Y-72822266D01*
X140235397Y-72881141D01*
X140461999Y-72900966D01*
X140688602Y-72881141D01*
X140908326Y-72822266D01*
X141114480Y-72726134D01*
X141187472Y-72675025D01*
X140506401Y-71993953D01*
X140587148Y-71981165D01*
X140700045Y-71923641D01*
X140789641Y-71834045D01*
X140847165Y-71721148D01*
X140859953Y-71640400D01*
X141541025Y-72321472D01*
X141592134Y-72248480D01*
X141688266Y-72042326D01*
X141747141Y-71822602D01*
X141766966Y-71596000D01*
X141747141Y-71369397D01*
X141688266Y-71149673D01*
X141592134Y-70943518D01*
X141587780Y-70937300D01*
X141565452Y-70871094D01*
X141582461Y-70803327D01*
X141615060Y-70766896D01*
X141618641Y-70764216D01*
X141684110Y-70739814D01*
X141692929Y-70739500D01*
X160749091Y-70739500D01*
X160816130Y-70759185D01*
X160839709Y-70778858D01*
X160871889Y-70813314D01*
X161085031Y-70986718D01*
X161319800Y-71129484D01*
X161571823Y-71238953D01*
X161775816Y-71296109D01*
X161832324Y-71311942D01*
X161832326Y-71311942D01*
X161836404Y-71313085D01*
X162108615Y-71350500D01*
X162112852Y-71350500D01*
X162379148Y-71350500D01*
X162383385Y-71350500D01*
X162655596Y-71313085D01*
X162920177Y-71238953D01*
X163172200Y-71129484D01*
X163406969Y-70986718D01*
X163620111Y-70813314D01*
X163807657Y-70612502D01*
X163966111Y-70388023D01*
X164092523Y-70144058D01*
X164184538Y-69885153D01*
X164240442Y-69616130D01*
X164259193Y-69342000D01*
X164240442Y-69067870D01*
X164184538Y-68798847D01*
X164092523Y-68539942D01*
X163966111Y-68295977D01*
X163807657Y-68071498D01*
X163620111Y-67870686D01*
X163616829Y-67868016D01*
X163616826Y-67868013D01*
X163490160Y-67764963D01*
X163406969Y-67697282D01*
X163403345Y-67695078D01*
X163403342Y-67695076D01*
X163175818Y-67556716D01*
X163175816Y-67556715D01*
X163172200Y-67554516D01*
X163150707Y-67545180D01*
X162924058Y-67446732D01*
X162924048Y-67446728D01*
X162920177Y-67445047D01*
X162916105Y-67443906D01*
X162659675Y-67372057D01*
X162659662Y-67372054D01*
X162655596Y-67370915D01*
X162651406Y-67370339D01*
X162651396Y-67370337D01*
X162387582Y-67334076D01*
X162387569Y-67334075D01*
X162383385Y-67333500D01*
X162108615Y-67333500D01*
X162104431Y-67334075D01*
X162104417Y-67334076D01*
X161840603Y-67370337D01*
X161840590Y-67370339D01*
X161836404Y-67370915D01*
X161832340Y-67372053D01*
X161832324Y-67372057D01*
X161575894Y-67443906D01*
X161575889Y-67443907D01*
X161571823Y-67445047D01*
X161567956Y-67446726D01*
X161567941Y-67446732D01*
X161323683Y-67552829D01*
X161323678Y-67552831D01*
X161319800Y-67554516D01*
X161316189Y-67556711D01*
X161316181Y-67556716D01*
X161088657Y-67695076D01*
X161088646Y-67695083D01*
X161085031Y-67697282D01*
X161081741Y-67699958D01*
X161081739Y-67699960D01*
X160875173Y-67868013D01*
X160875162Y-67868022D01*
X160871889Y-67870686D01*
X160869010Y-67873768D01*
X160869001Y-67873777D01*
X160687231Y-68068405D01*
X160687226Y-68068410D01*
X160684343Y-68071498D01*
X160681907Y-68074948D01*
X160681898Y-68074960D01*
X160528335Y-68292511D01*
X160528331Y-68292516D01*
X160525889Y-68295977D01*
X160523943Y-68299731D01*
X160523939Y-68299739D01*
X160479477Y-68385548D01*
X160431157Y-68436015D01*
X160369379Y-68452500D01*
X141729500Y-68452500D01*
X141662461Y-68432815D01*
X141616706Y-68380011D01*
X141605500Y-68328500D01*
X141605500Y-67200304D01*
X141625185Y-67133265D01*
X141677989Y-67087510D01*
X141747147Y-67077566D01*
X141755950Y-67079371D01*
X141757911Y-67079542D01*
X141757913Y-67079543D01*
X141986000Y-67099498D01*
X142214087Y-67079543D01*
X142435243Y-67020284D01*
X142642749Y-66923523D01*
X142830300Y-66792198D01*
X142992198Y-66630300D01*
X143123523Y-66442749D01*
X143220284Y-66235243D01*
X143279543Y-66014087D01*
X143299498Y-65786000D01*
X143279543Y-65557913D01*
X143220284Y-65336757D01*
X143123523Y-65129251D01*
X142992198Y-64941700D01*
X142830300Y-64779802D01*
X142642749Y-64648477D01*
X142642746Y-64648476D01*
X142642744Y-64648474D01*
X142435246Y-64551717D01*
X142435243Y-64551716D01*
X142324664Y-64522086D01*
X142214084Y-64492456D01*
X141986000Y-64472501D01*
X141757915Y-64492456D01*
X141536756Y-64551716D01*
X141451009Y-64591700D01*
X141366983Y-64630882D01*
X141314580Y-64642500D01*
X139609420Y-64642500D01*
X139557016Y-64630882D01*
X139387243Y-64551716D01*
X139387242Y-64551716D01*
X139166084Y-64492456D01*
X138938000Y-64472501D01*
X138709915Y-64492456D01*
X138488753Y-64551717D01*
X138281255Y-64648474D01*
X138093696Y-64779805D01*
X137931805Y-64941696D01*
X137800474Y-65129255D01*
X137703717Y-65336753D01*
X137644456Y-65557915D01*
X137624501Y-65785999D01*
X136576500Y-65785999D01*
X136576500Y-59656014D01*
X136596185Y-59588975D01*
X136612819Y-59568333D01*
X138850318Y-57330834D01*
X138911641Y-57297349D01*
X138981333Y-57302333D01*
X139025680Y-57330834D01*
X141664724Y-59969878D01*
X141668680Y-59974021D01*
X141720328Y-60030676D01*
X141781507Y-60076877D01*
X141785996Y-60080433D01*
X141829831Y-60116832D01*
X141844998Y-60129426D01*
X141860707Y-60138176D01*
X141875092Y-60147549D01*
X141889447Y-60158390D01*
X141919311Y-60173260D01*
X141958115Y-60192582D01*
X141963115Y-60195216D01*
X142030138Y-60232548D01*
X142037502Y-60235016D01*
X142047186Y-60238262D01*
X142063053Y-60244834D01*
X142079150Y-60252850D01*
X142152921Y-60273839D01*
X142158379Y-60275530D01*
X142231068Y-60299894D01*
X142231071Y-60299894D01*
X142231073Y-60299895D01*
X142248888Y-60302379D01*
X142265679Y-60305921D01*
X142282982Y-60310845D01*
X142359361Y-60317922D01*
X142364974Y-60318572D01*
X142440962Y-60329173D01*
X142517554Y-60325632D01*
X142523281Y-60325500D01*
X145484446Y-60325500D01*
X145551485Y-60345185D01*
X145583713Y-60375189D01*
X145598739Y-60395262D01*
X145715793Y-60482887D01*
X145715796Y-60482889D01*
X145833596Y-60526826D01*
X145889527Y-60568697D01*
X145913944Y-60634161D01*
X145899092Y-60702434D01*
X145881490Y-60726990D01*
X145736279Y-60884730D01*
X145613138Y-61073211D01*
X145539388Y-61241348D01*
X145522704Y-61279384D01*
X145467436Y-61497632D01*
X145467435Y-61497636D01*
X145448843Y-61721999D01*
X145467435Y-61946363D01*
X145522705Y-62164618D01*
X145613138Y-62370788D01*
X145613140Y-62370791D01*
X145736278Y-62559268D01*
X145888760Y-62724906D01*
X146066424Y-62863189D01*
X146066426Y-62863190D01*
X146102931Y-62882946D01*
X146152521Y-62932165D01*
X146167629Y-63000382D01*
X146143458Y-63065937D01*
X146102931Y-63101054D01*
X146066426Y-63120809D01*
X145888760Y-63259094D01*
X145736279Y-63424730D01*
X145613138Y-63613211D01*
X145522705Y-63819381D01*
X145467435Y-64037636D01*
X145448843Y-64262000D01*
X145467435Y-64486363D01*
X145467435Y-64486366D01*
X145467436Y-64486368D01*
X145483984Y-64551716D01*
X145522705Y-64704618D01*
X145613138Y-64910788D01*
X145613140Y-64910791D01*
X145736278Y-65099268D01*
X145888760Y-65264906D01*
X146066424Y-65403189D01*
X146264426Y-65510342D01*
X146477365Y-65583444D01*
X146699431Y-65620500D01*
X146924569Y-65620500D01*
X147146635Y-65583444D01*
X147359574Y-65510342D01*
X147557576Y-65403189D01*
X147735240Y-65264906D01*
X147887722Y-65099268D01*
X148010860Y-64910791D01*
X148101296Y-64704616D01*
X148156564Y-64486368D01*
X148175156Y-64262000D01*
X148156564Y-64037632D01*
X148101296Y-63819384D01*
X148010860Y-63613209D01*
X147887722Y-63424732D01*
X147735240Y-63259094D01*
X147557576Y-63120811D01*
X147521067Y-63101053D01*
X147471478Y-63051836D01*
X147456370Y-62983619D01*
X147480540Y-62918063D01*
X147521079Y-62882939D01*
X147525702Y-62880438D01*
X147584707Y-62865500D01*
X148318985Y-62865500D01*
X148386024Y-62885185D01*
X148406666Y-62901819D01*
X150554724Y-65049878D01*
X150558680Y-65054021D01*
X150610328Y-65110676D01*
X150671507Y-65156877D01*
X150675996Y-65160433D01*
X150719831Y-65196832D01*
X150734998Y-65209426D01*
X150750707Y-65218176D01*
X150765092Y-65227549D01*
X150779447Y-65238390D01*
X150825042Y-65261093D01*
X150848115Y-65272582D01*
X150853115Y-65275216D01*
X150920138Y-65312548D01*
X150927502Y-65315016D01*
X150937186Y-65318262D01*
X150953053Y-65324834D01*
X150969150Y-65332850D01*
X151042921Y-65353839D01*
X151048379Y-65355530D01*
X151121068Y-65379894D01*
X151121071Y-65379894D01*
X151121073Y-65379895D01*
X151138888Y-65382379D01*
X151155679Y-65385921D01*
X151172982Y-65390845D01*
X151249361Y-65397922D01*
X151254974Y-65398572D01*
X151330962Y-65409173D01*
X151407554Y-65405632D01*
X151413281Y-65405500D01*
X152897293Y-65405500D01*
X152956310Y-65420445D01*
X153122426Y-65510342D01*
X153335365Y-65583444D01*
X153557431Y-65620500D01*
X153782569Y-65620500D01*
X154004635Y-65583444D01*
X154217574Y-65510342D01*
X154415576Y-65403189D01*
X154593240Y-65264906D01*
X154745722Y-65099268D01*
X154868860Y-64910791D01*
X154959296Y-64704616D01*
X155014564Y-64486368D01*
X155033156Y-64262000D01*
X155014564Y-64037632D01*
X154959296Y-63819384D01*
X154868860Y-63613209D01*
X154745722Y-63424732D01*
X154593240Y-63259094D01*
X154415576Y-63120811D01*
X154379067Y-63101053D01*
X154329478Y-63051836D01*
X154314370Y-62983619D01*
X154338540Y-62918063D01*
X154379067Y-62882946D01*
X154415576Y-62863189D01*
X154593240Y-62724906D01*
X154745722Y-62559268D01*
X154868860Y-62370791D01*
X154959296Y-62164616D01*
X155014564Y-61946368D01*
X155033156Y-61722000D01*
X155014564Y-61497632D01*
X154959296Y-61279384D01*
X154868860Y-61073209D01*
X154745722Y-60884732D01*
X154745721Y-60884731D01*
X154745718Y-60884726D01*
X154600510Y-60726990D01*
X154569587Y-60664336D01*
X154577447Y-60594910D01*
X154621594Y-60540754D01*
X154648396Y-60526829D01*
X154766204Y-60482889D01*
X154874924Y-60401502D01*
X154883260Y-60395262D01*
X154898287Y-60375189D01*
X154954221Y-60333318D01*
X154997554Y-60325500D01*
X157462985Y-60325500D01*
X157530024Y-60345185D01*
X157550666Y-60361819D01*
X165444181Y-68255334D01*
X165477666Y-68316657D01*
X165480500Y-68343015D01*
X165480500Y-78964717D01*
X165480368Y-78970443D01*
X165476827Y-79047039D01*
X165487418Y-79122974D01*
X165488078Y-79128660D01*
X165495154Y-79205018D01*
X165500073Y-79222305D01*
X165503616Y-79239100D01*
X165506103Y-79256925D01*
X165530479Y-79329653D01*
X165532173Y-79335125D01*
X165553148Y-79408846D01*
X165561163Y-79424942D01*
X165567733Y-79440803D01*
X165573450Y-79457861D01*
X165610769Y-79524861D01*
X165613439Y-79529927D01*
X165647611Y-79598555D01*
X165658451Y-79612909D01*
X165667824Y-79627293D01*
X165676574Y-79643003D01*
X165725561Y-79701996D01*
X165729116Y-79706484D01*
X165775323Y-79767671D01*
X165832011Y-79819349D01*
X165836130Y-79823283D01*
X168080714Y-82067867D01*
X168084670Y-82072010D01*
X168136327Y-82128676D01*
X168170912Y-82154793D01*
X168197523Y-82174889D01*
X168202003Y-82178438D01*
X168256180Y-82223426D01*
X168264644Y-82231142D01*
X168319700Y-82286198D01*
X168507251Y-82417523D01*
X168547334Y-82436214D01*
X168550345Y-82437618D01*
X168602784Y-82483791D01*
X168621936Y-82550984D01*
X168601720Y-82617865D01*
X168550344Y-82662382D01*
X168507251Y-82682477D01*
X168319700Y-82813802D01*
X168319696Y-82813805D01*
X168157805Y-82975696D01*
X168026474Y-83163255D01*
X167929717Y-83370753D01*
X167870456Y-83591915D01*
X167850501Y-83820000D01*
X167870456Y-84048084D01*
X167929717Y-84269246D01*
X168026474Y-84476744D01*
X168026476Y-84476746D01*
X168026477Y-84476749D01*
X168157802Y-84664300D01*
X168319700Y-84826198D01*
X168507251Y-84957523D01*
X168544969Y-84975111D01*
X168550345Y-84977618D01*
X168602784Y-85023791D01*
X168621936Y-85090984D01*
X168601720Y-85157865D01*
X168550345Y-85202382D01*
X168522968Y-85215148D01*
X168507251Y-85222477D01*
X168356485Y-85328045D01*
X168319696Y-85353805D01*
X168157805Y-85515696D01*
X168157802Y-85515699D01*
X168157802Y-85515700D01*
X168141317Y-85539243D01*
X168026474Y-85703255D01*
X167929717Y-85910753D01*
X167870456Y-86131915D01*
X167850501Y-86360000D01*
X167870456Y-86588084D01*
X167897133Y-86687641D01*
X167928934Y-86806326D01*
X167929717Y-86809246D01*
X168026474Y-87016744D01*
X168026476Y-87016746D01*
X168026477Y-87016749D01*
X168157802Y-87204300D01*
X168319700Y-87366198D01*
X168507251Y-87497523D01*
X168714757Y-87594284D01*
X168935913Y-87653543D01*
X169164000Y-87673498D01*
X169392087Y-87653543D01*
X169613243Y-87594284D01*
X169820749Y-87497523D01*
X170008300Y-87366198D01*
X170170198Y-87204300D01*
X170301523Y-87016749D01*
X170398284Y-86809243D01*
X170457543Y-86588087D01*
X170477498Y-86360000D01*
X170457543Y-86131913D01*
X170398284Y-85910757D01*
X170318166Y-85738942D01*
X170301525Y-85703255D01*
X170301524Y-85703254D01*
X170301523Y-85703251D01*
X170170198Y-85515700D01*
X170008300Y-85353802D01*
X169820749Y-85222477D01*
X169777653Y-85202381D01*
X169725214Y-85156208D01*
X169706063Y-85089014D01*
X169726279Y-85022133D01*
X169777665Y-84977612D01*
X169783031Y-84975110D01*
X169835420Y-84963500D01*
X170939325Y-84963500D01*
X170945051Y-84963632D01*
X171021644Y-84967173D01*
X171097613Y-84956576D01*
X171103259Y-84955921D01*
X171179625Y-84948845D01*
X171196910Y-84943926D01*
X171213720Y-84940381D01*
X171231529Y-84937897D01*
X171231530Y-84937896D01*
X171231534Y-84937896D01*
X171304302Y-84913505D01*
X171309697Y-84911835D01*
X171383457Y-84890850D01*
X171399563Y-84882829D01*
X171415402Y-84876268D01*
X171432469Y-84870549D01*
X171499496Y-84833213D01*
X171504493Y-84830580D01*
X171573161Y-84796389D01*
X171587523Y-84785542D01*
X171601888Y-84776181D01*
X171617609Y-84767426D01*
X171676614Y-84718428D01*
X171681037Y-84714923D01*
X171742278Y-84668677D01*
X171793946Y-84611998D01*
X171797880Y-84607878D01*
X174523878Y-81881880D01*
X174527999Y-81877946D01*
X174528509Y-81877480D01*
X174584677Y-81826278D01*
X174630899Y-81765068D01*
X174634436Y-81760604D01*
X174674189Y-81712732D01*
X174683423Y-81701612D01*
X174683423Y-81701610D01*
X174683426Y-81701608D01*
X174692176Y-81685897D01*
X174701552Y-81671510D01*
X174712389Y-81657161D01*
X174746603Y-81588447D01*
X174749220Y-81583484D01*
X174786549Y-81516469D01*
X174792268Y-81499402D01*
X174798829Y-81483563D01*
X174806850Y-81467457D01*
X174827835Y-81393697D01*
X174829505Y-81388302D01*
X174853896Y-81315534D01*
X174856381Y-81297720D01*
X174859927Y-81280909D01*
X174864845Y-81263625D01*
X174871919Y-81187279D01*
X174872576Y-81181613D01*
X174883173Y-81105644D01*
X174879632Y-81029049D01*
X174879500Y-81023323D01*
X174879500Y-70701282D01*
X174879632Y-70695556D01*
X174879662Y-70694897D01*
X174883173Y-70618963D01*
X174872576Y-70542997D01*
X174871919Y-70537326D01*
X174868942Y-70505201D01*
X174864845Y-70460982D01*
X174859924Y-70443689D01*
X174856381Y-70426887D01*
X174853896Y-70409076D01*
X174853896Y-70409073D01*
X174829521Y-70336352D01*
X174827827Y-70330879D01*
X174806850Y-70257150D01*
X174798835Y-70241054D01*
X174792264Y-70225191D01*
X174786549Y-70208139D01*
X174786549Y-70208138D01*
X174749228Y-70141137D01*
X174746562Y-70136077D01*
X174712389Y-70067445D01*
X174701553Y-70053097D01*
X174692178Y-70038709D01*
X174683429Y-70023002D01*
X174634437Y-69964003D01*
X174630881Y-69959513D01*
X174584676Y-69898327D01*
X174528010Y-69846670D01*
X174523867Y-69842714D01*
X174023153Y-69342000D01*
X175532807Y-69342000D01*
X175551558Y-69616130D01*
X175552419Y-69620277D01*
X175552421Y-69620286D01*
X175606598Y-69880996D01*
X175607462Y-69885153D01*
X175608880Y-69889144D01*
X175608883Y-69889153D01*
X175697555Y-70138651D01*
X175699477Y-70144058D01*
X175701424Y-70147816D01*
X175701426Y-70147820D01*
X175758076Y-70257150D01*
X175825889Y-70388023D01*
X175828335Y-70391488D01*
X175981898Y-70609039D01*
X175981902Y-70609044D01*
X175984343Y-70612502D01*
X175987231Y-70615594D01*
X176103244Y-70739814D01*
X176171889Y-70813314D01*
X176385031Y-70986718D01*
X176619800Y-71129484D01*
X176871823Y-71238953D01*
X177075816Y-71296109D01*
X177132324Y-71311942D01*
X177132326Y-71311942D01*
X177136404Y-71313085D01*
X177408615Y-71350500D01*
X177412852Y-71350500D01*
X177679148Y-71350500D01*
X177683385Y-71350500D01*
X177955596Y-71313085D01*
X178220177Y-71238953D01*
X178472200Y-71129484D01*
X178706969Y-70986718D01*
X178920111Y-70813314D01*
X179107657Y-70612502D01*
X179266111Y-70388023D01*
X179392523Y-70144058D01*
X179484538Y-69885153D01*
X179540442Y-69616130D01*
X179559193Y-69342000D01*
X179540442Y-69067870D01*
X179484538Y-68798847D01*
X179392523Y-68539942D01*
X179266111Y-68295977D01*
X179107657Y-68071498D01*
X178920111Y-67870686D01*
X178916829Y-67868016D01*
X178916826Y-67868013D01*
X178790160Y-67764963D01*
X178706969Y-67697282D01*
X178703345Y-67695078D01*
X178703342Y-67695076D01*
X178475818Y-67556716D01*
X178475816Y-67556715D01*
X178472200Y-67554516D01*
X178450707Y-67545180D01*
X178224058Y-67446732D01*
X178224048Y-67446728D01*
X178220177Y-67445047D01*
X178216105Y-67443906D01*
X177959675Y-67372057D01*
X177959662Y-67372054D01*
X177955596Y-67370915D01*
X177951406Y-67370339D01*
X177951396Y-67370337D01*
X177687582Y-67334076D01*
X177687569Y-67334075D01*
X177683385Y-67333500D01*
X177408615Y-67333500D01*
X177404431Y-67334075D01*
X177404417Y-67334076D01*
X177140603Y-67370337D01*
X177140590Y-67370339D01*
X177136404Y-67370915D01*
X177132340Y-67372053D01*
X177132324Y-67372057D01*
X176875894Y-67443906D01*
X176875889Y-67443907D01*
X176871823Y-67445047D01*
X176867956Y-67446726D01*
X176867941Y-67446732D01*
X176623683Y-67552829D01*
X176623678Y-67552831D01*
X176619800Y-67554516D01*
X176616189Y-67556711D01*
X176616181Y-67556716D01*
X176388657Y-67695076D01*
X176388646Y-67695083D01*
X176385031Y-67697282D01*
X176381741Y-67699958D01*
X176381739Y-67699960D01*
X176175173Y-67868013D01*
X176175162Y-67868022D01*
X176171889Y-67870686D01*
X176169010Y-67873768D01*
X176169001Y-67873777D01*
X175987231Y-68068405D01*
X175987226Y-68068410D01*
X175984343Y-68071498D01*
X175981907Y-68074948D01*
X175981898Y-68074960D01*
X175828335Y-68292511D01*
X175828331Y-68292516D01*
X175825889Y-68295977D01*
X175823943Y-68299731D01*
X175823939Y-68299739D01*
X175701426Y-68536179D01*
X175701421Y-68536188D01*
X175699477Y-68539942D01*
X175698060Y-68543927D01*
X175698056Y-68543938D01*
X175608883Y-68794846D01*
X175608879Y-68794858D01*
X175607462Y-68798847D01*
X175606599Y-68802997D01*
X175606598Y-68803003D01*
X175552421Y-69063713D01*
X175552419Y-69063724D01*
X175551558Y-69067870D01*
X175551269Y-69072094D01*
X175551268Y-69072102D01*
X175536295Y-69291000D01*
X175532807Y-69342000D01*
X174023153Y-69342000D01*
X165218334Y-60537181D01*
X165184849Y-60475858D01*
X165189833Y-60406166D01*
X165231705Y-60350233D01*
X165297169Y-60325816D01*
X165306015Y-60325500D01*
X175830444Y-60325500D01*
X175897483Y-60345185D01*
X175931747Y-60377990D01*
X175984343Y-60452502D01*
X175987223Y-60455586D01*
X175987229Y-60455593D01*
X176154001Y-60634161D01*
X176171889Y-60653314D01*
X176175170Y-60655983D01*
X176175173Y-60655986D01*
X176185437Y-60664336D01*
X176385031Y-60826718D01*
X176619800Y-60969484D01*
X176757034Y-61029093D01*
X176858603Y-61073211D01*
X176871823Y-61078953D01*
X177080825Y-61137512D01*
X177132324Y-61151942D01*
X177132326Y-61151942D01*
X177136404Y-61153085D01*
X177408615Y-61190500D01*
X177412852Y-61190500D01*
X177679148Y-61190500D01*
X177683385Y-61190500D01*
X177955596Y-61153085D01*
X178220177Y-61078953D01*
X178472200Y-60969484D01*
X178706969Y-60826718D01*
X178920111Y-60653314D01*
X179107657Y-60452502D01*
X179266111Y-60228023D01*
X179392523Y-59984058D01*
X179484538Y-59725153D01*
X179540442Y-59456130D01*
X179559193Y-59182000D01*
X179540442Y-58907870D01*
X179484538Y-58638847D01*
X179392523Y-58379942D01*
X179266111Y-58135977D01*
X179107657Y-57911498D01*
X178920111Y-57710686D01*
X178916829Y-57708016D01*
X178916826Y-57708013D01*
X178825515Y-57633726D01*
X178706969Y-57537282D01*
X178703345Y-57535078D01*
X178703342Y-57535076D01*
X178475818Y-57396716D01*
X178475816Y-57396715D01*
X178472200Y-57394516D01*
X178450707Y-57385180D01*
X178224058Y-57286732D01*
X178224048Y-57286728D01*
X178220177Y-57285047D01*
X178216105Y-57283906D01*
X177959675Y-57212057D01*
X177959662Y-57212054D01*
X177955596Y-57210915D01*
X177951406Y-57210339D01*
X177951396Y-57210337D01*
X177687582Y-57174076D01*
X177687569Y-57174075D01*
X177683385Y-57173500D01*
X177408615Y-57173500D01*
X177404431Y-57174075D01*
X177404417Y-57174076D01*
X177140603Y-57210337D01*
X177140590Y-57210339D01*
X177136404Y-57210915D01*
X177132340Y-57212053D01*
X177132324Y-57212057D01*
X176875894Y-57283906D01*
X176875889Y-57283907D01*
X176871823Y-57285047D01*
X176867956Y-57286726D01*
X176867941Y-57286732D01*
X176623683Y-57392829D01*
X176623678Y-57392831D01*
X176619800Y-57394516D01*
X176616189Y-57396711D01*
X176616181Y-57396716D01*
X176388657Y-57535076D01*
X176388646Y-57535083D01*
X176385031Y-57537282D01*
X176381741Y-57539958D01*
X176381739Y-57539960D01*
X176175173Y-57708013D01*
X176175162Y-57708022D01*
X176171889Y-57710686D01*
X176169010Y-57713768D01*
X176169001Y-57713777D01*
X175987229Y-57908406D01*
X175987217Y-57908420D01*
X175984343Y-57911498D01*
X175981906Y-57914949D01*
X175981903Y-57914954D01*
X175981899Y-57914960D01*
X175937101Y-57978426D01*
X175931749Y-57986008D01*
X175877007Y-58029426D01*
X175830444Y-58038500D01*
X163961556Y-58038500D01*
X163894517Y-58018815D01*
X163860251Y-57986008D01*
X163859304Y-57984666D01*
X163807657Y-57911498D01*
X163804774Y-57908412D01*
X163804770Y-57908406D01*
X163622998Y-57713777D01*
X163622996Y-57713775D01*
X163620111Y-57710686D01*
X163616829Y-57708016D01*
X163616826Y-57708013D01*
X163525515Y-57633726D01*
X163406969Y-57537282D01*
X163403345Y-57535078D01*
X163403342Y-57535076D01*
X163175818Y-57396716D01*
X163175816Y-57396715D01*
X163172200Y-57394516D01*
X163150707Y-57385180D01*
X162924058Y-57286732D01*
X162924048Y-57286728D01*
X162920177Y-57285047D01*
X162916105Y-57283906D01*
X162659675Y-57212057D01*
X162659662Y-57212054D01*
X162655596Y-57210915D01*
X162651406Y-57210339D01*
X162651396Y-57210337D01*
X162387582Y-57174076D01*
X162387569Y-57174075D01*
X162383385Y-57173500D01*
X162108615Y-57173500D01*
X162104431Y-57174075D01*
X162104417Y-57174076D01*
X161840603Y-57210337D01*
X161840590Y-57210339D01*
X161836404Y-57210915D01*
X161832340Y-57212053D01*
X161832324Y-57212057D01*
X161575894Y-57283906D01*
X161575889Y-57283907D01*
X161571823Y-57285047D01*
X161567956Y-57286726D01*
X161567941Y-57286732D01*
X161323683Y-57392829D01*
X161323678Y-57392831D01*
X161319800Y-57394516D01*
X161316189Y-57396711D01*
X161316181Y-57396716D01*
X161088657Y-57535076D01*
X161088646Y-57535083D01*
X161085031Y-57537282D01*
X161081741Y-57539958D01*
X161081739Y-57539960D01*
X160875173Y-57708013D01*
X160875162Y-57708022D01*
X160871889Y-57710686D01*
X160869010Y-57713768D01*
X160869001Y-57713777D01*
X160687231Y-57908405D01*
X160687226Y-57908410D01*
X160684343Y-57911498D01*
X160681907Y-57914948D01*
X160681898Y-57914960D01*
X160528335Y-58132511D01*
X160528331Y-58132516D01*
X160525889Y-58135977D01*
X160523943Y-58139731D01*
X160523939Y-58139739D01*
X160401426Y-58376179D01*
X160401421Y-58376188D01*
X160399477Y-58379942D01*
X160398060Y-58383927D01*
X160398056Y-58383938D01*
X160308883Y-58634846D01*
X160308879Y-58634858D01*
X160307462Y-58638847D01*
X160306599Y-58642997D01*
X160306598Y-58643003D01*
X160252421Y-58903713D01*
X160252419Y-58903724D01*
X160251558Y-58907870D01*
X160251269Y-58912094D01*
X160251268Y-58912102D01*
X160236295Y-59131000D01*
X160232807Y-59182000D01*
X160233096Y-59186225D01*
X160248353Y-59409286D01*
X160251558Y-59456130D01*
X160252422Y-59460286D01*
X160264747Y-59519597D01*
X160259113Y-59589239D01*
X160216722Y-59644780D01*
X160151033Y-59668586D01*
X160082902Y-59653099D01*
X160055659Y-59632506D01*
X158817283Y-58394130D01*
X158813349Y-58390011D01*
X158761671Y-58333323D01*
X158700484Y-58287116D01*
X158695996Y-58283561D01*
X158637003Y-58234574D01*
X158626701Y-58228836D01*
X158621289Y-58225821D01*
X158606909Y-58216451D01*
X158592555Y-58205611D01*
X158523927Y-58171439D01*
X158518861Y-58168769D01*
X158451861Y-58131450D01*
X158434803Y-58125733D01*
X158418942Y-58119163D01*
X158402846Y-58111148D01*
X158329125Y-58090173D01*
X158323653Y-58088479D01*
X158250925Y-58064103D01*
X158233100Y-58061616D01*
X158216305Y-58058073D01*
X158199018Y-58053154D01*
X158122660Y-58046078D01*
X158116974Y-58045418D01*
X158041039Y-58034827D01*
X158041037Y-58034827D01*
X157971289Y-58038051D01*
X157964444Y-58038368D01*
X157958718Y-58038500D01*
X154997554Y-58038500D01*
X154930515Y-58018815D01*
X154898287Y-57988811D01*
X154883260Y-57968737D01*
X154766203Y-57881110D01*
X154629205Y-57830011D01*
X154571924Y-57823853D01*
X154571918Y-57823852D01*
X154568638Y-57823500D01*
X152771362Y-57823500D01*
X152768082Y-57823852D01*
X152768075Y-57823853D01*
X152710794Y-57830011D01*
X152573796Y-57881110D01*
X152456739Y-57968737D01*
X152441713Y-57988811D01*
X152385779Y-58030682D01*
X152342446Y-58038500D01*
X148139554Y-58038500D01*
X148072515Y-58018815D01*
X148040287Y-57988811D01*
X148025260Y-57968737D01*
X147908203Y-57881110D01*
X147771205Y-57830011D01*
X147713924Y-57823853D01*
X147713918Y-57823852D01*
X147710638Y-57823500D01*
X145913362Y-57823500D01*
X145910082Y-57823852D01*
X145910075Y-57823853D01*
X145852794Y-57830011D01*
X145715796Y-57881110D01*
X145598739Y-57968737D01*
X145583713Y-57988811D01*
X145527779Y-58030682D01*
X145484446Y-58038500D01*
X143019016Y-58038500D01*
X142951977Y-58018815D01*
X142931335Y-58002181D01*
X142586167Y-57657013D01*
X142058278Y-57129124D01*
X142024794Y-57067803D01*
X142029778Y-56998112D01*
X142071650Y-56942178D01*
X142135154Y-56917917D01*
X142212602Y-56911141D01*
X142432326Y-56852266D01*
X142638480Y-56756134D01*
X142711472Y-56705025D01*
X142030400Y-56023953D01*
X142111148Y-56011165D01*
X142224045Y-55953641D01*
X142313641Y-55864045D01*
X142371165Y-55751148D01*
X142383953Y-55670400D01*
X143065025Y-56351472D01*
X143116134Y-56278480D01*
X143212266Y-56072326D01*
X143271141Y-55852602D01*
X143290966Y-55626000D01*
X143271141Y-55399397D01*
X143212266Y-55179673D01*
X143116133Y-54973515D01*
X143065025Y-54900526D01*
X142383953Y-55581598D01*
X142371165Y-55500852D01*
X142313641Y-55387955D01*
X142224045Y-55298359D01*
X142111148Y-55240835D01*
X142030400Y-55228046D01*
X142711472Y-54546974D01*
X142711471Y-54546972D01*
X142638484Y-54495866D01*
X142432326Y-54399733D01*
X142212602Y-54340858D01*
X141986000Y-54321033D01*
X141759397Y-54340858D01*
X141539672Y-54399733D01*
X141333516Y-54495865D01*
X141260527Y-54546973D01*
X141260526Y-54546973D01*
X141941600Y-55228046D01*
X141860852Y-55240835D01*
X141747955Y-55298359D01*
X141658359Y-55387955D01*
X141600835Y-55500852D01*
X141588046Y-55581599D01*
X140906973Y-54900527D01*
X140855865Y-54973516D01*
X140759733Y-55179672D01*
X140700858Y-55399397D01*
X140694082Y-55476847D01*
X140668629Y-55541915D01*
X140612038Y-55582894D01*
X140542276Y-55586772D01*
X140482873Y-55553720D01*
X140220072Y-55290919D01*
X140187978Y-55235330D01*
X140173065Y-55179672D01*
X140172284Y-55176757D01*
X140075523Y-54969251D01*
X139944198Y-54781700D01*
X139782300Y-54619802D01*
X139594749Y-54488477D01*
X139594746Y-54488476D01*
X139594744Y-54488474D01*
X139387246Y-54391717D01*
X139387243Y-54391716D01*
X139197440Y-54340858D01*
X139166084Y-54332456D01*
X138938000Y-54312501D01*
X138709915Y-54332456D01*
X138488753Y-54391717D01*
X138281255Y-54488474D01*
X138093696Y-54619805D01*
X137931805Y-54781696D01*
X137931802Y-54781699D01*
X137931802Y-54781700D01*
X137848599Y-54900527D01*
X137800476Y-54969253D01*
X137703714Y-55176759D01*
X137688019Y-55235333D01*
X137655926Y-55290919D01*
X134995666Y-57951181D01*
X134934343Y-57984666D01*
X134907985Y-57987500D01*
X133413556Y-57987500D01*
X133346517Y-57967815D01*
X133312251Y-57935008D01*
X133298100Y-57914960D01*
X133259657Y-57860498D01*
X133256774Y-57857412D01*
X133256770Y-57857406D01*
X133074998Y-57662777D01*
X133074996Y-57662775D01*
X133072111Y-57659686D01*
X133068829Y-57657016D01*
X133068826Y-57657013D01*
X132921656Y-57537282D01*
X132858969Y-57486282D01*
X132855345Y-57484078D01*
X132855342Y-57484076D01*
X132627818Y-57345716D01*
X132627816Y-57345715D01*
X132624200Y-57343516D01*
X132595003Y-57330834D01*
X132376058Y-57235732D01*
X132376048Y-57235728D01*
X132372177Y-57234047D01*
X132368105Y-57232906D01*
X132111675Y-57161057D01*
X132111662Y-57161054D01*
X132107596Y-57159915D01*
X132103406Y-57159339D01*
X132103396Y-57159337D01*
X131839582Y-57123076D01*
X131839569Y-57123075D01*
X131835385Y-57122500D01*
X131560615Y-57122500D01*
X131556431Y-57123075D01*
X131556417Y-57123076D01*
X131292603Y-57159337D01*
X131292590Y-57159339D01*
X131288404Y-57159915D01*
X131284340Y-57161053D01*
X131284324Y-57161057D01*
X131027894Y-57232906D01*
X131027889Y-57232907D01*
X131023823Y-57234047D01*
X131019956Y-57235726D01*
X131019941Y-57235732D01*
X130775683Y-57341829D01*
X130775678Y-57341831D01*
X130771800Y-57343516D01*
X130768189Y-57345711D01*
X130768181Y-57345716D01*
X130540657Y-57484076D01*
X130540646Y-57484083D01*
X130537031Y-57486282D01*
X130533741Y-57488958D01*
X130533739Y-57488960D01*
X130327173Y-57657013D01*
X130327162Y-57657022D01*
X130323889Y-57659686D01*
X130321010Y-57662768D01*
X130321001Y-57662777D01*
X130139229Y-57857406D01*
X130139217Y-57857420D01*
X130136343Y-57860498D01*
X130133906Y-57863949D01*
X130133903Y-57863954D01*
X130083749Y-57935008D01*
X130029007Y-57978426D01*
X129982444Y-57987500D01*
X118113556Y-57987500D01*
X118046517Y-57967815D01*
X118012251Y-57935008D01*
X117998100Y-57914960D01*
X117959657Y-57860498D01*
X117956774Y-57857412D01*
X117956770Y-57857406D01*
X117774998Y-57662777D01*
X117774996Y-57662775D01*
X117772111Y-57659686D01*
X117768829Y-57657016D01*
X117768826Y-57657013D01*
X117621656Y-57537282D01*
X117558969Y-57486282D01*
X117555345Y-57484078D01*
X117555342Y-57484076D01*
X117327818Y-57345716D01*
X117327816Y-57345715D01*
X117324200Y-57343516D01*
X117295003Y-57330834D01*
X117076058Y-57235732D01*
X117076048Y-57235728D01*
X117072177Y-57234047D01*
X117068105Y-57232906D01*
X116811675Y-57161057D01*
X116811662Y-57161054D01*
X116807596Y-57159915D01*
X116803406Y-57159339D01*
X116803396Y-57159337D01*
X116539582Y-57123076D01*
X116539569Y-57123075D01*
X116535385Y-57122500D01*
X116260615Y-57122500D01*
X116256431Y-57123075D01*
X116256417Y-57123076D01*
X115992603Y-57159337D01*
X115992590Y-57159339D01*
X115988404Y-57159915D01*
X115984340Y-57161053D01*
X115984324Y-57161057D01*
X115727894Y-57232906D01*
X115727889Y-57232907D01*
X115723823Y-57234047D01*
X115719956Y-57235726D01*
X115719941Y-57235732D01*
X115475683Y-57341829D01*
X115475678Y-57341831D01*
X115471800Y-57343516D01*
X115468189Y-57345711D01*
X115468181Y-57345716D01*
X115240657Y-57484076D01*
X115240646Y-57484083D01*
X115237031Y-57486282D01*
X115233741Y-57488958D01*
X115233739Y-57488960D01*
X115027173Y-57657013D01*
X115027162Y-57657022D01*
X115023889Y-57659686D01*
X115021010Y-57662768D01*
X115021001Y-57662777D01*
X114839231Y-57857405D01*
X114839226Y-57857410D01*
X114836343Y-57860498D01*
X114833907Y-57863948D01*
X114833898Y-57863960D01*
X114680335Y-58081511D01*
X114680331Y-58081516D01*
X114677889Y-58084977D01*
X114675943Y-58088731D01*
X114675939Y-58088739D01*
X114553426Y-58325179D01*
X114553421Y-58325188D01*
X114551477Y-58328942D01*
X114550060Y-58332927D01*
X114550056Y-58332938D01*
X114460883Y-58583846D01*
X114460879Y-58583858D01*
X114459462Y-58587847D01*
X114458599Y-58591997D01*
X114458598Y-58592003D01*
X114404421Y-58852713D01*
X114404419Y-58852724D01*
X114403558Y-58856870D01*
X114403269Y-58861094D01*
X114403268Y-58861102D01*
X114399780Y-58912102D01*
X114384807Y-59131000D01*
X114403558Y-59405130D01*
X114404419Y-59409277D01*
X114404421Y-59409286D01*
X114458305Y-59668586D01*
X114459462Y-59674153D01*
X114460880Y-59678144D01*
X114460883Y-59678153D01*
X114550056Y-59929061D01*
X114551477Y-59933058D01*
X114553424Y-59936816D01*
X114553426Y-59936820D01*
X114668234Y-60158390D01*
X114677889Y-60177023D01*
X114680335Y-60180488D01*
X114833898Y-60398039D01*
X114833902Y-60398044D01*
X114836343Y-60401502D01*
X114839230Y-60404593D01*
X114839231Y-60404594D01*
X115008725Y-60586078D01*
X115023889Y-60602314D01*
X115237031Y-60775718D01*
X115471800Y-60918484D01*
X115723823Y-61027953D01*
X115932825Y-61086512D01*
X115984324Y-61100942D01*
X115984326Y-61100942D01*
X115988404Y-61102085D01*
X116260615Y-61139500D01*
X116264852Y-61139500D01*
X116531148Y-61139500D01*
X116535385Y-61139500D01*
X116807596Y-61102085D01*
X117072177Y-61027953D01*
X117324200Y-60918484D01*
X117558969Y-60775718D01*
X117772111Y-60602314D01*
X117959657Y-60401502D01*
X118012251Y-60326991D01*
X118066993Y-60283574D01*
X118113556Y-60274500D01*
X129982444Y-60274500D01*
X130049483Y-60294185D01*
X130083747Y-60326990D01*
X130136343Y-60401502D01*
X130139223Y-60404586D01*
X130139229Y-60404593D01*
X130315334Y-60593154D01*
X130323889Y-60602314D01*
X130537031Y-60775718D01*
X130771800Y-60918484D01*
X131023823Y-61027953D01*
X131232825Y-61086512D01*
X131284324Y-61100942D01*
X131284326Y-61100942D01*
X131288404Y-61102085D01*
X131560615Y-61139500D01*
X131564852Y-61139500D01*
X131831148Y-61139500D01*
X131835385Y-61139500D01*
X132107596Y-61102085D01*
X132372177Y-61027953D01*
X132624200Y-60918484D01*
X132858969Y-60775718D01*
X133072111Y-60602314D01*
X133259657Y-60401502D01*
X133312251Y-60326991D01*
X133366993Y-60283574D01*
X133413556Y-60274500D01*
X134165500Y-60274500D01*
X134232539Y-60294185D01*
X134278294Y-60346989D01*
X134289500Y-60398500D01*
X134289500Y-73681717D01*
X134289368Y-73687443D01*
X134285827Y-73764039D01*
X134296418Y-73839974D01*
X134297078Y-73845660D01*
X134304154Y-73922018D01*
X134309073Y-73939305D01*
X134312616Y-73956100D01*
X134315103Y-73973925D01*
X134339479Y-74046653D01*
X134341173Y-74052125D01*
X134362148Y-74125846D01*
X134370163Y-74141942D01*
X134376733Y-74157803D01*
X134382450Y-74174861D01*
X134419769Y-74241861D01*
X134422439Y-74246927D01*
X134456611Y-74315555D01*
X134467451Y-74329909D01*
X134476824Y-74344293D01*
X134485574Y-74360003D01*
X134534561Y-74418996D01*
X134538116Y-74423484D01*
X134584323Y-74484671D01*
X134641011Y-74536349D01*
X134645130Y-74540283D01*
X140337181Y-80232334D01*
X140370666Y-80293657D01*
X140373500Y-80320015D01*
X140373500Y-80908638D01*
X140373852Y-80911918D01*
X140373853Y-80911924D01*
X140380011Y-80969205D01*
X140431110Y-81106203D01*
X140518738Y-81223261D01*
X140618204Y-81297720D01*
X140635796Y-81310889D01*
X140753596Y-81354826D01*
X140809527Y-81396697D01*
X140833944Y-81462161D01*
X140819092Y-81530434D01*
X140801490Y-81554990D01*
X140656279Y-81712730D01*
X140533138Y-81901211D01*
X140442703Y-82107385D01*
X140412168Y-82227962D01*
X140379644Y-82285201D01*
X140075664Y-82589182D01*
X140014343Y-82622666D01*
X139987985Y-82625500D01*
X133287556Y-82625500D01*
X133220517Y-82605815D01*
X133186251Y-82573008D01*
X133170705Y-82550984D01*
X133133657Y-82498498D01*
X133130774Y-82495412D01*
X133130770Y-82495406D01*
X132948998Y-82300777D01*
X132948996Y-82300775D01*
X132946111Y-82297686D01*
X132942829Y-82295016D01*
X132942826Y-82295013D01*
X132851515Y-82220726D01*
X132732969Y-82124282D01*
X132729345Y-82122078D01*
X132729342Y-82122076D01*
X132501818Y-81983716D01*
X132501816Y-81983715D01*
X132498200Y-81981516D01*
X132476707Y-81972180D01*
X132250058Y-81873732D01*
X132250048Y-81873728D01*
X132246177Y-81872047D01*
X132242105Y-81870906D01*
X131985675Y-81799057D01*
X131985662Y-81799054D01*
X131981596Y-81797915D01*
X131977406Y-81797339D01*
X131977396Y-81797337D01*
X131713582Y-81761076D01*
X131713569Y-81761075D01*
X131709385Y-81760500D01*
X131434615Y-81760500D01*
X131430431Y-81761075D01*
X131430417Y-81761076D01*
X131166603Y-81797337D01*
X131166590Y-81797339D01*
X131162404Y-81797915D01*
X131158340Y-81799053D01*
X131158324Y-81799057D01*
X130901894Y-81870906D01*
X130901889Y-81870907D01*
X130897823Y-81872047D01*
X130893956Y-81873726D01*
X130893941Y-81873732D01*
X130649683Y-81979829D01*
X130649678Y-81979831D01*
X130645800Y-81981516D01*
X130642189Y-81983711D01*
X130642181Y-81983716D01*
X130414657Y-82122076D01*
X130414646Y-82122083D01*
X130411031Y-82124282D01*
X130407741Y-82126958D01*
X130407739Y-82126960D01*
X130201173Y-82295013D01*
X130201162Y-82295022D01*
X130197889Y-82297686D01*
X130195010Y-82300768D01*
X130195001Y-82300777D01*
X130013229Y-82495406D01*
X130013217Y-82495420D01*
X130010343Y-82498498D01*
X130007906Y-82501949D01*
X130007903Y-82501954D01*
X129957749Y-82573008D01*
X129903007Y-82616426D01*
X129856444Y-82625500D01*
X117987556Y-82625500D01*
X117920517Y-82605815D01*
X117886251Y-82573008D01*
X117870705Y-82550984D01*
X117833657Y-82498498D01*
X117830774Y-82495412D01*
X117830770Y-82495406D01*
X117648998Y-82300777D01*
X117648996Y-82300775D01*
X117646111Y-82297686D01*
X117642829Y-82295016D01*
X117642826Y-82295013D01*
X117551515Y-82220726D01*
X117432969Y-82124282D01*
X117429345Y-82122078D01*
X117429342Y-82122076D01*
X117201818Y-81983716D01*
X117201816Y-81983715D01*
X117198200Y-81981516D01*
X117176707Y-81972180D01*
X116950058Y-81873732D01*
X116950048Y-81873728D01*
X116946177Y-81872047D01*
X116942105Y-81870906D01*
X116685675Y-81799057D01*
X116685662Y-81799054D01*
X116681596Y-81797915D01*
X116677406Y-81797339D01*
X116677396Y-81797337D01*
X116413582Y-81761076D01*
X116413569Y-81761075D01*
X116409385Y-81760500D01*
X116134615Y-81760500D01*
X116130431Y-81761075D01*
X116130417Y-81761076D01*
X115866603Y-81797337D01*
X115866590Y-81797339D01*
X115862404Y-81797915D01*
X115858340Y-81799053D01*
X115858324Y-81799057D01*
X115601894Y-81870906D01*
X115601889Y-81870907D01*
X115597823Y-81872047D01*
X115593956Y-81873726D01*
X115593941Y-81873732D01*
X115349683Y-81979829D01*
X115349678Y-81979831D01*
X115345800Y-81981516D01*
X115342189Y-81983711D01*
X115342181Y-81983716D01*
X115114657Y-82122076D01*
X115114646Y-82122083D01*
X115111031Y-82124282D01*
X115107741Y-82126958D01*
X115107739Y-82126960D01*
X114901173Y-82295013D01*
X114901162Y-82295022D01*
X114897889Y-82297686D01*
X114895010Y-82300768D01*
X114895001Y-82300777D01*
X114713231Y-82495405D01*
X114713226Y-82495410D01*
X114710343Y-82498498D01*
X114707907Y-82501948D01*
X114707898Y-82501960D01*
X114554335Y-82719511D01*
X114554331Y-82719516D01*
X114551889Y-82722977D01*
X114549943Y-82726731D01*
X114549939Y-82726739D01*
X114427426Y-82963179D01*
X114427421Y-82963188D01*
X114425477Y-82966942D01*
X114424060Y-82970927D01*
X114424056Y-82970938D01*
X114334883Y-83221846D01*
X114334879Y-83221858D01*
X114333462Y-83225847D01*
X114332599Y-83229997D01*
X114332598Y-83230003D01*
X114278421Y-83490713D01*
X114278419Y-83490724D01*
X114277558Y-83494870D01*
X114277269Y-83499094D01*
X114277268Y-83499102D01*
X114270920Y-83591913D01*
X114258807Y-83769000D01*
X112568500Y-83769000D01*
X112568500Y-69291000D01*
X114392890Y-69291000D01*
X114413300Y-69576357D01*
X114474111Y-69855902D01*
X114574088Y-70123952D01*
X114711193Y-70375042D01*
X114817883Y-70517562D01*
X115536348Y-69799096D01*
X115603146Y-69906263D01*
X115743268Y-70053671D01*
X115888085Y-70154467D01*
X115171436Y-70871115D01*
X115313958Y-70977806D01*
X115565047Y-71114911D01*
X115833097Y-71214888D01*
X116112642Y-71275699D01*
X116397999Y-71296109D01*
X116683357Y-71275699D01*
X116962902Y-71214888D01*
X117230952Y-71114911D01*
X117482041Y-70977806D01*
X117624562Y-70871115D01*
X116906125Y-70152678D01*
X116972214Y-70115996D01*
X117126531Y-69983520D01*
X117251021Y-69822692D01*
X117261625Y-69801072D01*
X117978115Y-70517562D01*
X118084806Y-70375041D01*
X118221911Y-70123952D01*
X118321888Y-69855902D01*
X118382699Y-69576357D01*
X118403109Y-69291000D01*
X129692890Y-69291000D01*
X129713300Y-69576357D01*
X129774111Y-69855902D01*
X129874088Y-70123952D01*
X130011193Y-70375042D01*
X130117883Y-70517562D01*
X130836348Y-69799096D01*
X130903146Y-69906263D01*
X131043268Y-70053671D01*
X131188085Y-70154467D01*
X130471436Y-70871115D01*
X130613958Y-70977806D01*
X130865047Y-71114911D01*
X131133097Y-71214888D01*
X131412642Y-71275699D01*
X131698000Y-71296109D01*
X131983357Y-71275699D01*
X132262902Y-71214888D01*
X132530952Y-71114911D01*
X132782041Y-70977806D01*
X132924562Y-70871115D01*
X132206125Y-70152678D01*
X132272214Y-70115996D01*
X132426531Y-69983520D01*
X132551021Y-69822692D01*
X132561625Y-69801072D01*
X133278115Y-70517562D01*
X133384806Y-70375041D01*
X133521911Y-70123952D01*
X133621888Y-69855902D01*
X133682699Y-69576357D01*
X133703109Y-69290999D01*
X133682699Y-69005642D01*
X133621888Y-68726097D01*
X133521911Y-68458047D01*
X133384806Y-68206958D01*
X133278115Y-68064436D01*
X132559650Y-68782901D01*
X132492854Y-68675737D01*
X132352732Y-68528329D01*
X132207913Y-68427531D01*
X132924562Y-67710883D01*
X132782042Y-67604193D01*
X132530952Y-67467088D01*
X132262902Y-67367111D01*
X131983357Y-67306300D01*
X131698000Y-67285890D01*
X131412642Y-67306300D01*
X131133097Y-67367111D01*
X130865047Y-67467088D01*
X130613954Y-67604195D01*
X130471437Y-67710882D01*
X130471436Y-67710883D01*
X131189874Y-68429321D01*
X131123786Y-68466004D01*
X130969469Y-68598480D01*
X130844979Y-68759308D01*
X130834374Y-68780927D01*
X130117883Y-68064436D01*
X130117882Y-68064437D01*
X130011195Y-68206954D01*
X129874088Y-68458047D01*
X129774111Y-68726097D01*
X129713300Y-69005642D01*
X129692890Y-69291000D01*
X118403109Y-69291000D01*
X118403109Y-69290999D01*
X118382699Y-69005642D01*
X118321888Y-68726097D01*
X118221911Y-68458047D01*
X118084806Y-68206958D01*
X117978115Y-68064436D01*
X117259650Y-68782901D01*
X117192854Y-68675737D01*
X117052732Y-68528329D01*
X116907913Y-68427532D01*
X117624562Y-67710883D01*
X117482042Y-67604193D01*
X117230952Y-67467088D01*
X116962902Y-67367111D01*
X116683357Y-67306300D01*
X116398000Y-67285890D01*
X116112642Y-67306300D01*
X115833097Y-67367111D01*
X115565047Y-67467088D01*
X115313954Y-67604195D01*
X115171437Y-67710882D01*
X115171436Y-67710883D01*
X115889874Y-68429321D01*
X115823786Y-68466004D01*
X115669469Y-68598480D01*
X115544979Y-68759308D01*
X115534374Y-68780927D01*
X114817883Y-68064436D01*
X114817882Y-68064437D01*
X114711195Y-68206954D01*
X114574088Y-68458047D01*
X114474111Y-68726097D01*
X114413300Y-69005642D01*
X114392890Y-69291000D01*
X112568500Y-69291000D01*
X112568500Y-53764500D01*
X112588185Y-53697461D01*
X112640989Y-53651706D01*
X112692500Y-53640500D01*
X181185500Y-53640500D01*
X181252539Y-53660185D01*
G37*
%TD.AperFunction*%
%TD*%
M02*
