%TF.GenerationSoftware,KiCad,Pcbnew,7.0.2-0*%
%TF.CreationDate,2023-07-09T16:01:25+01:00*%
%TF.ProjectId,jfet-matcher,6a666574-2d6d-4617-9463-6865722e6b69,rev?*%
%TF.SameCoordinates,Original*%
%TF.FileFunction,Copper,L2,Bot*%
%TF.FilePolarity,Positive*%
%FSLAX46Y46*%
G04 Gerber Fmt 4.6, Leading zero omitted, Abs format (unit mm)*
G04 Created by KiCad (PCBNEW 7.0.2-0) date 2023-07-09 16:01:25*
%MOMM*%
%LPD*%
G01*
G04 APERTURE LIST*
%TA.AperFunction,ComponentPad*%
%ADD10C,3.000000*%
%TD*%
%TA.AperFunction,ComponentPad*%
%ADD11C,1.600000*%
%TD*%
%TA.AperFunction,ComponentPad*%
%ADD12O,1.600000X1.600000*%
%TD*%
%TA.AperFunction,ComponentPad*%
%ADD13R,1.700000X1.700000*%
%TD*%
%TA.AperFunction,ComponentPad*%
%ADD14O,1.700000X1.700000*%
%TD*%
%TA.AperFunction,ComponentPad*%
%ADD15R,1.600000X1.600000*%
%TD*%
%TA.AperFunction,Conductor*%
%ADD16C,1.270000*%
%TD*%
G04 APERTURE END LIST*
D10*
%TO.P,J4,1*%
%TO.N,/VREF*%
X162246000Y-69342000D03*
X177546000Y-69342000D03*
%TD*%
%TO.P,J3,1*%
%TO.N,Net-(J6-Pin_3)*%
X162246000Y-59182000D03*
X177546000Y-59182000D03*
%TD*%
D11*
%TO.P,R3,1*%
%TO.N,GND*%
X156464000Y-85090000D03*
D12*
%TO.P,R3,2*%
%TO.N,Net-(J8-Pin_2)*%
X146304000Y-85090000D03*
%TD*%
D13*
%TO.P,J5,1,Pin_1*%
%TO.N,Net-(J5-Pin_1)*%
X152400000Y-72898000D03*
D14*
%TO.P,J5,2,Pin_2*%
%TO.N,GND*%
X152400000Y-75438000D03*
%TD*%
D13*
%TO.P,J8,1,Pin_1*%
%TO.N,VCC*%
X141732000Y-80010000D03*
D14*
%TO.P,J8,2,Pin_2*%
%TO.N,Net-(J8-Pin_2)*%
X141732000Y-82550000D03*
%TO.P,J8,3,Pin_3*%
X141732000Y-85090000D03*
%TD*%
D13*
%TO.P,J7,1,Pin_1*%
%TO.N,VCC*%
X146812000Y-59182000D03*
D14*
%TO.P,J7,2,Pin_2*%
%TO.N,Net-(J6-Pin_3)*%
X146812000Y-61722000D03*
%TO.P,J7,3,Pin_3*%
%TO.N,Net-(J5-Pin_1)*%
X146812000Y-64262000D03*
%TD*%
D10*
%TO.P,J1,1*%
%TO.N,VCC*%
X131698000Y-59131000D03*
X116398000Y-59131000D03*
%TD*%
D11*
%TO.P,R1,1*%
%TO.N,/VREF*%
X138938000Y-65786000D03*
D12*
%TO.P,R1,2*%
%TO.N,VCC*%
X138938000Y-55626000D03*
%TD*%
D10*
%TO.P,J9,1*%
%TO.N,Net-(J8-Pin_2)*%
X131572000Y-83769000D03*
X116272000Y-83769000D03*
%TD*%
D15*
%TO.P,C1,1*%
%TO.N,/VREF*%
X140462000Y-69596000D03*
D11*
%TO.P,C1,2*%
%TO.N,GND*%
X140462000Y-71596000D03*
%TD*%
D10*
%TO.P,J2,1*%
%TO.N,GND*%
X131698000Y-69291000D03*
X116398000Y-69291000D03*
%TD*%
D11*
%TO.P,R2,1*%
%TO.N,GND*%
X141986000Y-55626000D03*
D12*
%TO.P,R2,2*%
%TO.N,/VREF*%
X141986000Y-65786000D03*
%TD*%
D15*
%TO.P,U1,1,NULL*%
%TO.N,unconnected-(U1-NULL-Pad1)*%
X161544000Y-78740000D03*
D12*
%TO.P,U1,2,-*%
%TO.N,Net-(J5-Pin_1)*%
X161544000Y-81280000D03*
%TO.P,U1,3,+*%
%TO.N,/VREF*%
X161544000Y-83820000D03*
%TO.P,U1,4,V-*%
%TO.N,GND*%
X161544000Y-86360000D03*
%TO.P,U1,5,NULL*%
%TO.N,unconnected-(U1-NULL-Pad5)*%
X169164000Y-86360000D03*
%TO.P,U1,6*%
%TO.N,Net-(J6-Pin_3)*%
X169164000Y-83820000D03*
%TO.P,U1,7,V+*%
%TO.N,VCC*%
X169164000Y-81280000D03*
%TO.P,U1,8,NC*%
%TO.N,unconnected-(U1-NC-Pad8)*%
X169164000Y-78740000D03*
%TD*%
D13*
%TO.P,J6,1,Pin_1*%
%TO.N,VCC*%
X153670000Y-59182000D03*
D14*
%TO.P,J6,2,Pin_2*%
%TO.N,Net-(J5-Pin_1)*%
X153670000Y-61722000D03*
%TO.P,J6,3,Pin_3*%
%TO.N,Net-(J6-Pin_3)*%
X153670000Y-64262000D03*
%TD*%
D16*
%TO.N,/VREF*%
X165100000Y-69342000D02*
X177546000Y-69342000D01*
X164084000Y-70358000D02*
X165100000Y-69342000D01*
X162814000Y-83820000D02*
X164084000Y-82550000D01*
X164084000Y-82550000D02*
X164084000Y-70358000D01*
X161544000Y-83820000D02*
X162814000Y-83820000D01*
X162246000Y-69342000D02*
X165100000Y-69342000D01*
%TO.N,Net-(J6-Pin_3)*%
X153670000Y-64262000D02*
X157166000Y-64262000D01*
X157166000Y-64262000D02*
X162246000Y-59182000D01*
%TO.N,Net-(J5-Pin_1)*%
X158242000Y-81280000D02*
X161544000Y-81280000D01*
X146812000Y-64262000D02*
X146812000Y-70866000D01*
X148844000Y-64262000D02*
X151384000Y-61722000D01*
X146812000Y-64262000D02*
X148844000Y-64262000D01*
X152400000Y-72898000D02*
X154139000Y-74637000D01*
X148844000Y-72898000D02*
X152400000Y-72898000D01*
X151384000Y-61722000D02*
X153670000Y-61722000D01*
X146812000Y-70866000D02*
X148844000Y-72898000D01*
X154139000Y-77177000D02*
X158242000Y-81280000D01*
X154139000Y-74637000D02*
X154139000Y-77177000D01*
%TD*%
%TA.AperFunction,Conductor*%
%TO.N,GND*%
G36*
X181252539Y-53660185D02*
G01*
X181298294Y-53712989D01*
X181309500Y-53764500D01*
X181309500Y-88729500D01*
X181289815Y-88796539D01*
X181237011Y-88842294D01*
X181185500Y-88853500D01*
X112692500Y-88853500D01*
X112625461Y-88833815D01*
X112579706Y-88781011D01*
X112568500Y-88729500D01*
X112568500Y-83769000D01*
X114258807Y-83769000D01*
X114259096Y-83773225D01*
X114271862Y-83959866D01*
X114277558Y-84043130D01*
X114278419Y-84047277D01*
X114278421Y-84047286D01*
X114321114Y-84252732D01*
X114333462Y-84312153D01*
X114334880Y-84316144D01*
X114334883Y-84316153D01*
X114424056Y-84567061D01*
X114425477Y-84571058D01*
X114427424Y-84574816D01*
X114427426Y-84574820D01*
X114542235Y-84796391D01*
X114551889Y-84815023D01*
X114554335Y-84818488D01*
X114707898Y-85036039D01*
X114707902Y-85036044D01*
X114710343Y-85039502D01*
X114779493Y-85113543D01*
X114874385Y-85215148D01*
X114897889Y-85240314D01*
X115111031Y-85413718D01*
X115345800Y-85556484D01*
X115597823Y-85665953D01*
X115806825Y-85724512D01*
X115858324Y-85738942D01*
X115858326Y-85738942D01*
X115862404Y-85740085D01*
X116134615Y-85777500D01*
X116138852Y-85777500D01*
X116405148Y-85777500D01*
X116409385Y-85777500D01*
X116681596Y-85740085D01*
X116946177Y-85665953D01*
X117198200Y-85556484D01*
X117432969Y-85413718D01*
X117646111Y-85240314D01*
X117833657Y-85039502D01*
X117992111Y-84815023D01*
X118118523Y-84571058D01*
X118210538Y-84312153D01*
X118266442Y-84043130D01*
X118285193Y-83769000D01*
X129558807Y-83769000D01*
X129559096Y-83773225D01*
X129571862Y-83959866D01*
X129577558Y-84043130D01*
X129578419Y-84047277D01*
X129578421Y-84047286D01*
X129621114Y-84252732D01*
X129633462Y-84312153D01*
X129634880Y-84316144D01*
X129634883Y-84316153D01*
X129724056Y-84567061D01*
X129725477Y-84571058D01*
X129727424Y-84574816D01*
X129727426Y-84574820D01*
X129842235Y-84796391D01*
X129851889Y-84815023D01*
X129854335Y-84818488D01*
X130007898Y-85036039D01*
X130007902Y-85036044D01*
X130010343Y-85039502D01*
X130079493Y-85113543D01*
X130174385Y-85215148D01*
X130197889Y-85240314D01*
X130411031Y-85413718D01*
X130645800Y-85556484D01*
X130897823Y-85665953D01*
X131106825Y-85724512D01*
X131158324Y-85738942D01*
X131158326Y-85738942D01*
X131162404Y-85740085D01*
X131434615Y-85777500D01*
X131438852Y-85777500D01*
X131705148Y-85777500D01*
X131709385Y-85777500D01*
X131981596Y-85740085D01*
X132246177Y-85665953D01*
X132498200Y-85556484D01*
X132732969Y-85413718D01*
X132946111Y-85240314D01*
X133086495Y-85090000D01*
X140368843Y-85090000D01*
X140387435Y-85314363D01*
X140387435Y-85314366D01*
X140387436Y-85314368D01*
X140438420Y-85515700D01*
X140442705Y-85532618D01*
X140533138Y-85738788D01*
X140533140Y-85738791D01*
X140656278Y-85927268D01*
X140808760Y-86092906D01*
X140986424Y-86231189D01*
X141184426Y-86338342D01*
X141397365Y-86411444D01*
X141619431Y-86448500D01*
X141844569Y-86448500D01*
X142066635Y-86411444D01*
X142279574Y-86338342D01*
X142477576Y-86231189D01*
X142655240Y-86092906D01*
X142807722Y-85927268D01*
X142930860Y-85738791D01*
X143021296Y-85532616D01*
X143076564Y-85314368D01*
X143095156Y-85090000D01*
X143095156Y-85089999D01*
X144990501Y-85089999D01*
X145010456Y-85318084D01*
X145010457Y-85318087D01*
X145068934Y-85536326D01*
X145069717Y-85539246D01*
X145166474Y-85746744D01*
X145166476Y-85746746D01*
X145166477Y-85746749D01*
X145297802Y-85934300D01*
X145459700Y-86096198D01*
X145647251Y-86227523D01*
X145647254Y-86227524D01*
X145647255Y-86227525D01*
X145655113Y-86231189D01*
X145854757Y-86324284D01*
X146075913Y-86383543D01*
X146304000Y-86403498D01*
X146532087Y-86383543D01*
X146753243Y-86324284D01*
X146960749Y-86227523D01*
X147148300Y-86096198D01*
X147310198Y-85934300D01*
X147441523Y-85746749D01*
X147538284Y-85539243D01*
X147597543Y-85318087D01*
X147617498Y-85090000D01*
X147617498Y-85089999D01*
X155159033Y-85089999D01*
X155178858Y-85316602D01*
X155237733Y-85536326D01*
X155333866Y-85742484D01*
X155384972Y-85815471D01*
X155384973Y-85815472D01*
X156066045Y-85134399D01*
X156078835Y-85215148D01*
X156136359Y-85328045D01*
X156225955Y-85417641D01*
X156338852Y-85475165D01*
X156419599Y-85487953D01*
X155738526Y-86169025D01*
X155738526Y-86169026D01*
X155811515Y-86220133D01*
X156017673Y-86316266D01*
X156237397Y-86375141D01*
X156464000Y-86394966D01*
X156690602Y-86375141D01*
X156910326Y-86316266D01*
X157116480Y-86220134D01*
X157189472Y-86169025D01*
X156508401Y-85487953D01*
X156589148Y-85475165D01*
X156702045Y-85417641D01*
X156791641Y-85328045D01*
X156849165Y-85215148D01*
X156861953Y-85134400D01*
X157543025Y-85815472D01*
X157594134Y-85742480D01*
X157690266Y-85536326D01*
X157749141Y-85316602D01*
X157768966Y-85090000D01*
X157749141Y-84863397D01*
X157690266Y-84643673D01*
X157594133Y-84437515D01*
X157543025Y-84364526D01*
X156861953Y-85045598D01*
X156849165Y-84964852D01*
X156791641Y-84851955D01*
X156702045Y-84762359D01*
X156589148Y-84704835D01*
X156508400Y-84692046D01*
X157189472Y-84010974D01*
X157189471Y-84010972D01*
X157116484Y-83959866D01*
X156910326Y-83863733D01*
X156690602Y-83804858D01*
X156464000Y-83785033D01*
X156237397Y-83804858D01*
X156017672Y-83863733D01*
X155811516Y-83959865D01*
X155738527Y-84010973D01*
X155738526Y-84010973D01*
X156419600Y-84692046D01*
X156338852Y-84704835D01*
X156225955Y-84762359D01*
X156136359Y-84851955D01*
X156078835Y-84964852D01*
X156066046Y-85045598D01*
X155384973Y-84364527D01*
X155333865Y-84437516D01*
X155237733Y-84643672D01*
X155178858Y-84863397D01*
X155159033Y-85089999D01*
X147617498Y-85089999D01*
X147597543Y-84861913D01*
X147538284Y-84640757D01*
X147441523Y-84433251D01*
X147310198Y-84245700D01*
X147148300Y-84083802D01*
X146960749Y-83952477D01*
X146960746Y-83952476D01*
X146960744Y-83952474D01*
X146753246Y-83855717D01*
X146753243Y-83855716D01*
X146563440Y-83804858D01*
X146532084Y-83796456D01*
X146304000Y-83776501D01*
X146075915Y-83796456D01*
X145854753Y-83855717D01*
X145647255Y-83952474D01*
X145647250Y-83952477D01*
X145647251Y-83952477D01*
X145510711Y-84048084D01*
X145459696Y-84083805D01*
X145297805Y-84245696D01*
X145166474Y-84433255D01*
X145069717Y-84640753D01*
X145010456Y-84861915D01*
X144990501Y-85089999D01*
X143095156Y-85089999D01*
X143076564Y-84865632D01*
X143021296Y-84647384D01*
X142930860Y-84441209D01*
X142807722Y-84252732D01*
X142655240Y-84087094D01*
X142477576Y-83948811D01*
X142477575Y-83948810D01*
X142441067Y-83929053D01*
X142391477Y-83879833D01*
X142376370Y-83811616D01*
X142400541Y-83746061D01*
X142441066Y-83710946D01*
X142477576Y-83691189D01*
X142655240Y-83552906D01*
X142807722Y-83387268D01*
X142930860Y-83198791D01*
X143021296Y-82992616D01*
X143076564Y-82774368D01*
X143095156Y-82550000D01*
X143076564Y-82325632D01*
X143021296Y-82107384D01*
X142930860Y-81901209D01*
X142807722Y-81712732D01*
X142807721Y-81712731D01*
X142807718Y-81712726D01*
X142662510Y-81554990D01*
X142631587Y-81492336D01*
X142639447Y-81422910D01*
X142683594Y-81368754D01*
X142710396Y-81354829D01*
X142828204Y-81310889D01*
X142945261Y-81223261D01*
X143032889Y-81106204D01*
X143083989Y-80969201D01*
X143090500Y-80908638D01*
X143090500Y-79111362D01*
X143083989Y-79050799D01*
X143083988Y-79050797D01*
X143083988Y-79050794D01*
X143032889Y-78913796D01*
X142945261Y-78796738D01*
X142828203Y-78709110D01*
X142691205Y-78658011D01*
X142633924Y-78651853D01*
X142633918Y-78651852D01*
X142630638Y-78651500D01*
X140833362Y-78651500D01*
X140830082Y-78651852D01*
X140830075Y-78651853D01*
X140772794Y-78658011D01*
X140635796Y-78709110D01*
X140518738Y-78796738D01*
X140431110Y-78913796D01*
X140380011Y-79050794D01*
X140373853Y-79108075D01*
X140373500Y-79111362D01*
X140373500Y-80908638D01*
X140373852Y-80911918D01*
X140373853Y-80911924D01*
X140380011Y-80969205D01*
X140431110Y-81106203D01*
X140518738Y-81223261D01*
X140594533Y-81280000D01*
X140635796Y-81310889D01*
X140753596Y-81354826D01*
X140809527Y-81396697D01*
X140833944Y-81462161D01*
X140819092Y-81530434D01*
X140801490Y-81554990D01*
X140656279Y-81712730D01*
X140533138Y-81901211D01*
X140459148Y-82069895D01*
X140442704Y-82107384D01*
X140399698Y-82277209D01*
X140387435Y-82325636D01*
X140368843Y-82550000D01*
X140387435Y-82774363D01*
X140387435Y-82774366D01*
X140387436Y-82774368D01*
X140442704Y-82992616D01*
X140452023Y-83013862D01*
X140533138Y-83198788D01*
X140533140Y-83198791D01*
X140656278Y-83387268D01*
X140808760Y-83552906D01*
X140986424Y-83691189D01*
X140986426Y-83691190D01*
X141022931Y-83710946D01*
X141072521Y-83760165D01*
X141087629Y-83828382D01*
X141063458Y-83893937D01*
X141022931Y-83929054D01*
X140986426Y-83948809D01*
X140808760Y-84087094D01*
X140656279Y-84252730D01*
X140533138Y-84441211D01*
X140442705Y-84647381D01*
X140442704Y-84647384D01*
X140388378Y-84861913D01*
X140387435Y-84865636D01*
X140368843Y-85090000D01*
X133086495Y-85090000D01*
X133133657Y-85039502D01*
X133292111Y-84815023D01*
X133418523Y-84571058D01*
X133510538Y-84312153D01*
X133566442Y-84043130D01*
X133585193Y-83769000D01*
X133566442Y-83494870D01*
X133510538Y-83225847D01*
X133418523Y-82966942D01*
X133292111Y-82722977D01*
X133133657Y-82498498D01*
X132946111Y-82297686D01*
X132942829Y-82295016D01*
X132942826Y-82295013D01*
X132851515Y-82220726D01*
X132732969Y-82124282D01*
X132729345Y-82122078D01*
X132729342Y-82122076D01*
X132501818Y-81983716D01*
X132501816Y-81983715D01*
X132498200Y-81981516D01*
X132476707Y-81972180D01*
X132250058Y-81873732D01*
X132250048Y-81873728D01*
X132246177Y-81872047D01*
X132242105Y-81870906D01*
X131985675Y-81799057D01*
X131985662Y-81799054D01*
X131981596Y-81797915D01*
X131977406Y-81797339D01*
X131977396Y-81797337D01*
X131713582Y-81761076D01*
X131713569Y-81761075D01*
X131709385Y-81760500D01*
X131434615Y-81760500D01*
X131430431Y-81761075D01*
X131430417Y-81761076D01*
X131166603Y-81797337D01*
X131166590Y-81797339D01*
X131162404Y-81797915D01*
X131158340Y-81799053D01*
X131158324Y-81799057D01*
X130901894Y-81870906D01*
X130901889Y-81870907D01*
X130897823Y-81872047D01*
X130893956Y-81873726D01*
X130893941Y-81873732D01*
X130649683Y-81979829D01*
X130649678Y-81979831D01*
X130645800Y-81981516D01*
X130642189Y-81983711D01*
X130642181Y-81983716D01*
X130414657Y-82122076D01*
X130414646Y-82122083D01*
X130411031Y-82124282D01*
X130407741Y-82126958D01*
X130407739Y-82126960D01*
X130201173Y-82295013D01*
X130201162Y-82295022D01*
X130197889Y-82297686D01*
X130195010Y-82300768D01*
X130195001Y-82300777D01*
X130013231Y-82495405D01*
X130013226Y-82495410D01*
X130010343Y-82498498D01*
X130007907Y-82501948D01*
X130007898Y-82501960D01*
X129854335Y-82719511D01*
X129854331Y-82719516D01*
X129851889Y-82722977D01*
X129849943Y-82726731D01*
X129849939Y-82726739D01*
X129727426Y-82963179D01*
X129727421Y-82963188D01*
X129725477Y-82966942D01*
X129724060Y-82970927D01*
X129724056Y-82970938D01*
X129634883Y-83221846D01*
X129634879Y-83221858D01*
X129633462Y-83225847D01*
X129632599Y-83229997D01*
X129632598Y-83230003D01*
X129578421Y-83490713D01*
X129578419Y-83490724D01*
X129577558Y-83494870D01*
X129577269Y-83499094D01*
X129577268Y-83499102D01*
X129573588Y-83552905D01*
X129558807Y-83769000D01*
X118285193Y-83769000D01*
X118266442Y-83494870D01*
X118210538Y-83225847D01*
X118118523Y-82966942D01*
X117992111Y-82722977D01*
X117833657Y-82498498D01*
X117646111Y-82297686D01*
X117642829Y-82295016D01*
X117642826Y-82295013D01*
X117551515Y-82220726D01*
X117432969Y-82124282D01*
X117429345Y-82122078D01*
X117429342Y-82122076D01*
X117201818Y-81983716D01*
X117201816Y-81983715D01*
X117198200Y-81981516D01*
X117176707Y-81972180D01*
X116950058Y-81873732D01*
X116950048Y-81873728D01*
X116946177Y-81872047D01*
X116942105Y-81870906D01*
X116685675Y-81799057D01*
X116685662Y-81799054D01*
X116681596Y-81797915D01*
X116677406Y-81797339D01*
X116677396Y-81797337D01*
X116413582Y-81761076D01*
X116413569Y-81761075D01*
X116409385Y-81760500D01*
X116134615Y-81760500D01*
X116130431Y-81761075D01*
X116130417Y-81761076D01*
X115866603Y-81797337D01*
X115866590Y-81797339D01*
X115862404Y-81797915D01*
X115858340Y-81799053D01*
X115858324Y-81799057D01*
X115601894Y-81870906D01*
X115601889Y-81870907D01*
X115597823Y-81872047D01*
X115593956Y-81873726D01*
X115593941Y-81873732D01*
X115349683Y-81979829D01*
X115349678Y-81979831D01*
X115345800Y-81981516D01*
X115342189Y-81983711D01*
X115342181Y-81983716D01*
X115114657Y-82122076D01*
X115114646Y-82122083D01*
X115111031Y-82124282D01*
X115107741Y-82126958D01*
X115107739Y-82126960D01*
X114901173Y-82295013D01*
X114901162Y-82295022D01*
X114897889Y-82297686D01*
X114895010Y-82300768D01*
X114895001Y-82300777D01*
X114713231Y-82495405D01*
X114713226Y-82495410D01*
X114710343Y-82498498D01*
X114707907Y-82501948D01*
X114707898Y-82501960D01*
X114554335Y-82719511D01*
X114554331Y-82719516D01*
X114551889Y-82722977D01*
X114549943Y-82726731D01*
X114549939Y-82726739D01*
X114427426Y-82963179D01*
X114427421Y-82963188D01*
X114425477Y-82966942D01*
X114424060Y-82970927D01*
X114424056Y-82970938D01*
X114334883Y-83221846D01*
X114334879Y-83221858D01*
X114333462Y-83225847D01*
X114332599Y-83229997D01*
X114332598Y-83230003D01*
X114278421Y-83490713D01*
X114278419Y-83490724D01*
X114277558Y-83494870D01*
X114277269Y-83499094D01*
X114277268Y-83499102D01*
X114273588Y-83552905D01*
X114258807Y-83769000D01*
X112568500Y-83769000D01*
X112568500Y-69291000D01*
X114392890Y-69291000D01*
X114413300Y-69576357D01*
X114474111Y-69855902D01*
X114574088Y-70123952D01*
X114711193Y-70375042D01*
X114817883Y-70517562D01*
X115536348Y-69799096D01*
X115603146Y-69906263D01*
X115743268Y-70053671D01*
X115888085Y-70154467D01*
X115171436Y-70871115D01*
X115313958Y-70977806D01*
X115565047Y-71114911D01*
X115833097Y-71214888D01*
X116112642Y-71275699D01*
X116397999Y-71296109D01*
X116683357Y-71275699D01*
X116962902Y-71214888D01*
X117230952Y-71114911D01*
X117482041Y-70977806D01*
X117624562Y-70871115D01*
X116906125Y-70152678D01*
X116972214Y-70115996D01*
X117126531Y-69983520D01*
X117251021Y-69822692D01*
X117261625Y-69801072D01*
X117978115Y-70517562D01*
X118084806Y-70375041D01*
X118221911Y-70123952D01*
X118321888Y-69855902D01*
X118382699Y-69576357D01*
X118403109Y-69291000D01*
X129692890Y-69291000D01*
X129713300Y-69576357D01*
X129774111Y-69855902D01*
X129874088Y-70123952D01*
X130011193Y-70375042D01*
X130117883Y-70517562D01*
X130836348Y-69799096D01*
X130903146Y-69906263D01*
X131043268Y-70053671D01*
X131188085Y-70154467D01*
X130471436Y-70871115D01*
X130613958Y-70977806D01*
X130865047Y-71114911D01*
X131133097Y-71214888D01*
X131412642Y-71275699D01*
X131698000Y-71296109D01*
X131983357Y-71275699D01*
X132262902Y-71214888D01*
X132530952Y-71114911D01*
X132782041Y-70977806D01*
X132924562Y-70871115D01*
X132206125Y-70152678D01*
X132272214Y-70115996D01*
X132426531Y-69983520D01*
X132551021Y-69822692D01*
X132561625Y-69801072D01*
X133278115Y-70517562D01*
X133332706Y-70444638D01*
X139153500Y-70444638D01*
X139153852Y-70447918D01*
X139153853Y-70447924D01*
X139160011Y-70505205D01*
X139211110Y-70642203D01*
X139298737Y-70759260D01*
X139308953Y-70766907D01*
X139350825Y-70822840D01*
X139355811Y-70892532D01*
X139336224Y-70937291D01*
X139331868Y-70943512D01*
X139235733Y-71149673D01*
X139176858Y-71369397D01*
X139157033Y-71596000D01*
X139176858Y-71822602D01*
X139235733Y-72042326D01*
X139331866Y-72248484D01*
X139382972Y-72321471D01*
X139382973Y-72321472D01*
X140064045Y-71640399D01*
X140076835Y-71721148D01*
X140134359Y-71834045D01*
X140223955Y-71923641D01*
X140336852Y-71981165D01*
X140417599Y-71993953D01*
X139736526Y-72675025D01*
X139736526Y-72675026D01*
X139809515Y-72726133D01*
X140015673Y-72822266D01*
X140235397Y-72881141D01*
X140461999Y-72900966D01*
X140688602Y-72881141D01*
X140908326Y-72822266D01*
X141114480Y-72726134D01*
X141187472Y-72675025D01*
X140506401Y-71993953D01*
X140587148Y-71981165D01*
X140700045Y-71923641D01*
X140789641Y-71834045D01*
X140847165Y-71721148D01*
X140859953Y-71640400D01*
X141541025Y-72321472D01*
X141592134Y-72248480D01*
X141688266Y-72042326D01*
X141747141Y-71822602D01*
X141766966Y-71596000D01*
X141747141Y-71369397D01*
X141688266Y-71149673D01*
X141592133Y-70943517D01*
X141587778Y-70937296D01*
X141565452Y-70871089D01*
X141582465Y-70803322D01*
X141615044Y-70766909D01*
X141625261Y-70759261D01*
X141712889Y-70642204D01*
X141734924Y-70583124D01*
X141763988Y-70505205D01*
X141763988Y-70505203D01*
X141763989Y-70505201D01*
X141770500Y-70444638D01*
X141770500Y-68747362D01*
X141763989Y-68686799D01*
X141763988Y-68686797D01*
X141763988Y-68686794D01*
X141712889Y-68549796D01*
X141625261Y-68432738D01*
X141508203Y-68345110D01*
X141371205Y-68294011D01*
X141313924Y-68287853D01*
X141313918Y-68287852D01*
X141310638Y-68287500D01*
X139613362Y-68287500D01*
X139610082Y-68287852D01*
X139610075Y-68287853D01*
X139552794Y-68294011D01*
X139415796Y-68345110D01*
X139298738Y-68432738D01*
X139211110Y-68549796D01*
X139160011Y-68686794D01*
X139155786Y-68726097D01*
X139153500Y-68747362D01*
X139153500Y-70444638D01*
X133332706Y-70444638D01*
X133384806Y-70375041D01*
X133521911Y-70123952D01*
X133621888Y-69855902D01*
X133682699Y-69576357D01*
X133703109Y-69290999D01*
X133682699Y-69005642D01*
X133621888Y-68726097D01*
X133521911Y-68458047D01*
X133384806Y-68206958D01*
X133278115Y-68064436D01*
X132559650Y-68782901D01*
X132492854Y-68675737D01*
X132352732Y-68528329D01*
X132207913Y-68427531D01*
X132924562Y-67710883D01*
X132782042Y-67604193D01*
X132530952Y-67467088D01*
X132262902Y-67367111D01*
X131983357Y-67306300D01*
X131698000Y-67285890D01*
X131412642Y-67306300D01*
X131133097Y-67367111D01*
X130865047Y-67467088D01*
X130613954Y-67604195D01*
X130471437Y-67710882D01*
X130471436Y-67710883D01*
X131189874Y-68429321D01*
X131123786Y-68466004D01*
X130969469Y-68598480D01*
X130844979Y-68759308D01*
X130834374Y-68780927D01*
X130117883Y-68064436D01*
X130117882Y-68064437D01*
X130011195Y-68206954D01*
X129874088Y-68458047D01*
X129774111Y-68726097D01*
X129713300Y-69005642D01*
X129692890Y-69291000D01*
X118403109Y-69291000D01*
X118403109Y-69290999D01*
X118382699Y-69005642D01*
X118321888Y-68726097D01*
X118221911Y-68458047D01*
X118084806Y-68206958D01*
X117978115Y-68064436D01*
X117259650Y-68782901D01*
X117192854Y-68675737D01*
X117052732Y-68528329D01*
X116907913Y-68427532D01*
X117624562Y-67710883D01*
X117482042Y-67604193D01*
X117230952Y-67467088D01*
X116962902Y-67367111D01*
X116683357Y-67306300D01*
X116398000Y-67285890D01*
X116112642Y-67306300D01*
X115833097Y-67367111D01*
X115565047Y-67467088D01*
X115313954Y-67604195D01*
X115171437Y-67710882D01*
X115171436Y-67710883D01*
X115889874Y-68429321D01*
X115823786Y-68466004D01*
X115669469Y-68598480D01*
X115544979Y-68759308D01*
X115534374Y-68780927D01*
X114817883Y-68064436D01*
X114817882Y-68064437D01*
X114711195Y-68206954D01*
X114574088Y-68458047D01*
X114474111Y-68726097D01*
X114413300Y-69005642D01*
X114392890Y-69291000D01*
X112568500Y-69291000D01*
X112568500Y-65785999D01*
X137624501Y-65785999D01*
X137644456Y-66014084D01*
X137703717Y-66235246D01*
X137800474Y-66442744D01*
X137800476Y-66442746D01*
X137800477Y-66442749D01*
X137931802Y-66630300D01*
X138093700Y-66792198D01*
X138281251Y-66923523D01*
X138488757Y-67020284D01*
X138709913Y-67079543D01*
X138938000Y-67099498D01*
X139166087Y-67079543D01*
X139387243Y-67020284D01*
X139594749Y-66923523D01*
X139782300Y-66792198D01*
X139944198Y-66630300D01*
X140075523Y-66442749D01*
X140172284Y-66235243D01*
X140231543Y-66014087D01*
X140251498Y-65786000D01*
X140672501Y-65786000D01*
X140692456Y-66014084D01*
X140751717Y-66235246D01*
X140848474Y-66442744D01*
X140848476Y-66442746D01*
X140848477Y-66442749D01*
X140979802Y-66630300D01*
X141141700Y-66792198D01*
X141329251Y-66923523D01*
X141536757Y-67020284D01*
X141757913Y-67079543D01*
X141986000Y-67099498D01*
X142214087Y-67079543D01*
X142435243Y-67020284D01*
X142642749Y-66923523D01*
X142830300Y-66792198D01*
X142992198Y-66630300D01*
X143123523Y-66442749D01*
X143220284Y-66235243D01*
X143279543Y-66014087D01*
X143299498Y-65786000D01*
X143279543Y-65557913D01*
X143220284Y-65336757D01*
X143123523Y-65129251D01*
X142992198Y-64941700D01*
X142830300Y-64779802D01*
X142642749Y-64648477D01*
X142642746Y-64648476D01*
X142642744Y-64648474D01*
X142435246Y-64551717D01*
X142435243Y-64551716D01*
X142324664Y-64522086D01*
X142214084Y-64492456D01*
X141986000Y-64472501D01*
X141757915Y-64492456D01*
X141536753Y-64551717D01*
X141329255Y-64648474D01*
X141141696Y-64779805D01*
X140979805Y-64941696D01*
X140848474Y-65129255D01*
X140751717Y-65336753D01*
X140692456Y-65557915D01*
X140672501Y-65786000D01*
X140251498Y-65786000D01*
X140231543Y-65557913D01*
X140172284Y-65336757D01*
X140075523Y-65129251D01*
X139944198Y-64941700D01*
X139782300Y-64779802D01*
X139594749Y-64648477D01*
X139594746Y-64648476D01*
X139594744Y-64648474D01*
X139387246Y-64551717D01*
X139387243Y-64551716D01*
X139276665Y-64522086D01*
X139166084Y-64492456D01*
X138938000Y-64472501D01*
X138709915Y-64492456D01*
X138488753Y-64551717D01*
X138281255Y-64648474D01*
X138093696Y-64779805D01*
X137931805Y-64941696D01*
X137800474Y-65129255D01*
X137703717Y-65336753D01*
X137644456Y-65557915D01*
X137624501Y-65785999D01*
X112568500Y-65785999D01*
X112568500Y-64262000D01*
X145448843Y-64262000D01*
X145467435Y-64486363D01*
X145467435Y-64486366D01*
X145467436Y-64486368D01*
X145522704Y-64704616D01*
X145613140Y-64910791D01*
X145633334Y-64941700D01*
X145648308Y-64964619D01*
X145668496Y-65031508D01*
X145668500Y-65032441D01*
X145668500Y-70836717D01*
X145668368Y-70842443D01*
X145664827Y-70919039D01*
X145675418Y-70994974D01*
X145676078Y-71000660D01*
X145683154Y-71077018D01*
X145688073Y-71094305D01*
X145691616Y-71111100D01*
X145694103Y-71128925D01*
X145718479Y-71201653D01*
X145720173Y-71207125D01*
X145741148Y-71280846D01*
X145741150Y-71280850D01*
X145749013Y-71296642D01*
X145749163Y-71296942D01*
X145755733Y-71312803D01*
X145761450Y-71329861D01*
X145798769Y-71396861D01*
X145801439Y-71401927D01*
X145835611Y-71470555D01*
X145846451Y-71484909D01*
X145855824Y-71499293D01*
X145864574Y-71515003D01*
X145913561Y-71573996D01*
X145917116Y-71578484D01*
X145963323Y-71639671D01*
X146020011Y-71691349D01*
X146024130Y-71695283D01*
X148014714Y-73685867D01*
X148018670Y-73690010D01*
X148070327Y-73746676D01*
X148104912Y-73772793D01*
X148131523Y-73792889D01*
X148135993Y-73796429D01*
X148194998Y-73845426D01*
X148195002Y-73845429D01*
X148210709Y-73854178D01*
X148225097Y-73863553D01*
X148239445Y-73874389D01*
X148280621Y-73894891D01*
X148308088Y-73908568D01*
X148313137Y-73911228D01*
X148380138Y-73948549D01*
X148397193Y-73954265D01*
X148413054Y-73960835D01*
X148429150Y-73968850D01*
X148502879Y-73989827D01*
X148508352Y-73991521D01*
X148581073Y-74015896D01*
X148592432Y-74017480D01*
X148598887Y-74018381D01*
X148615689Y-74021924D01*
X148632982Y-74026845D01*
X148709341Y-74033920D01*
X148714997Y-74034576D01*
X148790963Y-74045173D01*
X148867555Y-74041632D01*
X148873282Y-74041500D01*
X151072446Y-74041500D01*
X151139485Y-74061185D01*
X151171713Y-74091189D01*
X151186739Y-74111262D01*
X151292170Y-74190186D01*
X151303796Y-74198889D01*
X151433382Y-74247222D01*
X151489313Y-74289093D01*
X151513730Y-74354557D01*
X151498878Y-74422830D01*
X151477728Y-74451084D01*
X151361888Y-74566924D01*
X151226400Y-74760421D01*
X151126569Y-74974507D01*
X151069364Y-75187999D01*
X151069364Y-75188000D01*
X151966314Y-75188000D01*
X151940507Y-75228156D01*
X151900000Y-75366111D01*
X151900000Y-75509889D01*
X151940507Y-75647844D01*
X151966314Y-75688000D01*
X151069364Y-75688000D01*
X151126569Y-75901492D01*
X151226399Y-76115576D01*
X151361893Y-76309081D01*
X151528918Y-76476106D01*
X151722423Y-76611600D01*
X151936509Y-76711430D01*
X152150000Y-76768634D01*
X152150000Y-75873501D01*
X152257685Y-75922680D01*
X152364237Y-75938000D01*
X152435763Y-75938000D01*
X152542315Y-75922680D01*
X152650000Y-75873501D01*
X152650000Y-76768633D01*
X152839407Y-76717883D01*
X152909256Y-76719546D01*
X152967119Y-76758708D01*
X152994623Y-76822937D01*
X152995500Y-76837658D01*
X152995500Y-77147717D01*
X152995368Y-77153443D01*
X152991827Y-77230039D01*
X153002418Y-77305974D01*
X153003078Y-77311660D01*
X153010154Y-77388018D01*
X153015073Y-77405305D01*
X153018616Y-77422100D01*
X153021103Y-77439925D01*
X153045479Y-77512653D01*
X153047173Y-77518125D01*
X153068148Y-77591846D01*
X153076163Y-77607942D01*
X153082733Y-77623803D01*
X153088450Y-77640861D01*
X153125769Y-77707861D01*
X153128439Y-77712927D01*
X153162611Y-77781555D01*
X153173451Y-77795909D01*
X153182824Y-77810293D01*
X153191574Y-77826003D01*
X153240561Y-77884996D01*
X153244116Y-77889484D01*
X153290323Y-77950671D01*
X153347011Y-78002349D01*
X153351130Y-78006283D01*
X157412714Y-82067867D01*
X157416670Y-82072010D01*
X157468327Y-82128676D01*
X157502912Y-82154793D01*
X157529523Y-82174889D01*
X157533993Y-82178429D01*
X157592998Y-82227426D01*
X157608707Y-82236176D01*
X157623092Y-82245549D01*
X157637447Y-82256390D01*
X157652841Y-82264055D01*
X157706115Y-82290582D01*
X157711115Y-82293216D01*
X157778138Y-82330548D01*
X157785502Y-82333016D01*
X157795186Y-82336262D01*
X157811053Y-82342834D01*
X157827150Y-82350850D01*
X157900921Y-82371839D01*
X157906379Y-82373530D01*
X157979068Y-82397894D01*
X157979071Y-82397894D01*
X157979073Y-82397895D01*
X157996888Y-82400379D01*
X158013679Y-82403921D01*
X158030982Y-82408845D01*
X158107363Y-82415922D01*
X158112976Y-82416572D01*
X158188963Y-82427173D01*
X158265555Y-82423632D01*
X158271282Y-82423500D01*
X160872580Y-82423500D01*
X160924977Y-82435114D01*
X160930339Y-82437615D01*
X160982780Y-82483783D01*
X161001936Y-82550975D01*
X160981725Y-82617857D01*
X160930347Y-82662380D01*
X160887254Y-82682475D01*
X160887251Y-82682476D01*
X160887251Y-82682477D01*
X160726374Y-82795125D01*
X160699696Y-82813805D01*
X160537805Y-82975696D01*
X160537802Y-82975699D01*
X160537802Y-82975700D01*
X160525957Y-82992616D01*
X160406474Y-83163255D01*
X160309717Y-83370753D01*
X160250456Y-83591915D01*
X160230501Y-83820000D01*
X160250456Y-84048084D01*
X160309717Y-84269246D01*
X160406474Y-84476744D01*
X160406476Y-84476746D01*
X160406477Y-84476749D01*
X160537802Y-84664300D01*
X160699700Y-84826198D01*
X160887251Y-84957523D01*
X160940401Y-84982307D01*
X160992839Y-85028477D01*
X161011992Y-85095670D01*
X160991777Y-85162552D01*
X160940403Y-85207069D01*
X160891520Y-85229864D01*
X160705180Y-85360341D01*
X160544341Y-85521180D01*
X160413865Y-85707519D01*
X160317733Y-85913673D01*
X160265128Y-86109999D01*
X160265128Y-86110000D01*
X161228314Y-86110000D01*
X161216359Y-86121955D01*
X161158835Y-86234852D01*
X161139014Y-86360000D01*
X161158835Y-86485148D01*
X161216359Y-86598045D01*
X161228314Y-86610000D01*
X160265128Y-86610000D01*
X160317733Y-86806326D01*
X160413865Y-87012480D01*
X160544341Y-87198819D01*
X160705180Y-87359658D01*
X160891519Y-87490134D01*
X161097673Y-87586266D01*
X161293999Y-87638871D01*
X161294000Y-87638871D01*
X161294000Y-86675686D01*
X161305955Y-86687641D01*
X161418852Y-86745165D01*
X161512519Y-86760000D01*
X161575481Y-86760000D01*
X161669148Y-86745165D01*
X161782045Y-86687641D01*
X161794000Y-86675685D01*
X161794000Y-87638871D01*
X161990326Y-87586266D01*
X162196480Y-87490134D01*
X162382819Y-87359658D01*
X162543658Y-87198819D01*
X162674134Y-87012480D01*
X162770266Y-86806326D01*
X162822872Y-86610000D01*
X161859686Y-86610000D01*
X161871641Y-86598045D01*
X161929165Y-86485148D01*
X161948986Y-86360000D01*
X167850501Y-86360000D01*
X167870456Y-86588084D01*
X167897133Y-86687641D01*
X167928934Y-86806326D01*
X167929717Y-86809246D01*
X168026474Y-87016744D01*
X168026476Y-87016746D01*
X168026477Y-87016749D01*
X168157802Y-87204300D01*
X168319700Y-87366198D01*
X168507251Y-87497523D01*
X168714757Y-87594284D01*
X168935913Y-87653543D01*
X169164000Y-87673498D01*
X169392087Y-87653543D01*
X169613243Y-87594284D01*
X169820749Y-87497523D01*
X170008300Y-87366198D01*
X170170198Y-87204300D01*
X170301523Y-87016749D01*
X170398284Y-86809243D01*
X170457543Y-86588087D01*
X170477498Y-86360000D01*
X170457543Y-86131913D01*
X170398284Y-85910757D01*
X170318166Y-85738942D01*
X170301525Y-85703255D01*
X170301524Y-85703254D01*
X170301523Y-85703251D01*
X170170198Y-85515700D01*
X170008300Y-85353802D01*
X169820749Y-85222477D01*
X169787708Y-85207070D01*
X169777655Y-85202382D01*
X169725215Y-85156210D01*
X169706063Y-85089017D01*
X169726278Y-85022136D01*
X169777655Y-84977618D01*
X169780882Y-84976112D01*
X169820749Y-84957523D01*
X170008300Y-84826198D01*
X170170198Y-84664300D01*
X170301523Y-84476749D01*
X170398284Y-84269243D01*
X170457543Y-84048087D01*
X170477498Y-83820000D01*
X170457543Y-83591913D01*
X170398284Y-83370757D01*
X170347800Y-83262494D01*
X170301525Y-83163255D01*
X170301524Y-83163254D01*
X170301523Y-83163251D01*
X170170198Y-82975700D01*
X170008300Y-82813802D01*
X169820749Y-82682477D01*
X169819316Y-82681809D01*
X169777655Y-82662382D01*
X169725215Y-82616210D01*
X169706063Y-82549017D01*
X169726278Y-82482136D01*
X169777655Y-82437618D01*
X169780882Y-82436112D01*
X169820749Y-82417523D01*
X170008300Y-82286198D01*
X170170198Y-82124300D01*
X170301523Y-81936749D01*
X170398284Y-81729243D01*
X170457543Y-81508087D01*
X170477498Y-81280000D01*
X170457543Y-81051913D01*
X170398284Y-80830757D01*
X170301523Y-80623251D01*
X170170198Y-80435700D01*
X170008300Y-80273802D01*
X169820749Y-80142477D01*
X169777655Y-80122382D01*
X169725215Y-80076210D01*
X169706063Y-80009017D01*
X169726278Y-79942136D01*
X169777655Y-79897618D01*
X169794118Y-79889941D01*
X169820749Y-79877523D01*
X170008300Y-79746198D01*
X170170198Y-79584300D01*
X170301523Y-79396749D01*
X170398284Y-79189243D01*
X170457543Y-78968087D01*
X170477498Y-78740000D01*
X170474795Y-78709110D01*
X170457543Y-78511915D01*
X170457543Y-78511913D01*
X170398284Y-78290757D01*
X170301523Y-78083251D01*
X170170198Y-77895700D01*
X170008300Y-77733802D01*
X169820749Y-77602477D01*
X169820746Y-77602476D01*
X169820744Y-77602474D01*
X169613246Y-77505717D01*
X169613243Y-77505716D01*
X169502665Y-77476086D01*
X169392084Y-77446456D01*
X169164000Y-77426501D01*
X168935915Y-77446456D01*
X168714753Y-77505717D01*
X168507255Y-77602474D01*
X168452433Y-77640861D01*
X168356748Y-77707861D01*
X168319696Y-77733805D01*
X168157805Y-77895696D01*
X168026474Y-78083255D01*
X167929717Y-78290753D01*
X167870456Y-78511915D01*
X167850501Y-78739999D01*
X167870456Y-78968084D01*
X167929717Y-79189246D01*
X168026474Y-79396744D01*
X168026476Y-79396746D01*
X168026477Y-79396749D01*
X168157802Y-79584300D01*
X168319700Y-79746198D01*
X168507251Y-79877523D01*
X168533882Y-79889941D01*
X168550345Y-79897618D01*
X168602784Y-79943791D01*
X168621936Y-80010984D01*
X168601720Y-80077865D01*
X168550344Y-80122382D01*
X168507251Y-80142477D01*
X168504562Y-80144360D01*
X168319696Y-80273805D01*
X168157805Y-80435696D01*
X168026474Y-80623255D01*
X167929717Y-80830753D01*
X167870456Y-81051915D01*
X167850501Y-81280000D01*
X167870456Y-81508084D01*
X167929717Y-81729246D01*
X168026474Y-81936744D01*
X168026476Y-81936746D01*
X168026477Y-81936749D01*
X168157802Y-82124300D01*
X168319700Y-82286198D01*
X168507251Y-82417523D01*
X168547334Y-82436214D01*
X168550345Y-82437618D01*
X168602784Y-82483791D01*
X168621936Y-82550984D01*
X168601720Y-82617865D01*
X168550345Y-82662382D01*
X168507255Y-82682475D01*
X168507251Y-82682477D01*
X168320950Y-82812927D01*
X168319696Y-82813805D01*
X168157805Y-82975696D01*
X168157802Y-82975699D01*
X168157802Y-82975700D01*
X168145957Y-82992616D01*
X168026474Y-83163255D01*
X167929717Y-83370753D01*
X167870456Y-83591915D01*
X167850501Y-83820000D01*
X167870456Y-84048084D01*
X167929717Y-84269246D01*
X168026474Y-84476744D01*
X168026476Y-84476746D01*
X168026477Y-84476749D01*
X168157802Y-84664300D01*
X168319700Y-84826198D01*
X168507251Y-84957523D01*
X168547334Y-84976214D01*
X168550345Y-84977618D01*
X168602784Y-85023791D01*
X168621936Y-85090984D01*
X168601720Y-85157865D01*
X168550345Y-85202382D01*
X168522968Y-85215148D01*
X168507251Y-85222477D01*
X168356485Y-85328045D01*
X168319696Y-85353805D01*
X168157805Y-85515696D01*
X168157802Y-85515699D01*
X168157802Y-85515700D01*
X168141317Y-85539243D01*
X168026474Y-85703255D01*
X167929717Y-85910753D01*
X167870456Y-86131915D01*
X167850501Y-86360000D01*
X161948986Y-86360000D01*
X161929165Y-86234852D01*
X161871641Y-86121955D01*
X161859686Y-86110000D01*
X162822872Y-86110000D01*
X162822871Y-86109999D01*
X162770266Y-85913673D01*
X162674134Y-85707519D01*
X162543658Y-85521180D01*
X162382819Y-85360341D01*
X162196482Y-85229866D01*
X162147597Y-85207070D01*
X162095158Y-85160897D01*
X162076007Y-85093703D01*
X162096223Y-85026822D01*
X162147601Y-84982305D01*
X162163022Y-84975114D01*
X162215420Y-84963500D01*
X162784718Y-84963500D01*
X162790444Y-84963632D01*
X162867037Y-84967173D01*
X162943006Y-84956576D01*
X162948652Y-84955921D01*
X163025018Y-84948845D01*
X163042303Y-84943926D01*
X163059113Y-84940381D01*
X163076922Y-84937897D01*
X163076923Y-84937896D01*
X163076927Y-84937896D01*
X163149695Y-84913505D01*
X163155090Y-84911835D01*
X163228850Y-84890850D01*
X163244956Y-84882829D01*
X163260795Y-84876268D01*
X163277862Y-84870549D01*
X163344889Y-84833213D01*
X163349886Y-84830580D01*
X163418554Y-84796389D01*
X163432916Y-84785542D01*
X163447281Y-84776181D01*
X163463002Y-84767426D01*
X163522007Y-84718428D01*
X163526430Y-84714923D01*
X163587671Y-84668677D01*
X163639339Y-84611998D01*
X163643273Y-84607878D01*
X164871878Y-83379273D01*
X164876000Y-83375338D01*
X164881030Y-83370753D01*
X164932677Y-83323671D01*
X164978923Y-83262430D01*
X164982433Y-83258001D01*
X165031426Y-83199002D01*
X165040175Y-83183292D01*
X165049544Y-83168914D01*
X165060389Y-83154554D01*
X165094608Y-83085831D01*
X165097224Y-83080870D01*
X165134548Y-83013862D01*
X165140263Y-82996808D01*
X165146826Y-82980962D01*
X165154850Y-82964850D01*
X165175836Y-82891086D01*
X165177529Y-82885624D01*
X165201894Y-82812931D01*
X165201895Y-82812927D01*
X165204379Y-82795112D01*
X165207924Y-82778312D01*
X165212845Y-82761017D01*
X165216021Y-82726739D01*
X165219921Y-82684645D01*
X165220574Y-82679012D01*
X165231173Y-82603037D01*
X165227632Y-82526443D01*
X165227500Y-82520717D01*
X165227500Y-70883014D01*
X165247185Y-70815975D01*
X165263819Y-70795333D01*
X165537334Y-70521819D01*
X165598657Y-70488334D01*
X165625015Y-70485500D01*
X175830444Y-70485500D01*
X175897483Y-70505185D01*
X175931747Y-70537990D01*
X175984343Y-70612502D01*
X175987223Y-70615586D01*
X175987229Y-70615593D01*
X176155096Y-70795333D01*
X176171889Y-70813314D01*
X176385031Y-70986718D01*
X176619800Y-71129484D01*
X176871823Y-71238953D01*
X177021356Y-71280850D01*
X177132324Y-71311942D01*
X177132326Y-71311942D01*
X177136404Y-71313085D01*
X177408615Y-71350500D01*
X177412852Y-71350500D01*
X177679148Y-71350500D01*
X177683385Y-71350500D01*
X177955596Y-71313085D01*
X178220177Y-71238953D01*
X178472200Y-71129484D01*
X178706969Y-70986718D01*
X178920111Y-70813314D01*
X179107657Y-70612502D01*
X179266111Y-70388023D01*
X179392523Y-70144058D01*
X179484538Y-69885153D01*
X179540442Y-69616130D01*
X179559193Y-69342000D01*
X179540442Y-69067870D01*
X179484538Y-68798847D01*
X179392523Y-68539942D01*
X179266111Y-68295977D01*
X179107657Y-68071498D01*
X178920111Y-67870686D01*
X178916829Y-67868016D01*
X178916826Y-67868013D01*
X178825515Y-67793726D01*
X178706969Y-67697282D01*
X178703345Y-67695078D01*
X178703342Y-67695076D01*
X178475818Y-67556716D01*
X178475816Y-67556715D01*
X178472200Y-67554516D01*
X178450707Y-67545180D01*
X178224058Y-67446732D01*
X178224048Y-67446728D01*
X178220177Y-67445047D01*
X178216105Y-67443906D01*
X177959675Y-67372057D01*
X177959662Y-67372054D01*
X177955596Y-67370915D01*
X177951406Y-67370339D01*
X177951396Y-67370337D01*
X177687582Y-67334076D01*
X177687569Y-67334075D01*
X177683385Y-67333500D01*
X177408615Y-67333500D01*
X177404431Y-67334075D01*
X177404417Y-67334076D01*
X177140603Y-67370337D01*
X177140590Y-67370339D01*
X177136404Y-67370915D01*
X177132340Y-67372053D01*
X177132324Y-67372057D01*
X176875894Y-67443906D01*
X176875889Y-67443907D01*
X176871823Y-67445047D01*
X176867956Y-67446726D01*
X176867941Y-67446732D01*
X176623683Y-67552829D01*
X176623678Y-67552831D01*
X176619800Y-67554516D01*
X176616189Y-67556711D01*
X176616181Y-67556716D01*
X176388657Y-67695076D01*
X176388646Y-67695083D01*
X176385031Y-67697282D01*
X176381741Y-67699958D01*
X176381739Y-67699960D01*
X176175173Y-67868013D01*
X176175162Y-67868022D01*
X176171889Y-67870686D01*
X176169010Y-67873768D01*
X176169001Y-67873777D01*
X175987229Y-68068406D01*
X175987217Y-68068420D01*
X175984343Y-68071498D01*
X175981906Y-68074949D01*
X175981903Y-68074954D01*
X175931749Y-68146008D01*
X175877007Y-68189426D01*
X175830444Y-68198500D01*
X165129282Y-68198500D01*
X165123556Y-68198368D01*
X165118851Y-68198150D01*
X165046963Y-68194827D01*
X165046962Y-68194827D01*
X165046960Y-68194827D01*
X165029155Y-68197311D01*
X165012025Y-68198500D01*
X163961556Y-68198500D01*
X163894517Y-68178815D01*
X163860251Y-68146008D01*
X163807657Y-68071498D01*
X163804774Y-68068412D01*
X163804770Y-68068406D01*
X163622998Y-67873777D01*
X163622996Y-67873775D01*
X163620111Y-67870686D01*
X163616829Y-67868016D01*
X163616826Y-67868013D01*
X163525515Y-67793726D01*
X163406969Y-67697282D01*
X163403345Y-67695078D01*
X163403342Y-67695076D01*
X163175818Y-67556716D01*
X163175816Y-67556715D01*
X163172200Y-67554516D01*
X163150707Y-67545180D01*
X162924058Y-67446732D01*
X162924048Y-67446728D01*
X162920177Y-67445047D01*
X162916105Y-67443906D01*
X162659675Y-67372057D01*
X162659662Y-67372054D01*
X162655596Y-67370915D01*
X162651406Y-67370339D01*
X162651396Y-67370337D01*
X162387582Y-67334076D01*
X162387569Y-67334075D01*
X162383385Y-67333500D01*
X162108615Y-67333500D01*
X162104431Y-67334075D01*
X162104417Y-67334076D01*
X161840603Y-67370337D01*
X161840590Y-67370339D01*
X161836404Y-67370915D01*
X161832340Y-67372053D01*
X161832324Y-67372057D01*
X161575894Y-67443906D01*
X161575889Y-67443907D01*
X161571823Y-67445047D01*
X161567956Y-67446726D01*
X161567941Y-67446732D01*
X161323683Y-67552829D01*
X161323678Y-67552831D01*
X161319800Y-67554516D01*
X161316189Y-67556711D01*
X161316181Y-67556716D01*
X161088657Y-67695076D01*
X161088646Y-67695083D01*
X161085031Y-67697282D01*
X161081741Y-67699958D01*
X161081739Y-67699960D01*
X160875173Y-67868013D01*
X160875162Y-67868022D01*
X160871889Y-67870686D01*
X160869010Y-67873768D01*
X160869001Y-67873777D01*
X160687231Y-68068405D01*
X160687226Y-68068410D01*
X160684343Y-68071498D01*
X160681907Y-68074948D01*
X160681898Y-68074960D01*
X160528335Y-68292511D01*
X160528331Y-68292516D01*
X160525889Y-68295977D01*
X160523943Y-68299731D01*
X160523939Y-68299739D01*
X160401426Y-68536179D01*
X160401421Y-68536188D01*
X160399477Y-68539942D01*
X160398060Y-68543927D01*
X160398056Y-68543938D01*
X160308883Y-68794846D01*
X160308879Y-68794858D01*
X160307462Y-68798847D01*
X160306599Y-68802997D01*
X160306598Y-68803003D01*
X160252421Y-69063713D01*
X160252419Y-69063724D01*
X160251558Y-69067870D01*
X160251269Y-69072094D01*
X160251268Y-69072102D01*
X160236295Y-69291000D01*
X160232807Y-69342000D01*
X160251558Y-69616130D01*
X160252419Y-69620277D01*
X160252421Y-69620286D01*
X160306598Y-69880996D01*
X160307462Y-69885153D01*
X160308880Y-69889144D01*
X160308883Y-69889153D01*
X160392331Y-70123952D01*
X160399477Y-70144058D01*
X160401424Y-70147816D01*
X160401426Y-70147820D01*
X160519162Y-70375041D01*
X160525889Y-70388023D01*
X160528335Y-70391488D01*
X160681898Y-70609039D01*
X160681902Y-70609044D01*
X160684343Y-70612502D01*
X160871889Y-70813314D01*
X161085031Y-70986718D01*
X161319800Y-71129484D01*
X161571823Y-71238953D01*
X161721356Y-71280850D01*
X161832324Y-71311942D01*
X161832326Y-71311942D01*
X161836404Y-71313085D01*
X162108615Y-71350500D01*
X162112852Y-71350500D01*
X162379148Y-71350500D01*
X162383385Y-71350500D01*
X162655596Y-71313085D01*
X162783046Y-71277375D01*
X162852909Y-71278243D01*
X162911214Y-71316744D01*
X162939447Y-71380655D01*
X162940500Y-71396777D01*
X162940500Y-77515749D01*
X162920815Y-77582788D01*
X162868011Y-77628543D01*
X162798853Y-77638487D01*
X162735297Y-77609462D01*
X162717233Y-77590060D01*
X162711789Y-77582788D01*
X162707261Y-77576739D01*
X162707259Y-77576738D01*
X162707259Y-77576737D01*
X162590203Y-77489110D01*
X162453205Y-77438011D01*
X162395924Y-77431853D01*
X162395918Y-77431852D01*
X162392638Y-77431500D01*
X160695362Y-77431500D01*
X160692082Y-77431852D01*
X160692075Y-77431853D01*
X160634794Y-77438011D01*
X160497796Y-77489110D01*
X160380738Y-77576738D01*
X160293110Y-77693796D01*
X160242011Y-77830794D01*
X160236184Y-77884996D01*
X160235500Y-77891362D01*
X160235500Y-79588638D01*
X160235852Y-79591918D01*
X160235853Y-79591924D01*
X160242011Y-79649205D01*
X160293110Y-79786203D01*
X160380737Y-79903259D01*
X160380738Y-79903259D01*
X160380739Y-79903261D01*
X160394060Y-79913233D01*
X160435931Y-79969167D01*
X160440915Y-80038858D01*
X160407430Y-80100182D01*
X160346107Y-80133666D01*
X160319749Y-80136500D01*
X158767015Y-80136500D01*
X158699976Y-80116815D01*
X158679334Y-80100181D01*
X155318819Y-76739665D01*
X155285334Y-76678342D01*
X155282500Y-76651984D01*
X155282500Y-74666281D01*
X155282632Y-74660555D01*
X155282663Y-74659866D01*
X155286173Y-74583962D01*
X155275572Y-74507974D01*
X155274922Y-74502361D01*
X155267845Y-74425982D01*
X155262921Y-74408679D01*
X155259379Y-74391888D01*
X155256895Y-74374073D01*
X155256894Y-74374071D01*
X155256894Y-74374068D01*
X155232530Y-74301379D01*
X155230834Y-74295904D01*
X155209850Y-74222150D01*
X155201834Y-74206053D01*
X155195262Y-74190186D01*
X155189549Y-74173142D01*
X155189548Y-74173138D01*
X155152216Y-74106115D01*
X155149578Y-74101107D01*
X155115390Y-74032447D01*
X155110249Y-74025640D01*
X155104547Y-74018089D01*
X155095173Y-74003703D01*
X155086426Y-73987998D01*
X155058414Y-73954264D01*
X155037433Y-73928996D01*
X155033877Y-73924507D01*
X154987676Y-73863328D01*
X154931021Y-73811680D01*
X154926878Y-73807724D01*
X153794819Y-72675665D01*
X153761334Y-72614342D01*
X153758500Y-72587984D01*
X153758500Y-72002671D01*
X153758500Y-72002670D01*
X153758500Y-71999362D01*
X153751989Y-71938799D01*
X153751988Y-71938797D01*
X153751988Y-71938794D01*
X153700889Y-71801796D01*
X153613261Y-71684738D01*
X153496203Y-71597110D01*
X153359205Y-71546011D01*
X153301924Y-71539853D01*
X153301918Y-71539852D01*
X153298638Y-71539500D01*
X151501362Y-71539500D01*
X151498082Y-71539852D01*
X151498075Y-71539853D01*
X151440794Y-71546011D01*
X151303796Y-71597110D01*
X151186739Y-71684737D01*
X151171713Y-71704811D01*
X151115779Y-71746682D01*
X151072446Y-71754500D01*
X149369015Y-71754500D01*
X149301976Y-71734815D01*
X149281334Y-71718181D01*
X147991819Y-70428666D01*
X147958334Y-70367343D01*
X147955500Y-70340985D01*
X147955500Y-65529500D01*
X147975185Y-65462461D01*
X148027989Y-65416706D01*
X148079500Y-65405500D01*
X148814718Y-65405500D01*
X148820444Y-65405632D01*
X148897037Y-65409173D01*
X148973006Y-65398576D01*
X148978652Y-65397921D01*
X149055018Y-65390845D01*
X149072303Y-65385926D01*
X149089113Y-65382381D01*
X149106922Y-65379897D01*
X149106923Y-65379896D01*
X149106927Y-65379896D01*
X149179695Y-65355505D01*
X149185090Y-65353835D01*
X149258850Y-65332850D01*
X149274956Y-65324829D01*
X149290795Y-65318268D01*
X149307862Y-65312549D01*
X149374889Y-65275213D01*
X149379886Y-65272580D01*
X149448554Y-65238389D01*
X149462916Y-65227542D01*
X149477281Y-65218181D01*
X149493002Y-65209426D01*
X149552007Y-65160428D01*
X149556430Y-65156923D01*
X149617671Y-65110677D01*
X149669339Y-65053998D01*
X149673273Y-65049878D01*
X151821334Y-62901819D01*
X151882658Y-62868334D01*
X151909016Y-62865500D01*
X152897293Y-62865500D01*
X152956306Y-62880443D01*
X152960926Y-62882943D01*
X153010519Y-62932161D01*
X153025630Y-63000377D01*
X153001461Y-63065933D01*
X152960931Y-63101054D01*
X152924426Y-63120809D01*
X152746760Y-63259094D01*
X152594279Y-63424730D01*
X152471138Y-63613211D01*
X152380705Y-63819381D01*
X152325435Y-64037636D01*
X152306843Y-64262000D01*
X152325435Y-64486363D01*
X152325435Y-64486366D01*
X152325436Y-64486368D01*
X152380704Y-64704616D01*
X152380705Y-64704618D01*
X152471138Y-64910788D01*
X152471140Y-64910791D01*
X152594278Y-65099268D01*
X152746760Y-65264906D01*
X152924424Y-65403189D01*
X153122426Y-65510342D01*
X153335365Y-65583444D01*
X153557431Y-65620500D01*
X153782569Y-65620500D01*
X154004635Y-65583444D01*
X154217574Y-65510342D01*
X154383689Y-65420445D01*
X154442707Y-65405500D01*
X157136718Y-65405500D01*
X157142444Y-65405632D01*
X157219037Y-65409173D01*
X157295006Y-65398576D01*
X157300652Y-65397921D01*
X157377018Y-65390845D01*
X157394303Y-65385926D01*
X157411113Y-65382381D01*
X157428922Y-65379897D01*
X157428923Y-65379896D01*
X157428927Y-65379896D01*
X157501695Y-65355505D01*
X157507090Y-65353835D01*
X157580850Y-65332850D01*
X157596956Y-65324829D01*
X157612795Y-65318268D01*
X157629862Y-65312549D01*
X157696889Y-65275213D01*
X157701886Y-65272580D01*
X157770554Y-65238389D01*
X157784916Y-65227542D01*
X157799281Y-65218181D01*
X157815002Y-65209426D01*
X157874007Y-65160428D01*
X157878430Y-65156923D01*
X157939671Y-65110677D01*
X157991339Y-65053998D01*
X157995273Y-65049878D01*
X161841792Y-61203359D01*
X161903113Y-61169876D01*
X161946353Y-61168197D01*
X162108615Y-61190500D01*
X162112852Y-61190500D01*
X162379148Y-61190500D01*
X162383385Y-61190500D01*
X162655596Y-61153085D01*
X162920177Y-61078953D01*
X163172200Y-60969484D01*
X163406969Y-60826718D01*
X163620111Y-60653314D01*
X163807657Y-60452502D01*
X163966111Y-60228023D01*
X164092523Y-59984058D01*
X164184538Y-59725153D01*
X164240442Y-59456130D01*
X164259193Y-59182000D01*
X175532807Y-59182000D01*
X175533096Y-59186225D01*
X175548353Y-59409286D01*
X175551558Y-59456130D01*
X175552419Y-59460277D01*
X175552421Y-59460286D01*
X175596000Y-59669996D01*
X175607462Y-59725153D01*
X175608880Y-59729144D01*
X175608883Y-59729153D01*
X175698056Y-59980061D01*
X175699477Y-59984058D01*
X175701424Y-59987816D01*
X175701426Y-59987820D01*
X175797513Y-60173260D01*
X175825889Y-60228023D01*
X175828335Y-60231488D01*
X175981898Y-60449039D01*
X175981902Y-60449044D01*
X175984343Y-60452502D01*
X175987231Y-60455594D01*
X176126753Y-60604986D01*
X176171889Y-60653314D01*
X176175170Y-60655983D01*
X176175173Y-60655986D01*
X176228853Y-60699658D01*
X176385031Y-60826718D01*
X176619800Y-60969484D01*
X176757034Y-61029093D01*
X176858603Y-61073211D01*
X176871823Y-61078953D01*
X177080825Y-61137512D01*
X177132324Y-61151942D01*
X177132326Y-61151942D01*
X177136404Y-61153085D01*
X177408615Y-61190500D01*
X177412852Y-61190500D01*
X177679148Y-61190500D01*
X177683385Y-61190500D01*
X177955596Y-61153085D01*
X178220177Y-61078953D01*
X178472200Y-60969484D01*
X178706969Y-60826718D01*
X178920111Y-60653314D01*
X179107657Y-60452502D01*
X179266111Y-60228023D01*
X179392523Y-59984058D01*
X179484538Y-59725153D01*
X179540442Y-59456130D01*
X179559193Y-59182000D01*
X179540442Y-58907870D01*
X179484538Y-58638847D01*
X179392523Y-58379942D01*
X179266111Y-58135977D01*
X179107657Y-57911498D01*
X178920111Y-57710686D01*
X178916829Y-57708016D01*
X178916826Y-57708013D01*
X178825515Y-57633726D01*
X178706969Y-57537282D01*
X178703345Y-57535078D01*
X178703342Y-57535076D01*
X178475818Y-57396716D01*
X178475816Y-57396715D01*
X178472200Y-57394516D01*
X178450707Y-57385180D01*
X178224058Y-57286732D01*
X178224048Y-57286728D01*
X178220177Y-57285047D01*
X178216105Y-57283906D01*
X177959675Y-57212057D01*
X177959662Y-57212054D01*
X177955596Y-57210915D01*
X177951406Y-57210339D01*
X177951396Y-57210337D01*
X177687582Y-57174076D01*
X177687569Y-57174075D01*
X177683385Y-57173500D01*
X177408615Y-57173500D01*
X177404431Y-57174075D01*
X177404417Y-57174076D01*
X177140603Y-57210337D01*
X177140590Y-57210339D01*
X177136404Y-57210915D01*
X177132340Y-57212053D01*
X177132324Y-57212057D01*
X176875894Y-57283906D01*
X176875889Y-57283907D01*
X176871823Y-57285047D01*
X176867956Y-57286726D01*
X176867941Y-57286732D01*
X176623683Y-57392829D01*
X176623678Y-57392831D01*
X176619800Y-57394516D01*
X176616189Y-57396711D01*
X176616181Y-57396716D01*
X176388657Y-57535076D01*
X176388646Y-57535083D01*
X176385031Y-57537282D01*
X176381741Y-57539958D01*
X176381739Y-57539960D01*
X176175173Y-57708013D01*
X176175162Y-57708022D01*
X176171889Y-57710686D01*
X176169010Y-57713768D01*
X176169001Y-57713777D01*
X175987231Y-57908405D01*
X175987226Y-57908410D01*
X175984343Y-57911498D01*
X175981907Y-57914948D01*
X175981898Y-57914960D01*
X175828335Y-58132511D01*
X175828331Y-58132516D01*
X175825889Y-58135977D01*
X175823943Y-58139731D01*
X175823939Y-58139739D01*
X175701426Y-58376179D01*
X175701421Y-58376188D01*
X175699477Y-58379942D01*
X175698060Y-58383927D01*
X175698056Y-58383938D01*
X175608883Y-58634846D01*
X175608879Y-58634858D01*
X175607462Y-58638847D01*
X175606599Y-58642997D01*
X175606598Y-58643003D01*
X175552421Y-58903713D01*
X175552419Y-58903724D01*
X175551558Y-58907870D01*
X175551269Y-58912094D01*
X175551268Y-58912102D01*
X175536295Y-59131000D01*
X175532807Y-59182000D01*
X164259193Y-59182000D01*
X164240442Y-58907870D01*
X164184538Y-58638847D01*
X164092523Y-58379942D01*
X163966111Y-58135977D01*
X163807657Y-57911498D01*
X163620111Y-57710686D01*
X163616829Y-57708016D01*
X163616826Y-57708013D01*
X163525515Y-57633726D01*
X163406969Y-57537282D01*
X163403345Y-57535078D01*
X163403342Y-57535076D01*
X163175818Y-57396716D01*
X163175816Y-57396715D01*
X163172200Y-57394516D01*
X163150707Y-57385180D01*
X162924058Y-57286732D01*
X162924048Y-57286728D01*
X162920177Y-57285047D01*
X162916105Y-57283906D01*
X162659675Y-57212057D01*
X162659662Y-57212054D01*
X162655596Y-57210915D01*
X162651406Y-57210339D01*
X162651396Y-57210337D01*
X162387582Y-57174076D01*
X162387569Y-57174075D01*
X162383385Y-57173500D01*
X162108615Y-57173500D01*
X162104431Y-57174075D01*
X162104417Y-57174076D01*
X161840603Y-57210337D01*
X161840590Y-57210339D01*
X161836404Y-57210915D01*
X161832340Y-57212053D01*
X161832324Y-57212057D01*
X161575894Y-57283906D01*
X161575889Y-57283907D01*
X161571823Y-57285047D01*
X161567956Y-57286726D01*
X161567941Y-57286732D01*
X161323683Y-57392829D01*
X161323678Y-57392831D01*
X161319800Y-57394516D01*
X161316189Y-57396711D01*
X161316181Y-57396716D01*
X161088657Y-57535076D01*
X161088646Y-57535083D01*
X161085031Y-57537282D01*
X161081741Y-57539958D01*
X161081739Y-57539960D01*
X160875173Y-57708013D01*
X160875162Y-57708022D01*
X160871889Y-57710686D01*
X160869010Y-57713768D01*
X160869001Y-57713777D01*
X160687231Y-57908405D01*
X160687226Y-57908410D01*
X160684343Y-57911498D01*
X160681907Y-57914948D01*
X160681898Y-57914960D01*
X160528335Y-58132511D01*
X160528331Y-58132516D01*
X160525889Y-58135977D01*
X160523943Y-58139731D01*
X160523939Y-58139739D01*
X160401426Y-58376179D01*
X160401421Y-58376188D01*
X160399477Y-58379942D01*
X160398060Y-58383927D01*
X160398056Y-58383938D01*
X160308883Y-58634846D01*
X160308879Y-58634858D01*
X160307462Y-58638847D01*
X160306599Y-58642997D01*
X160306598Y-58643003D01*
X160252421Y-58903713D01*
X160252419Y-58903724D01*
X160251558Y-58907870D01*
X160251269Y-58912094D01*
X160251268Y-58912102D01*
X160236295Y-59131000D01*
X160232807Y-59182000D01*
X160233096Y-59186225D01*
X160248353Y-59409286D01*
X160251558Y-59456130D01*
X160252415Y-59460254D01*
X160252419Y-59460283D01*
X160255682Y-59475985D01*
X160250046Y-59545627D01*
X160221956Y-59588889D01*
X156728666Y-63082181D01*
X156667343Y-63115666D01*
X156640985Y-63118500D01*
X154442707Y-63118500D01*
X154383685Y-63103552D01*
X154379064Y-63101051D01*
X154329475Y-63051830D01*
X154314370Y-62983613D01*
X154338543Y-62918058D01*
X154379066Y-62882946D01*
X154415576Y-62863189D01*
X154593240Y-62724906D01*
X154745722Y-62559268D01*
X154868860Y-62370791D01*
X154959296Y-62164616D01*
X155014564Y-61946368D01*
X155033156Y-61722000D01*
X155014564Y-61497632D01*
X154959296Y-61279384D01*
X154868860Y-61073209D01*
X154745722Y-60884732D01*
X154745721Y-60884731D01*
X154745718Y-60884726D01*
X154600510Y-60726990D01*
X154569587Y-60664336D01*
X154577447Y-60594910D01*
X154621594Y-60540754D01*
X154648396Y-60526829D01*
X154766204Y-60482889D01*
X154883261Y-60395261D01*
X154970889Y-60278204D01*
X155008628Y-60177023D01*
X155021988Y-60141205D01*
X155021988Y-60141203D01*
X155021989Y-60141201D01*
X155028500Y-60080638D01*
X155028500Y-58283362D01*
X155021989Y-58222799D01*
X155021988Y-58222797D01*
X155021988Y-58222794D01*
X154970889Y-58085796D01*
X154883261Y-57968738D01*
X154766203Y-57881110D01*
X154629205Y-57830011D01*
X154571924Y-57823853D01*
X154571918Y-57823852D01*
X154568638Y-57823500D01*
X152771362Y-57823500D01*
X152768082Y-57823852D01*
X152768075Y-57823853D01*
X152710794Y-57830011D01*
X152573796Y-57881110D01*
X152456738Y-57968738D01*
X152369110Y-58085796D01*
X152318011Y-58222794D01*
X152311853Y-58280075D01*
X152311500Y-58283362D01*
X152311500Y-60080638D01*
X152311852Y-60083918D01*
X152311853Y-60083924D01*
X152318011Y-60141205D01*
X152369110Y-60278203D01*
X152445456Y-60380190D01*
X152469873Y-60445654D01*
X152455021Y-60513927D01*
X152405615Y-60563332D01*
X152346189Y-60578500D01*
X151413281Y-60578500D01*
X151407555Y-60578368D01*
X151402850Y-60578150D01*
X151330962Y-60574827D01*
X151330961Y-60574827D01*
X151330959Y-60574827D01*
X151255023Y-60585419D01*
X151249335Y-60586079D01*
X151172983Y-60593154D01*
X151155685Y-60598076D01*
X151138893Y-60601618D01*
X151121073Y-60604104D01*
X151048376Y-60628470D01*
X151042906Y-60630164D01*
X150969149Y-60651149D01*
X150953044Y-60659169D01*
X150937185Y-60665738D01*
X150920136Y-60671452D01*
X150853174Y-60708749D01*
X150848111Y-60711418D01*
X150779447Y-60745610D01*
X150765089Y-60756452D01*
X150750712Y-60765820D01*
X150734998Y-60774573D01*
X150676003Y-60823561D01*
X150671516Y-60827115D01*
X150610328Y-60873323D01*
X150558681Y-60929976D01*
X150554726Y-60934118D01*
X148406666Y-63082181D01*
X148345343Y-63115666D01*
X148318985Y-63118500D01*
X147584707Y-63118500D01*
X147525685Y-63103552D01*
X147521064Y-63101051D01*
X147471475Y-63051830D01*
X147456370Y-62983613D01*
X147480543Y-62918058D01*
X147521066Y-62882946D01*
X147557576Y-62863189D01*
X147735240Y-62724906D01*
X147887722Y-62559268D01*
X148010860Y-62370791D01*
X148101296Y-62164616D01*
X148156564Y-61946368D01*
X148175156Y-61722000D01*
X148156564Y-61497632D01*
X148101296Y-61279384D01*
X148010860Y-61073209D01*
X147887722Y-60884732D01*
X147887721Y-60884731D01*
X147887718Y-60884726D01*
X147742510Y-60726990D01*
X147711587Y-60664336D01*
X147719447Y-60594910D01*
X147763594Y-60540754D01*
X147790396Y-60526829D01*
X147908204Y-60482889D01*
X148025261Y-60395261D01*
X148112889Y-60278204D01*
X148150628Y-60177023D01*
X148163988Y-60141205D01*
X148163988Y-60141203D01*
X148163989Y-60141201D01*
X148170500Y-60080638D01*
X148170500Y-58283362D01*
X148163989Y-58222799D01*
X148163988Y-58222797D01*
X148163988Y-58222794D01*
X148112889Y-58085796D01*
X148025261Y-57968738D01*
X147908203Y-57881110D01*
X147771205Y-57830011D01*
X147713924Y-57823853D01*
X147713918Y-57823852D01*
X147710638Y-57823500D01*
X145913362Y-57823500D01*
X145910082Y-57823852D01*
X145910075Y-57823853D01*
X145852794Y-57830011D01*
X145715796Y-57881110D01*
X145598738Y-57968738D01*
X145511110Y-58085796D01*
X145460011Y-58222794D01*
X145453853Y-58280075D01*
X145453500Y-58283362D01*
X145453500Y-60080638D01*
X145453852Y-60083918D01*
X145453853Y-60083924D01*
X145460011Y-60141205D01*
X145511110Y-60278203D01*
X145598738Y-60395261D01*
X145679334Y-60455594D01*
X145715796Y-60482889D01*
X145833596Y-60526826D01*
X145889527Y-60568697D01*
X145913944Y-60634161D01*
X145899092Y-60702434D01*
X145881490Y-60726990D01*
X145736279Y-60884730D01*
X145613138Y-61073211D01*
X145522705Y-61279381D01*
X145467435Y-61497636D01*
X145448843Y-61721999D01*
X145467435Y-61946363D01*
X145522705Y-62164618D01*
X145613138Y-62370788D01*
X145613140Y-62370791D01*
X145736278Y-62559268D01*
X145888760Y-62724906D01*
X146066424Y-62863189D01*
X146066426Y-62863190D01*
X146102931Y-62882946D01*
X146152521Y-62932165D01*
X146167629Y-63000382D01*
X146143458Y-63065937D01*
X146102931Y-63101054D01*
X146066426Y-63120809D01*
X145888760Y-63259094D01*
X145736279Y-63424730D01*
X145613138Y-63613211D01*
X145522705Y-63819381D01*
X145467435Y-64037636D01*
X145448843Y-64262000D01*
X112568500Y-64262000D01*
X112568500Y-59131000D01*
X114384807Y-59131000D01*
X114403558Y-59405130D01*
X114404419Y-59409277D01*
X114404421Y-59409286D01*
X114441744Y-59588889D01*
X114459462Y-59674153D01*
X114460880Y-59678144D01*
X114460883Y-59678153D01*
X114550056Y-59929061D01*
X114551477Y-59933058D01*
X114553424Y-59936816D01*
X114553426Y-59936820D01*
X114675939Y-60173260D01*
X114677889Y-60177023D01*
X114680335Y-60180488D01*
X114833898Y-60398039D01*
X114833902Y-60398044D01*
X114836343Y-60401502D01*
X114839231Y-60404594D01*
X115008726Y-60586079D01*
X115023889Y-60602314D01*
X115237031Y-60775718D01*
X115471800Y-60918484D01*
X115723823Y-61027953D01*
X115932825Y-61086512D01*
X115984324Y-61100942D01*
X115984326Y-61100942D01*
X115988404Y-61102085D01*
X116260615Y-61139500D01*
X116264852Y-61139500D01*
X116531148Y-61139500D01*
X116535385Y-61139500D01*
X116807596Y-61102085D01*
X117072177Y-61027953D01*
X117324200Y-60918484D01*
X117558969Y-60775718D01*
X117772111Y-60602314D01*
X117959657Y-60401502D01*
X118118111Y-60177023D01*
X118244523Y-59933058D01*
X118336538Y-59674153D01*
X118392442Y-59405130D01*
X118411193Y-59131000D01*
X129684807Y-59131000D01*
X129703558Y-59405130D01*
X129704419Y-59409277D01*
X129704421Y-59409286D01*
X129741744Y-59588889D01*
X129759462Y-59674153D01*
X129760880Y-59678144D01*
X129760883Y-59678153D01*
X129850056Y-59929061D01*
X129851477Y-59933058D01*
X129853424Y-59936816D01*
X129853426Y-59936820D01*
X129975939Y-60173260D01*
X129977889Y-60177023D01*
X129980335Y-60180488D01*
X130133898Y-60398039D01*
X130133902Y-60398044D01*
X130136343Y-60401502D01*
X130139231Y-60404594D01*
X130308726Y-60586079D01*
X130323889Y-60602314D01*
X130537031Y-60775718D01*
X130771800Y-60918484D01*
X131023823Y-61027953D01*
X131232825Y-61086512D01*
X131284324Y-61100942D01*
X131284326Y-61100942D01*
X131288404Y-61102085D01*
X131560615Y-61139500D01*
X131564852Y-61139500D01*
X131831148Y-61139500D01*
X131835385Y-61139500D01*
X132107596Y-61102085D01*
X132372177Y-61027953D01*
X132624200Y-60918484D01*
X132858969Y-60775718D01*
X133072111Y-60602314D01*
X133259657Y-60401502D01*
X133418111Y-60177023D01*
X133544523Y-59933058D01*
X133636538Y-59674153D01*
X133692442Y-59405130D01*
X133711193Y-59131000D01*
X133692442Y-58856870D01*
X133636538Y-58587847D01*
X133544523Y-58328942D01*
X133418111Y-58084977D01*
X133274207Y-57881111D01*
X133262101Y-57863960D01*
X133262099Y-57863957D01*
X133259657Y-57860498D01*
X133119742Y-57710686D01*
X133074998Y-57662777D01*
X133074996Y-57662775D01*
X133072111Y-57659686D01*
X133068829Y-57657016D01*
X133068826Y-57657013D01*
X132921656Y-57537282D01*
X132858969Y-57486282D01*
X132855345Y-57484078D01*
X132855342Y-57484076D01*
X132627818Y-57345716D01*
X132627816Y-57345715D01*
X132624200Y-57343516D01*
X132602707Y-57334180D01*
X132376058Y-57235732D01*
X132376048Y-57235728D01*
X132372177Y-57234047D01*
X132368105Y-57232906D01*
X132111675Y-57161057D01*
X132111662Y-57161054D01*
X132107596Y-57159915D01*
X132103406Y-57159339D01*
X132103396Y-57159337D01*
X131839582Y-57123076D01*
X131839569Y-57123075D01*
X131835385Y-57122500D01*
X131560615Y-57122500D01*
X131556431Y-57123075D01*
X131556417Y-57123076D01*
X131292603Y-57159337D01*
X131292590Y-57159339D01*
X131288404Y-57159915D01*
X131284340Y-57161053D01*
X131284324Y-57161057D01*
X131027894Y-57232906D01*
X131027889Y-57232907D01*
X131023823Y-57234047D01*
X131019956Y-57235726D01*
X131019941Y-57235732D01*
X130775683Y-57341829D01*
X130775678Y-57341831D01*
X130771800Y-57343516D01*
X130768189Y-57345711D01*
X130768181Y-57345716D01*
X130540657Y-57484076D01*
X130540646Y-57484083D01*
X130537031Y-57486282D01*
X130533741Y-57488958D01*
X130533739Y-57488960D01*
X130327173Y-57657013D01*
X130327162Y-57657022D01*
X130323889Y-57659686D01*
X130321010Y-57662768D01*
X130321001Y-57662777D01*
X130139231Y-57857405D01*
X130139226Y-57857410D01*
X130136343Y-57860498D01*
X130133907Y-57863948D01*
X130133898Y-57863960D01*
X129980335Y-58081511D01*
X129980331Y-58081516D01*
X129977889Y-58084977D01*
X129975943Y-58088731D01*
X129975939Y-58088739D01*
X129853426Y-58325179D01*
X129853421Y-58325188D01*
X129851477Y-58328942D01*
X129850060Y-58332927D01*
X129850056Y-58332938D01*
X129760883Y-58583846D01*
X129760879Y-58583858D01*
X129759462Y-58587847D01*
X129758599Y-58591997D01*
X129758598Y-58592003D01*
X129704421Y-58852713D01*
X129704419Y-58852724D01*
X129703558Y-58856870D01*
X129703269Y-58861094D01*
X129703268Y-58861102D01*
X129699780Y-58912102D01*
X129684807Y-59131000D01*
X118411193Y-59131000D01*
X118392442Y-58856870D01*
X118336538Y-58587847D01*
X118244523Y-58328942D01*
X118118111Y-58084977D01*
X117974207Y-57881111D01*
X117962101Y-57863960D01*
X117962099Y-57863957D01*
X117959657Y-57860498D01*
X117819742Y-57710686D01*
X117774998Y-57662777D01*
X117774996Y-57662775D01*
X117772111Y-57659686D01*
X117768829Y-57657016D01*
X117768826Y-57657013D01*
X117621656Y-57537282D01*
X117558969Y-57486282D01*
X117555345Y-57484078D01*
X117555342Y-57484076D01*
X117327818Y-57345716D01*
X117327816Y-57345715D01*
X117324200Y-57343516D01*
X117302707Y-57334180D01*
X117076058Y-57235732D01*
X117076048Y-57235728D01*
X117072177Y-57234047D01*
X117068105Y-57232906D01*
X116811675Y-57161057D01*
X116811662Y-57161054D01*
X116807596Y-57159915D01*
X116803406Y-57159339D01*
X116803396Y-57159337D01*
X116539582Y-57123076D01*
X116539569Y-57123075D01*
X116535385Y-57122500D01*
X116260615Y-57122500D01*
X116256431Y-57123075D01*
X116256417Y-57123076D01*
X115992603Y-57159337D01*
X115992590Y-57159339D01*
X115988404Y-57159915D01*
X115984340Y-57161053D01*
X115984324Y-57161057D01*
X115727894Y-57232906D01*
X115727889Y-57232907D01*
X115723823Y-57234047D01*
X115719956Y-57235726D01*
X115719941Y-57235732D01*
X115475683Y-57341829D01*
X115475678Y-57341831D01*
X115471800Y-57343516D01*
X115468189Y-57345711D01*
X115468181Y-57345716D01*
X115240657Y-57484076D01*
X115240646Y-57484083D01*
X115237031Y-57486282D01*
X115233741Y-57488958D01*
X115233739Y-57488960D01*
X115027173Y-57657013D01*
X115027162Y-57657022D01*
X115023889Y-57659686D01*
X115021010Y-57662768D01*
X115021001Y-57662777D01*
X114839231Y-57857405D01*
X114839226Y-57857410D01*
X114836343Y-57860498D01*
X114833907Y-57863948D01*
X114833898Y-57863960D01*
X114680335Y-58081511D01*
X114680331Y-58081516D01*
X114677889Y-58084977D01*
X114675943Y-58088731D01*
X114675939Y-58088739D01*
X114553426Y-58325179D01*
X114553421Y-58325188D01*
X114551477Y-58328942D01*
X114550060Y-58332927D01*
X114550056Y-58332938D01*
X114460883Y-58583846D01*
X114460879Y-58583858D01*
X114459462Y-58587847D01*
X114458599Y-58591997D01*
X114458598Y-58592003D01*
X114404421Y-58852713D01*
X114404419Y-58852724D01*
X114403558Y-58856870D01*
X114403269Y-58861094D01*
X114403268Y-58861102D01*
X114399780Y-58912102D01*
X114384807Y-59131000D01*
X112568500Y-59131000D01*
X112568500Y-55625999D01*
X137624501Y-55625999D01*
X137644456Y-55854084D01*
X137644457Y-55854087D01*
X137702934Y-56072326D01*
X137703717Y-56075246D01*
X137800474Y-56282744D01*
X137800476Y-56282746D01*
X137800477Y-56282749D01*
X137931802Y-56470300D01*
X138093700Y-56632198D01*
X138281251Y-56763523D01*
X138488757Y-56860284D01*
X138709913Y-56919543D01*
X138938000Y-56939498D01*
X139166087Y-56919543D01*
X139387243Y-56860284D01*
X139594749Y-56763523D01*
X139782300Y-56632198D01*
X139944198Y-56470300D01*
X140075523Y-56282749D01*
X140172284Y-56075243D01*
X140231543Y-55854087D01*
X140251498Y-55626000D01*
X140251498Y-55625999D01*
X140681033Y-55625999D01*
X140700858Y-55852602D01*
X140759733Y-56072326D01*
X140855866Y-56278484D01*
X140906972Y-56351471D01*
X140906974Y-56351472D01*
X141588046Y-55670399D01*
X141600835Y-55751148D01*
X141658359Y-55864045D01*
X141747955Y-55953641D01*
X141860852Y-56011165D01*
X141941599Y-56023953D01*
X141260526Y-56705025D01*
X141260526Y-56705026D01*
X141333515Y-56756133D01*
X141539673Y-56852266D01*
X141759397Y-56911141D01*
X141986000Y-56930966D01*
X142212602Y-56911141D01*
X142432326Y-56852266D01*
X142638480Y-56756134D01*
X142711472Y-56705025D01*
X142030401Y-56023953D01*
X142111148Y-56011165D01*
X142224045Y-55953641D01*
X142313641Y-55864045D01*
X142371165Y-55751148D01*
X142383953Y-55670400D01*
X143065025Y-56351472D01*
X143116134Y-56278480D01*
X143212266Y-56072326D01*
X143271141Y-55852602D01*
X143290966Y-55626000D01*
X143271141Y-55399397D01*
X143212266Y-55179673D01*
X143116133Y-54973515D01*
X143065025Y-54900526D01*
X142383953Y-55581598D01*
X142371165Y-55500852D01*
X142313641Y-55387955D01*
X142224045Y-55298359D01*
X142111148Y-55240835D01*
X142030400Y-55228046D01*
X142711472Y-54546974D01*
X142711471Y-54546972D01*
X142638484Y-54495866D01*
X142432326Y-54399733D01*
X142212602Y-54340858D01*
X141986000Y-54321033D01*
X141759397Y-54340858D01*
X141539672Y-54399733D01*
X141333516Y-54495865D01*
X141260527Y-54546973D01*
X141260526Y-54546973D01*
X141941600Y-55228046D01*
X141860852Y-55240835D01*
X141747955Y-55298359D01*
X141658359Y-55387955D01*
X141600835Y-55500852D01*
X141588046Y-55581599D01*
X140906973Y-54900526D01*
X140906973Y-54900527D01*
X140855865Y-54973516D01*
X140759733Y-55179672D01*
X140700858Y-55399397D01*
X140681033Y-55625999D01*
X140251498Y-55625999D01*
X140231543Y-55397913D01*
X140172284Y-55176757D01*
X140075523Y-54969251D01*
X139944198Y-54781700D01*
X139782300Y-54619802D01*
X139594749Y-54488477D01*
X139594746Y-54488476D01*
X139594744Y-54488474D01*
X139387246Y-54391717D01*
X139387243Y-54391716D01*
X139197440Y-54340858D01*
X139166084Y-54332456D01*
X138938000Y-54312501D01*
X138709915Y-54332456D01*
X138488753Y-54391717D01*
X138281255Y-54488474D01*
X138093696Y-54619805D01*
X137931805Y-54781696D01*
X137800474Y-54969255D01*
X137703717Y-55176753D01*
X137644456Y-55397915D01*
X137624501Y-55625999D01*
X112568500Y-55625999D01*
X112568500Y-53764500D01*
X112588185Y-53697461D01*
X112640989Y-53651706D01*
X112692500Y-53640500D01*
X181185500Y-53640500D01*
X181252539Y-53660185D01*
G37*
%TD.AperFunction*%
%TD*%
M02*
